SplineFontDB: 3.2
FontName: OCRACodeRegular
FullName: OCR A Code Regular
FamilyName: OCR A Code
Weight: Medium
Copyright: Digitized data copyright The Monotype Corporation 1991-1995. All rights reserved.
Version: 001.000
ItalicAngle: 0
UnderlinePosition: -100
UnderlineWidth: 50
Ascent: 1638
Descent: 410
InvalidEm: 0
sfntRevision: 0x00010000
LayerCount: 3
Layer: 0 0 "Back" 1
Layer: 1 0 "Fore" 1
Layer: 2 0 "Back 2" 0
XUID: [1021 396 994486733 11966]
StyleMap: 0x0040
FSType: 8
OS2Version: 3
OS2_WeightWidthSlopeOnly: 0
OS2_UseTypoMetrics: 0
CreationTime: 1570187735
ModificationTime: 1570355248
PfmFamily: 81
TTFWeight: 500
TTFWidth: 5
LineGap: 0
VLineGap: 0
Panose: 0 0 0 0 0 0 0 0 0 0
OS2TypoAscent: 1757
OS2TypoAOffset: 0
OS2TypoDescent: -362
OS2TypoDOffset: 0
OS2TypoLinegap: 0
OS2WinAscent: 1757
OS2WinAOffset: 0
OS2WinDescent: 362
OS2WinDOffset: 0
HheadAscent: 1757
HheadAOffset: 0
HheadDescent: -362
HheadDOffset: 0
OS2SubXSize: 1331
OS2SubYSize: 1228
OS2SubXOff: 0
OS2SubYOff: 153
OS2SupXSize: 1331
OS2SupYSize: 1228
OS2SupXOff: 0
OS2SupYOff: 716
OS2StrikeYSize: 49
OS2StrikeYPos: 258
OS2CapHeight: 1329
OS2XHeight: 965
OS2Vendor: 'XXXX'
OS2CodePages: 00000001.00000000
OS2UnicodeRanges: 800000af.1000204a.00000000.00000000
Lookup: 4 0 1 "'liga' Standard Ligatures lookup 0" { "'liga' Standard Ligatures lookup 0 subtable"  } ['liga' ('DFLT' <'dflt' > 'grek' <'dflt' > 'latn' <'dflt' > ) ]
DEI: 91125

StartChar: .notdef
Encoding: 65536 -1 0
Width: 472
Flags: HMW
HStem: 0 50<50 144 50 382 50 432> 650 50<50 160.5 50 382>
VStem: 0 50<50 650 50 700 466.5 650 50 700> 382 50<50 650 450 650>
LayerCount: 3
Fore
SplineSet
0 0 m 1
 0 0 0 233 0 700 c 1
 0 700 144 700 432 700 c 1
 432 700 432 467 432 0 c 1
 432 0 288 0 0 0 c 1
50 650 m 1
 50 650 50 450 50 50 c 1
 50 50 161 50 382 50 c 1
 382 50 382 250 382 650 c 1
 382 650 271 650 50 650 c 1
EndSplineSet
EndChar

StartChar: exclam
Encoding: 33 33 4
Width: 1237
Flags: HMW
HStem: 2 1327<584 614 614 668 668 670 574.5 679.5>
VStem: 500 254
LayerCount: 3
Fore
SplineSet
754 1243 m 2
 755 1266 748 1286 731 1303 c 0
 714 1320 693 1329 670 1329 c 2
 670 1329 642 1329 586 1329 c 0
 563 1329 543 1321 526 1304 c 0
 509 1287 501 1268 502 1245 c 2
 543 592 l 2
 544 570 552 550 569 533 c 0
 584 516 604 508 629 508 c 0
 651 508 670 516 686 532 c 0
 702 548 711 568 713 592 c 2
 754 1243 l 2
586 244 m 2
 563 244 543 236 526 219 c 0
 510 203 501 183 500 158 c 2
 500 86 l 2
 500 63 508 43 525 27 c 0
 541 10 561 2 584 2 c 2
 668 2 l 2
 691 2 711 10 728 27 c 0
 744 43 752 63 752 86 c 2
 752 160 l 2
 752 183 744 202 727 219 c 0
 710 236 690 244 666 244 c 2
 586 244 l 2
EndSplineSet
EndChar

StartChar: quotedbl
Encoding: 34 34 5
Width: 1237
Flags: HMW
HStem: 727 604<348.5 395.5>
VStem: 203 848<1253 1331 1253 1331>
LayerCount: 3
Fore
SplineSet
203 1253 m 1
 203 1253 231 1102 287 799 c 0
 296 751 324 727 373 727 c 0
 418 727 446 751 457 799 c 2
 530 1161 l 1
 725 1161 l 1
 797 801 l 2
 806 753 834 729 881 729 c 0
 928 729 957 753 967 801 c 2
 1051 1253 l 1
 1051 1331 l 1
 203 1331 l 1
 203 1253 l 1
EndSplineSet
EndChar

StartChar: numbersign
Encoding: 35 35 6
Width: 1237
Flags: HMW
HStem: 678 190<291 713 545 713 545 713 885 969 545 885>
VStem: 545 168<303 372 372 510 291.5 510 678 868 1038 1245>
LayerCount: 3
Fore
SplineSet
713 510 m 1
 713 510 713 441 713 303 c 0
 713 280 721 260 738 243 c 0
 755 226 775 217 797 217 c 0
 820 217 841 226 858 243 c 0
 875 260 883 280 883 303 c 2
 883 510 l 1
 969 510 l 2
 994 510 1014 519 1030 536 c 0
 1045 553 1053 573 1053 594 c 0
 1053 617 1045 636 1028 653 c 0
 1011 670 992 678 969 678 c 2
 885 678 l 1
 885 868 l 1
 969 868 l 2
 990 868 1009 876 1026 893 c 0
 1044 910 1053 930 1053 954 c 0
 1053 977 1045 997 1028 1014 c 0
 1011 1030 991 1038 969 1038 c 2
 883 1038 l 1
 883 1245 l 2
 883 1268 875 1287 858 1304 c 0
 841 1321 821 1329 797 1329 c 0
 775 1329 755 1321 738 1305 c 0
 721 1288 713 1268 713 1245 c 2
 713 1038 l 1
 545 1038 l 1
 545 1245 l 2
 545 1268 537 1287 520 1304 c 0
 503 1321 484 1329 461 1329 c 0
 438 1329 418 1321 402 1305 c 0
 385 1288 377 1268 377 1245 c 2
 377 1038 l 1
 291 1038 l 2
 268 1038 248 1030 232 1014 c 0
 215 998 207 978 207 954 c 0
 207 931 215 911 232 895 c 0
 248 878 268 870 291 870 c 2
 375 870 l 1
 375 678 l 1
 291 678 l 2
 268 678 248 670 232 653 c 0
 215 636 207 617 207 594 c 0
 207 571 215 551 232 535 c 0
 248 518 268 510 291 510 c 2
 377 510 l 1
 377 303 l 2
 377 280 385 260 402 243 c 0
 418 226 438 217 461 217 c 0
 484 217 504 226 521 243 c 0
 537 260 545 280 545 303 c 2
 545 510 l 1
 713 510 l 1
713 868 m 1
 713 678 l 1
 545 678 l 1
 545 868 l 1
 713 868 l 1
EndSplineSet
EndChar

StartChar: dollar
Encoding: 36 36 7
Width: 1237
Flags: HMW
HStem: 461 121<277.5 883 291 883 291 883> 750 120<377 969 377 971>
VStem: 205 852<365.5 967.5> 377 166 713 170
LayerCount: 3
Fore
SplineSet
1055 666 m 2xe0
 1055 689 1047 708 1030 725 c 0
 1013 742 993 750 969 750 c 2
 377 750 l 1
 377 870 l 1
 971 870 l 2
 994 870 1015 879 1032 896 c 0
 1049 913 1057 933 1057 956 c 0
 1057 979 1049 998 1032 1015 c 0
 1015 1032 995 1040 971 1040 c 2
 713 1040 l 1
 713 1245 l 2
 713 1268 705 1288 689 1305 c 0
 672 1321 653 1329 630 1329 c 0
 603 1329 582 1321 567 1304 c 0
 551 1287 543 1267 543 1245 c 2
 543 1040 l 1
 291 1040 l 2
 268 1040 248 1032 232 1016 c 0
 215 999 207 979 207 956 c 2
 207 666 l 2
 207 642 215 622 232 606 c 0
 248 590 268 582 291 582 c 2
 883 582 l 1
 883 461 l 1
 289 461 l 2
 266 461 246 453 230 437 c 0
 213 420 205 400 205 377 c 0
 205 354 213 334 230 318 c 0
 247 301 266 293 289 293 c 2
 543 293 l 1
 543 86 l 2
 543 63 551 43 568 27 c 0
 585 10 605 2 629 2 c 0
 652 2 671 10 688 27 c 0
 705 43 713 63 713 86 c 2
 713 291 l 1xd8
 969 291 l 2
 993 291 1013 299 1030 316 c 0
 1047 333 1055 352 1055 375 c 2
 1055 666 l 2xe0
EndSplineSet
EndChar

StartChar: percent
Encoding: 37 37 8
Width: 1237
Flags: HMW
HStem: 0 1329<275.5 965 275.5 976.5>
VStem: 203 848<1089 1096 1096 1112.5 1089 1243>
LayerCount: 3
Fore
SplineSet
287 1329 m 2
 264 1329 245 1321 228 1304 c 0
 211 1287 203 1267 203 1243 c 2
 203 1096 l 2
 203 1073 211 1054 227 1037 c 0
 243 1020 262 1012 285 1012 c 2
 459 1012 l 2
 481 1012 501 1021 518 1038 c 0
 535 1055 543 1075 543 1098 c 2
 543 1243 l 2
 543 1267 535 1287 518 1304 c 0
 501 1321 481 1329 457 1329 c 2
 287 1329 l 2
1028 1036 m 2
 1043 1057 1051 1078 1051 1100 c 0
 1051 1125 1043 1144 1026 1159 c 0
 1009 1174 988 1182 965 1182 c 0
 940 1182 921 1174 907 1157 c 2
 227 289 l 2
 212 270 205 250 205 228 c 0
 205 205 214 186 233 170 c 0
 250 153 270 145 293 145 c 0
 316 145 334 153 348 170 c 2
 1028 1036 l 2
795 315 m 2
 771 315 751 307 735 291 c 0
 719 275 711 255 711 231 c 2
 711 84 l 2
 711 60 719 40 735 24 c 0
 750 8 770 0 793 0 c 2
 965 0 l 2
 988 0 1008 8 1025 25 c 0
 1041 41 1049 61 1049 84 c 2
 1049 231 l 2
 1049 255 1041 275 1025 291 c 0
 1008 307 988 315 965 315 c 2
 795 315 l 2
EndSplineSet
EndChar

StartChar: ampersand
Encoding: 38 38 9
Width: 1237
Flags: HMW
HStem: 0 1182<428.5 983.5>
VStem: 209 849<222.5 388 365.5 375 365.5 823 365.5 928>
LayerCount: 3
Fore
SplineSet
913 25 m 2
 929 8 949 0 972 0 c 0
 995 0 1015 8 1032 24 c 0
 1048 40 1056 59 1056 82 c 0
 1056 105 1048 125 1032 143 c 2
 944 242 l 1
 1032 319 l 2
 1049 334 1058 354 1058 377 c 0
 1058 399 1050 419 1035 436 c 0
 1019 453 1000 461 977 461 c 0
 953 461 932 453 913 436 c 2
 827 365 l 1
 643 559 l 1
 844 731 l 2
 873 756 887 784 887 815 c 2
 887 928 l 2
 887 997 862 1057 812 1107 c 0
 762 1157 702 1182 633 1182 c 2
 463 1182 l 2
 394 1182 334 1157 284 1107 c 0
 234 1057 209 997 209 928 c 2
 209 823 l 2
 209 794 219 768 240 745 c 2
 395 575 l 1
 242 444 l 2
 220 425 209 402 209 375 c 2
 209 258 l 2
 209 187 234 127 284 77 c 0
 333 27 393 2 463 2 c 2
 637 2 l 2
 660 2 676 7 684 18 c 2
 813 129 l 1
 913 25 l 2
528 686 m 1
 379 846 l 1
 379 930 l 2
 379 954 387 974 404 991 c 0
 420 1008 440 1016 463 1016 c 2
 635 1016 l 2
 658 1016 678 1008 695 991 c 0
 711 974 719 954 719 930 c 2
 719 848 l 1
 528 686 l 1
514 451 m 1
 696 254 l 1
 600 170 l 1
 463 170 l 2
 440 170 421 178 404 195 c 0
 387 211 379 231 379 254 c 2
 379 336 l 1
 514 451 l 1
EndSplineSet
EndChar

StartChar: quotesingle
Encoding: 39 39 10
Width: 1237
Flags: HMW
HStem: 582 747<537.5 551 551 570>
VStem: 463 339<672 1255.5>
LayerCount: 3
Fore
SplineSet
551 1329 m 2
 524 1329 502 1320 487 1302 c 0
 471 1284 463 1262 463 1235 c 2
 463 1235 463 1047 463 672 c 0
 463 646 471 625 488 608 c 0
 504 591 524 582 549 582 c 0
 591 582 618 603 631 645 c 2
 799 1223 l 2
 801 1230 802 1237 802 1244 c 0
 802 1267 794 1287 777 1304 c 0
 760 1321 740 1329 717 1329 c 2
 551 1329 l 2
EndSplineSet
EndChar

StartChar: parenleft
Encoding: 40 40 11
Width: 1237
Flags: HMW
HStem: -3 1334<783.5 806.5 783.5 807.5>
VStem: 461 422<69.5 485 69.5 844>
LayerCount: 3
Fore
SplineSet
629 825 m 2
 629 869 642 908 668 942 c 2
 668 942 735 1027 868 1196 c 0
 878 1208 883 1224 883 1244 c 0
 883 1271 874 1293 857 1308 c 0
 838 1323 818 1331 795 1331 c 0
 772 1331 753 1322 739 1305 c 2
 537 1047 l 2
 486 982 461 915 461 844 c 2
 461 485 l 2
 461 412 486 344 537 281 c 2
 739 23 l 2
 752 6 771 -3 796 -3 c 0
 819 -3 840 5 857 20 c 0
 874 35 883 56 883 83 c 0
 883 104 878 120 868 131 c 2
 668 387 l 2
 642 420 629 458 629 502 c 2
 629 825 l 2
EndSplineSet
EndChar

StartChar: parenright
Encoding: 41 41 12
Width: 1237
Flags: HMW
HStem: -3 1334<462.5 485>
VStem: 387 422<71.5 844 485 1256>
LayerCount: 3
Fore
SplineSet
643 502 m 2
 643 459 629 420 602 387 c 2
 602 387 535 302 401 133 c 0
 392 120 387 104 387 85 c 0
 387 58 396 37 413 21 c 0
 430 5 450 -3 473 -3 c 0
 497 -3 516 6 530 23 c 2
 735 281 l 2
 784 342 809 410 809 485 c 2
 809 844 l 2
 809 917 784 984 735 1047 c 2
 530 1305 l 2
 516 1322 497 1331 474 1331 c 0
 451 1331 431 1323 414 1307 c 0
 396 1290 387 1269 387 1243 c 0
 387 1225 392 1209 401 1196 c 2
 602 942 l 2
 629 907 643 868 643 827 c 2
 643 502 l 2
EndSplineSet
EndChar

StartChar: asterisk
Encoding: 42 42 13
Width: 1237
Flags: HMW
HStem: 147 1035<642.5 665.5 642.5 665.5>
VStem: 231 849<365.5 964>
LayerCount: 3
Fore
SplineSet
377 1016 m 2
 359 1032 339 1040 316 1040 c 0
 293 1040 274 1032 257 1015 c 0
 240 998 232 978 232 955 c 0
 232 930 241 910 258 895 c 2
 527 664 l 1
 256 434 l 2
 239 420 231 401 231 377 c 0
 231 354 239 334 256 317 c 0
 272 300 292 291 315 291 c 0
 338 291 358 298 375 313 c 2
 568 479 l 1
 568 231 l 2
 568 208 576 189 593 172 c 0
 610 155 630 147 654 147 c 0
 677 147 696 155 713 172 c 0
 730 189 738 208 738 231 c 2
 738 483 l 1
 934 315 l 2
 953 300 974 292 995 292 c 0
 1018 292 1038 300 1054 317 c 0
 1070 334 1078 354 1078 377 c 0
 1078 400 1070 419 1053 434 c 2
 785 664 l 1
 1055 895 l 2
 1072 910 1080 929 1080 953 c 0
 1080 975 1072 995 1057 1012 c 0
 1042 1029 1023 1037 998 1037 c 0
 975 1037 953 1029 934 1014 c 2
 738 846 l 1
 738 1098 l 2
 738 1121 730 1140 713 1157 c 0
 696 1174 677 1182 654 1182 c 0
 631 1182 611 1174 594 1157 c 0
 577 1140 568 1120 568 1098 c 2
 568 850 l 1
 377 1016 l 2
EndSplineSet
EndChar

StartChar: plus
Encoding: 43 43 14
Width: 1237
Flags: HMW
HStem: 240 852<619.5 641>
VStem: 203 854<656.5 679.5>
LayerCount: 3
Fore
SplineSet
287 752 m 2
 264 752 245 744 228 727 c 0
 211 710 203 691 203 668 c 0
 203 645 211 625 228 609 c 0
 245 592 264 584 287 584 c 2
 545 584 l 1
 545 326 l 2
 545 302 553 282 570 265 c 0
 586 248 606 240 629 240 c 0
 653 240 673 248 690 265 c 0
 707 282 715 302 715 326 c 2
 715 584 l 1
 971 584 l 2
 995 584 1015 592 1032 609 c 0
 1049 625 1057 645 1057 668 c 0
 1057 691 1049 711 1032 728 c 0
 1015 744 994 752 971 752 c 2
 713 752 l 1
 713 1010 l 2
 713 1033 705 1052 689 1068 c 0
 673 1084 654 1092 631 1092 c 0
 608 1092 587 1084 570 1068 c 0
 553 1052 545 1033 545 1010 c 2
 545 752 l 1
 287 752 l 2
EndSplineSet
EndChar

StartChar: comma
Encoding: 44 44 15
Width: 1237
Flags: HMW
HStem: 2 606<787.5 799 447.5 810.5>
VStem: 375 508<512.5 522 522 534 86 535.5>
LayerCount: 3
Fore
SplineSet
883 522 m 2
 883 546 875 566 859 583 c 0
 842 600 822 608 799 608 c 2
 799 608 686 608 459 608 c 0
 436 608 417 600 400 583 c 0
 383 566 375 547 375 524 c 0
 375 501 383 481 400 464 c 0
 416 447 436 438 459 438 c 2
 715 438 l 1
 715 86 l 2
 715 63 723 43 740 27 c 0
 756 10 776 2 799 2 c 0
 822 2 842 10 859 27 c 0
 875 43 883 63 883 86 c 2
 883 522 l 2
EndSplineSet
EndChar

StartChar: hyphen
Encoding: 45 45 16
Width: 1237
Flags: HMW
HStem: 510 244<291 517 517 969>
VStem: 207 846<584.5 670 596 670>
LayerCount: 3
Fore
SplineSet
1053 670 m 2
 1053 695 1044 715 1027 731 c 0
 1010 746 990 754 969 754 c 2
 969 754 743 754 291 754 c 0
 268 754 248 746 232 730 c 0
 215 713 207 693 207 670 c 2
 207 596 l 2
 207 573 215 553 232 536 c 0
 248 519 268 510 291 510 c 2
 969 510 l 2
 992 510 1012 519 1029 536 c 0
 1045 553 1053 573 1053 596 c 2
 1053 670 l 2
EndSplineSet
EndChar

StartChar: period
Encoding: 46 46 17
Width: 1237
Flags: HMW
HStem: 217 313<541 543 543 713 531.5 724.5>
VStem: 457 340<303 349.5 303 446 303 446>
LayerCount: 3
Fore
SplineSet
543 530 m 2
 520 530 499 522 482 506 c 0
 465 489 457 469 457 446 c 2
 457 446 457 398 457 301 c 0
 457 278 465 259 482 242 c 0
 498 225 518 217 541 217 c 2
 713 217 l 2
 736 217 756 226 773 243 c 0
 789 260 797 280 797 303 c 2
 797 446 l 2
 797 469 789 489 772 506 c 0
 755 522 735 530 713 530 c 2
 543 530 l 2
EndSplineSet
EndChar

StartChar: slash
Encoding: 47 47 18
Width: 1237
Flags: HMW
HStem: -1 1331<306.5 992.5>
VStem: 227 844
LayerCount: 3
Fore
SplineSet
1050 1184 m 2
 1064 1207 1071 1229 1071 1252 c 0
 1071 1275 1062 1294 1043 1309 c 0
 1024 1323 1003 1330 982 1330 c 0
 958 1330 940 1321 929 1303 c 2
 247 145 l 2
 234 122 227 100 227 79 c 0
 227 56 237 37 256 22 c 0
 275 7 296 -1 317 -1 c 0
 340 -1 357 8 368 25 c 2
 1050 1184 l 2
EndSplineSet
EndChar

StartChar: zero
Encoding: 48 48 19
Width: 1237
Flags: HMW
HStem: 2 1329<365 887 713 889 343 909.5>
VStem: 203 846<141.5 1169 164 1169>
LayerCount: 3
Fore
SplineSet
203 164 m 2
 203 119 219 81 250 50 c 0
 281 18 319 2 365 2 c 2
 365 2 539 2 887 2 c 0
 932 2 970 18 1002 50 c 0
 1033 81 1049 119 1049 164 c 2
 1049 1169 l 2
 1049 1212 1033 1250 1002 1283 c 0
 970 1315 932 1331 889 1331 c 2
 365 1331 l 2
 321 1331 283 1315 251 1283 c 0
 219 1251 203 1213 203 1169 c 2
 203 164 l 2
371 170 m 1
 371 1161 l 1
 883 1161 l 1
 883 170 l 1
 371 170 l 1
EndSplineSet
EndChar

StartChar: one
Encoding: 49 49 20
Width: 1237
Flags: HMW
HStem: 2 1327<285 289 289 711 277.5 963 277.5 974.5>
VStem: 711 168<170 520 170 1329>
LayerCount: 3
Fore
SplineSet
285 170 m 2
 262 170 242 162 226 146 c 0
 209 130 201 111 201 88 c 0
 201 65 209 45 226 28 c 0
 242 11 262 2 285 2 c 2
 963 2 l 2
 986 2 1006 10 1023 27 c 0
 1039 43 1047 63 1047 86 c 2
 1047 520 l 2
 1047 543 1039 563 1023 580 c 0
 1006 596 986 604 963 604 c 0
 940 604 920 596 904 579 c 0
 887 562 879 543 879 520 c 2
 879 170 l 1
 711 170 l 1
 711 1329 l 1
 289 1329 l 2
 266 1329 246 1321 230 1305 c 0
 213 1288 205 1268 205 1245 c 0
 205 1222 213 1202 230 1186 c 0
 246 1169 266 1161 289 1161 c 2
 543 1161 l 1
 543 170 l 1
 285 170 l 2
EndSplineSet
EndChar

StartChar: two
Encoding: 50 50 21
Width: 1237
Flags: HMW
HStem: 2 1327<271 283 283 883 271 969 271 980.5>
VStem: 199 854
LayerCount: 3
Fore
SplineSet
969 2 m 2
 992 2 1011 10 1028 27 c 0
 1045 43 1053 63 1053 86 c 0
 1053 109 1045 129 1028 146 c 0
 1011 162 991 170 969 170 c 2
 373 170 l 1
 373 582 l 1
 883 582 l 2
 930 582 970 599 1003 632 c 0
 1036 665 1053 705 1053 752 c 2
 1053 1161 l 2
 1053 1207 1036 1247 1003 1280 c 0
 970 1313 930 1329 883 1329 c 2
 283 1329 l 2
 259 1329 239 1321 223 1305 c 0
 207 1288 199 1268 199 1245 c 0
 199 1222 207 1202 223 1186 c 0
 239 1169 259 1161 283 1161 c 2
 883 1161 l 1
 883 752 l 1
 373 752 l 2
 328 752 288 735 255 702 c 0
 222 669 205 629 205 582 c 2
 205 2 l 1
 969 2 l 2
EndSplineSet
EndChar

StartChar: three
Encoding: 51 51 22
Width: 1237
Flags: HMW
HStem: 2 1327<291 885 273.5 908.5>
VStem: 201 854<170 1256.5>
LayerCount: 3
Fore
SplineSet
1053 1161 m 2
 1053 1208 1037 1247 1004 1280 c 0
 971 1313 932 1329 885 1329 c 2
 285 1329 l 2
 262 1329 242 1321 226 1305 c 0
 209 1288 201 1268 201 1245 c 0
 201 1222 209 1202 226 1186 c 0
 242 1169 262 1161 285 1161 c 2
 885 1161 l 1
 885 836 l 2
 885 813 877 793 860 777 c 0
 843 760 824 752 801 752 c 2
 461 752 l 2
 438 752 418 744 402 728 c 0
 385 711 377 691 377 668 c 0
 377 644 385 624 402 608 c 0
 418 592 438 584 461 584 c 2
 799 584 l 2
 822 584 842 576 859 559 c 0
 875 542 883 522 883 498 c 2
 883 170 l 1
 291 170 l 2
 268 170 248 162 232 146 c 0
 215 129 207 109 207 86 c 0
 207 63 215 43 232 27 c 0
 248 10 268 2 291 2 c 2
 885 2 l 2
 932 2 972 19 1005 52 c 0
 1038 85 1055 125 1055 170 c 2
 1055 498 l 2
 1055 560 1032 617 985 668 c 1
 1030 713 1053 773 1053 846 c 2
 1053 1161 l 2
EndSplineSet
EndChar

StartChar: four
Encoding: 52 52 23
Width: 1237
Flags: HMW
HStem: 2 1329<324.5 851.5>
VStem: 420 336<606 1098>
LayerCount: 3
Fore
SplineSet
756 86 m 2
 756 63 764 43 781 27 c 0
 797 10 817 2 840 2 c 0
 863 2 882 10 899 27 c 0
 916 43 924 63 924 86 c 2
 924 438 l 1
 947 438 967 446 984 463 c 0
 1000 479 1008 499 1008 522 c 0
 1008 545 1000 565 984 582 c 0
 967 598 947 606 924 606 c 1
 924 1098 l 2
 924 1122 916 1142 900 1159 c 0
 883 1176 863 1184 840 1184 c 0
 817 1184 797 1176 781 1159 c 0
 764 1142 756 1122 756 1098 c 2
 756 606 l 1
 420 606 l 1
 420 1245 l 2
 420 1269 412 1289 395 1306 c 0
 378 1323 359 1331 336 1331 c 0
 313 1331 293 1323 276 1306 c 0
 259 1289 250 1268 250 1245 c 2
 250 436 l 1
 756 436 l 1
 756 86 l 2
EndSplineSet
EndChar

StartChar: five
Encoding: 53 53 24
Width: 1237
Flags: HMW
HStem: 2 1327<514 903 903 926>
VStem: 225 846<170 171.5>
LayerCount: 3
Fore
SplineSet
514 170 m 2
 499 170 486 174 473 182 c 2
 473 182 436 198 362 229 c 0
 340 239 321 244 304 244 c 0
 281 244 263 236 248 220 c 0
 233 203 225 183 225 160 c 0
 225 121 242 94 276 80 c 2
 403 27 l 2
 441 10 478 2 514 2 c 2
 903 2 l 2
 949 2 989 19 1022 52 c 0
 1055 85 1071 124 1071 170 c 2
 1071 582 l 2
 1071 627 1054 667 1021 700 c 0
 988 733 948 750 903 750 c 2
 565 750 l 1
 565 1161 l 1
 987 1161 l 2
 1010 1161 1030 1169 1047 1186 c 0
 1063 1202 1071 1222 1071 1245 c 0
 1071 1268 1063 1287 1046 1304 c 0
 1029 1321 1010 1329 987 1329 c 2
 395 1329 l 1
 395 582 l 1
 903 582 l 1
 903 170 l 1
 514 170 l 2
EndSplineSet
EndChar

StartChar: six
Encoding: 54 54 25
Width: 1237
Flags: HMW
HStem: 170 266<375 883 375 883>
VStem: 207 846<86 472.5 86 520 520 532 86 1245>
LayerCount: 3
Fore
SplineSet
293 1329 m 2
 270 1329 249 1321 232 1305 c 0
 215 1288 207 1268 207 1245 c 2
 207 1245 207 859 207 86 c 0
 207 64 216 44 233 27 c 0
 250 10 270 2 293 2 c 2
 967 2 l 2
 991 2 1011 10 1028 27 c 0
 1045 43 1053 63 1053 86 c 2
 1053 520 l 2
 1053 544 1045 564 1028 581 c 0
 1011 598 992 606 969 606 c 2
 377 606 l 1
 377 1161 l 1
 400 1161 420 1169 437 1186 c 0
 453 1202 461 1222 461 1245 c 0
 461 1267 453 1287 437 1304 c 0
 420 1321 400 1329 377 1329 c 2
 293 1329 l 2
883 436 m 1
 883 170 l 1
 375 170 l 1
 375 436 l 1
 883 436 l 1
EndSplineSet
EndChar

StartChar: seven
Encoding: 55 55 26
Width: 1237
Flags: HMW
HStem: 2 1325<613.5 636.5>
VStem: 203 846<1159.5 1171 1171 1243>
LayerCount: 3
Fore
SplineSet
203 1171 m 2
 203 1148 211 1128 228 1112 c 0
 244 1095 264 1087 287 1087 c 0
 331 1087 359 1111 371 1159 c 1
 879 1159 l 1
 879 846 l 1
 569 584 l 2
 549 567 539 542 539 510 c 2
 539 86 l 2
 539 64 548 44 565 27 c 0
 582 10 602 2 625 2 c 0
 648 2 668 11 685 28 c 0
 701 45 709 65 709 88 c 2
 709 479 l 1
 1018 743 l 2
 1039 761 1049 784 1049 811 c 2
 1049 1327 l 1
 287 1327 l 2
 264 1327 244 1319 228 1303 c 0
 211 1286 203 1266 203 1243 c 2
 203 1171 l 2
EndSplineSet
EndChar

StartChar: eight
Encoding: 56 56 27
Width: 1237
Flags: HMW
HStem: 2 1327<443 455 455 797 443 881 711 797 443 903.5>
VStem: 539 174<750 1161 750 1161>
LayerCount: 3
Fore
SplineSet
201 172 m 2
 201 129 218 89 251 54 c 0
 284 19 324 2 371 2 c 2
 371 2 541 2 881 2 c 0
 926 2 966 19 999 52 c 0
 1032 85 1049 125 1049 170 c 2
 1049 582 l 2
 1049 629 1032 669 999 702 c 0
 966 734 927 750 881 750 c 1
 881 1245 l 2
 881 1268 873 1288 857 1305 c 0
 840 1321 820 1329 797 1329 c 2
 455 1329 l 2
 431 1329 411 1321 395 1305 c 0
 379 1288 371 1268 371 1245 c 2
 371 750 l 1
 324 750 284 734 251 701 c 0
 218 668 201 628 201 582 c 2
 201 172 l 2
713 1161 m 1
 713 750 l 1
 539 750 l 1
 539 1161 l 1
 713 1161 l 1
881 582 m 1
 881 170 l 1
 371 170 l 1
 371 582 l 1
 881 582 l 1
EndSplineSet
EndChar

StartChar: nine
Encoding: 57 57 28
Width: 1237
Flags: HMW
HStem: 897 264<377 887 377 887>
VStem: 209 844<799.5 811 811 1247>
LayerCount: 3
Fore
SplineSet
969 4 m 2
 992 4 1012 12 1029 29 c 0
 1045 45 1053 65 1053 88 c 2
 1053 88 1053 474 1053 1247 c 0
 1053 1270 1045 1289 1028 1306 c 0
 1011 1323 992 1331 969 1331 c 2
 293 1331 l 2
 270 1331 251 1323 234 1306 c 0
 217 1289 209 1270 209 1247 c 2
 209 811 l 2
 209 788 217 769 234 752 c 0
 251 735 270 727 293 727 c 2
 885 727 l 1
 885 172 l 1
 862 172 842 164 826 148 c 0
 809 131 801 111 801 88 c 0
 801 65 809 45 826 29 c 0
 843 12 862 4 885 4 c 2
 969 4 l 2
377 897 m 1
 377 1161 l 1
 887 1161 l 1
 887 897 l 1
 377 897 l 1
EndSplineSet
EndChar

StartChar: colon
Encoding: 58 58 29
Width: 1237
Flags: HMW
HStem: 530 267<543 545 545 713>
VStem: 461 338<290 446 303 446 303 446 881 929.5 881 1026>
LayerCount: 3
Fore
SplineSet
545 1110 m 2
 522 1110 502 1102 486 1085 c 0
 469 1068 461 1049 461 1026 c 2
 461 1026 461 978 461 881 c 0
 461 857 469 837 485 821 c 0
 500 805 520 797 543 797 c 2
 715 797 l 2
 738 797 757 805 774 822 c 0
 791 839 799 858 799 881 c 2
 799 1026 l 2
 799 1047 791 1066 774 1083 c 0
 757 1101 736 1110 713 1110 c 2
 545 1110 l 2
545 530 m 2
 522 530 502 522 486 506 c 0
 469 490 461 470 461 446 c 2
 461 301 l 2
 461 279 469 259 485 242 c 0
 500 225 519 217 543 217 c 2
 715 217 l 2
 737 217 757 226 774 243 c 0
 791 260 799 280 799 303 c 2
 799 446 l 2
 799 469 791 489 774 506 c 0
 757 522 736 530 713 530 c 2
 545 530 l 2
EndSplineSet
EndChar

StartChar: semicolon
Encoding: 59 59 30
Width: 1237
Flags: HMW
HStem: 608 266<441.5 627 457 627 627 638.5 457 793>
VStem: 369 508<512.5 522 522 534 86 535.5>
LayerCount: 3
Fore
SplineSet
457 1186 m 2
 434 1186 415 1178 398 1161 c 0
 381 1144 373 1125 373 1102 c 2
 373 958 l 2
 373 935 381 915 398 899 c 0
 414 882 434 874 457 874 c 2
 627 874 l 2
 650 874 670 882 687 899 c 0
 703 915 711 935 711 958 c 2
 711 1102 l 2
 711 1125 703 1145 687 1162 c 0
 670 1178 650 1186 627 1186 c 2
 457 1186 l 2
877 522 m 2
 877 546 869 566 852 583 c 0
 835 600 816 608 793 608 c 2
 453 608 l 2
 430 608 410 600 394 583 c 0
 377 566 369 547 369 524 c 0
 369 501 377 481 393 464 c 0
 409 447 428 438 451 438 c 2
 707 438 l 1
 707 86 l 2
 707 63 715 43 732 27 c 0
 749 10 769 2 793 2 c 0
 816 2 835 10 852 27 c 0
 869 43 877 63 877 86 c 2
 877 522 l 2
EndSplineSet
EndChar

StartChar: less
Encoding: 60 60 31
Width: 1237
Flags: HMW
HStem: 144 1043<965.5 985>
VStem: 207 850<218 633 218 698>
LayerCount: 3
Fore
SplineSet
207 633 m 2
 207 599 224 572 258 553 c 2
 258 553 479 423 920 162 c 0
 939 150 957 144 974 144 c 0
 996 144 1015 152 1032 169 c 0
 1049 186 1057 206 1057 230 c 0
 1057 261 1045 285 1020 301 c 2
 401 666 l 1
 1020 1032 l 2
 1045 1047 1057 1070 1057 1101 c 0
 1057 1125 1049 1145 1032 1162 c 0
 1015 1179 996 1187 974 1187 c 0
 956 1187 938 1181 920 1169 c 2
 258 778 l 2
 224 758 207 731 207 698 c 2
 207 633 l 2
EndSplineSet
EndChar

StartChar: equal
Encoding: 61 61 32
Width: 1237
Flags: HMW
HStem: 606 193<276 967 287 967>
VStem: 203 848<510.5 533.5 871.5 894.5>
LayerCount: 3
Fore
SplineSet
967 799 m 2
 990 799 1010 807 1027 824 c 0
 1043 840 1051 860 1051 883 c 0
 1051 906 1043 926 1027 943 c 0
 1010 959 990 967 967 967 c 2
 287 967 l 2
 264 967 245 959 228 942 c 0
 211 925 203 906 203 883 c 0
 203 860 211 841 228 824 c 0
 245 807 264 799 287 799 c 2
 967 799 l 2
967 436 m 2
 990 436 1010 445 1027 462 c 0
 1043 479 1051 499 1051 522 c 0
 1051 545 1043 564 1026 581 c 0
 1009 598 990 606 967 606 c 2
 287 606 l 2
 265 606 245 598 228 582 c 0
 211 565 203 545 203 522 c 0
 203 499 211 479 228 462 c 0
 245 445 265 436 287 436 c 2
 967 436 l 2
EndSplineSet
EndChar

StartChar: greater
Encoding: 62 62 33
Width: 1237
Flags: HMW
HStem: 144 1043<301.5 320.5>
VStem: 229 849<216.5 698 633 1114.5>
LayerCount: 3
Fore
SplineSet
1078 698 m 2
 1078 733 1062 759 1029 778 c 2
 1029 778 808 908 367 1169 c 0
 347 1181 329 1187 312 1187 c 0
 291 1187 272 1179 255 1163 c 0
 238 1147 229 1127 229 1102 c 0
 229 1070 242 1046 267 1030 c 2
 885 666 l 1
 267 299 l 2
 242 284 229 260 229 229 c 0
 229 204 238 184 255 168 c 0
 272 152 291 144 312 144 c 0
 329 144 348 150 367 162 c 2
 1029 553 l 2
 1062 572 1078 598 1078 633 c 2
 1078 698 l 2
EndSplineSet
EndChar

StartChar: question
Encoding: 63 63 34
Width: 1237
Flags: HMW
HStem: 2 1326<469.5 833.5>
VStem: 229 846<797.5 1098>
LayerCount: 3
Fore
SplineSet
1052 897 m 2
 1067 910 1075 929 1075 954 c 2
 1075 954 1075 1002 1075 1098 c 0
 1075 1125 1065 1146 1046 1161 c 2
 874 1311 l 2
 861 1322 844 1328 823 1328 c 0
 800 1328 782 1322 767 1309 c 2
 251 870 l 2
 236 857 229 837 229 810 c 0
 229 785 238 764 255 748 c 0
 272 732 291 724 312 724 c 0
 333 724 353 733 374 750 c 2
 821 1133 l 1
 905 1057 l 1
 905 995 l 1
 425 582 l 2
 408 567 399 544 399 514 c 2
 399 375 l 2
 399 352 407 333 424 316 c 0
 440 299 460 291 483 291 c 0
 506 291 525 299 542 316 c 0
 559 333 567 352 567 375 c 2
 567 479 l 1
 1052 897 l 2
541 147 m 0
 524 164 504 172 481 172 c 0
 458 172 438 164 422 147 c 0
 405 130 397 110 397 86 c 0
 397 63 405 43 422 27 c 0
 438 10 458 2 481 2 c 0
 504 2 524 10 541 27 c 0
 557 43 565 63 565 86 c 0
 565 110 557 130 541 147 c 0
EndSplineSet
EndChar

StartChar: at
Encoding: 64 64 35
Width: 1237
Flags: HMW
HStem: 2 1327<444 481 481 497.5 444 838.5> 821 340<428 764 506 627>
VStem: 379 170<254 559 559 590.5> 717 168<254 731 731 761>
LayerCount: 3
Fore
SplineSet
885 254 m 2xb0
 885 231 877 211 860 195 c 0
 843 178 824 170 801 170 c 0
 778 170 758 178 742 195 c 0
 725 211 717 231 717 254 c 2
 717 731 l 2
 717 791 687 821 627 821 c 2
 463 821 l 2
 393 821 333 796 284 746 c 0
 234 696 209 636 209 567 c 2
 209 244 l 2
 209 183 234 128 283 77 c 0
 332 27 392 2 463 2 c 0
 532 2 589 24 633 68 c 1
 678 24 735 2 805 2 c 0
 872 2 930 27 979 76 c 0
 1028 125 1053 181 1053 244 c 2
 1053 1034 l 2
 1053 1114 1024 1183 966 1242 c 0
 908 1300 842 1329 768 1329 c 2
 481 1329 l 2
 407 1329 343 1301 289 1245 c 0
 234 1188 207 1139 207 1096 c 0
 207 1075 215 1056 231 1040 c 0
 246 1024 267 1016 293 1016 c 0
 326 1016 351 1033 370 1068 c 0
 388 1101 406 1125 423 1140 c 0
 440 1154 467 1161 506 1161 c 2
 764 1161 l 2
 795 1161 823 1149 848 1124 c 0x70
 873 1099 885 1071 885 1040 c 2
 885 254 l 2xb0
549 254 m 2
 549 231 541 211 524 195 c 0
 507 178 487 170 463 170 c 0
 440 170 421 178 404 195 c 0
 387 211 379 231 379 254 c 2
 379 559 l 2
 379 622 410 653 473 653 c 2
 549 653 l 1
 549 254 l 2
EndSplineSet
EndChar

StartChar: A
Encoding: 65 65 36
Width: 1237
Flags: HMW
HStem: 0 1329<279.5 656.5 614.5 984.5>
VStem: 207 846<74 88.5 72.5 90.5>
LayerCount: 3
Fore
SplineSet
212 117 m 2
 209 105 207 95 207 86 c 0
 207 62 215 42 231 25 c 0
 247 8 267 0 292 0 c 0
 309 0 325 5 340 15 c 0
 355 24 363 34 365 45 c 2
 439 289 l 1
 822 289 l 1
 890 61 l 2
 902 20 930 0 974 0 c 0
 995 0 1013 8 1029 25 c 0
 1045 41 1053 61 1053 84 c 0
 1053 93 1052 101 1049 109 c 2
 714 1276 l 2
 703 1311 677 1329 636 1329 c 0
 593 1329 565 1308 552 1266 c 2
 212 117 l 2
773 459 m 1
 490 459 l 1
 634 940 l 1
 773 459 l 1
EndSplineSet
EndChar

StartChar: B
Encoding: 66 66 37
Width: 1237
Flags: HMW
HStem: 0 1329<203 717 203 763.5>
VStem: 203 850<338 412 412 461.5 920 991 991 1037.5 338 1329 0 412>
LayerCount: 3
Fore
SplineSet
1053 412 m 2
 1053 511 1015 595 938 666 c 1
 1015 736 1053 821 1053 920 c 2
 1053 991 l 2
 1053 1084 1020 1163 955 1230 c 0
 889 1296 810 1329 717 1329 c 2
 203 1329 l 1
 203 0 l 1
 717 0 l 2
 810 0 889 33 955 100 c 0
 1020 167 1053 246 1053 338 c 2
 1053 412 l 2
881 922 m 2
 881 877 864 837 831 804 c 0
 798 771 758 754 713 754 c 2
 371 754 l 1
 371 1161 l 1
 713 1161 l 2
 759 1161 799 1144 832 1111 c 0
 865 1078 881 1038 881 991 c 2
 881 922 l 2
881 338 m 2
 881 293 864 253 831 220 c 0
 798 187 758 170 713 170 c 2
 373 170 l 1
 373 578 l 1
 713 578 l 2
 759 578 799 561 832 528 c 0
 865 495 881 455 881 408 c 2
 881 338 l 2
EndSplineSet
EndChar

StartChar: C
Encoding: 67 67 38
Width: 1237
Flags: HMW
HStem: 0 1329<657 971 971 977 626.5 983>
VStem: 211 850<635.5 1256>
LayerCount: 3
Fore
SplineSet
668 168 m 2
 631 168 603 186 586 221 c 2
 586 221 527 335 408 563 c 0
 392 593 384 628 384 667 c 0
 384 705 391 737 406 764 c 2
 592 1112 l 2
 609 1143 631 1159 657 1159 c 2
 977 1159 l 2
 1000 1159 1020 1168 1037 1185 c 0
 1053 1202 1061 1222 1061 1245 c 0
 1061 1267 1053 1287 1037 1304 c 0
 1020 1321 1000 1329 977 1329 c 2
 645 1329 l 2
 608 1329 570 1316 531 1290 c 0
 492 1263 463 1232 444 1198 c 2
 248 827 l 2
 223 782 211 727 211 664 c 0
 211 607 224 552 250 498 c 2
 444 123 l 2
 462 90 492 62 533 38 c 0
 576 13 618 0 657 0 c 2
 971 0 l 2
 995 0 1015 8 1032 25 c 0
 1049 41 1057 61 1057 84 c 0
 1057 107 1049 127 1032 144 c 0
 1015 160 994 168 971 168 c 2
 668 168 l 2
EndSplineSet
EndChar

StartChar: D
Encoding: 68 68 39
Width: 1237
Flags: HMW
HStem: 0 1329<287 289 289 608 608 621 277.5 632.5>
VStem: 203 848<72.5 694.5> 543 340<646.5 680.5 646.5 1159>
LayerCount: 3
Fore
SplineSet
289 1329 m 2xc0
 266 1329 246 1321 230 1304 c 0
 213 1287 205 1268 205 1245 c 0
 205 1222 213 1202 230 1185 c 0
 246 1168 266 1159 289 1159 c 2
 375 1159 l 1
 375 170 l 1
 287 170 l 2
 264 170 244 162 228 145 c 0
 211 128 203 108 203 84 c 0
 203 61 211 42 228 25 c 0
 244 8 264 0 287 0 c 2
 608 0 l 2
 657 0 702 13 742 39 c 0
 783 64 813 98 834 141 c 2
 1001 473 l 2
 1034 538 1051 601 1051 662 c 0
 1051 727 1035 791 1004 852 c 2
 838 1188 l 2
 819 1227 789 1260 748 1287 c 0
 707 1314 665 1328 621 1329 c 2
 289 1329 l 2xc0
598 1159 m 2xa0
 639 1159 668 1142 686 1108 c 2
 858 766 l 2
 875 733 883 699 883 662 c 0
 883 631 873 595 852 553 c 2
 686 223 l 2
 667 186 639 168 602 168 c 2
 543 168 l 1
 543 1159 l 1
 598 1159 l 2xa0
EndSplineSet
EndChar

StartChar: E
Encoding: 69 69 40
Width: 1237
Flags: HMW
HStem: 0 1329<207 969 207 981>
VStem: 207 848<72.5 95.5 1231.5 1255 0 95.5>
LayerCount: 3
Fore
SplineSet
969 1159 m 2
 993 1159 1013 1167 1030 1184 c 0
 1047 1201 1055 1220 1055 1243 c 0
 1055 1267 1047 1287 1030 1304 c 0
 1013 1321 993 1329 969 1329 c 2
 207 1329 l 1
 207 0 l 1
 969 0 l 2
 993 0 1013 8 1030 25 c 0
 1047 41 1055 61 1055 84 c 0
 1055 107 1047 127 1030 144 c 0
 1013 160 993 168 971 168 c 2
 375 168 l 1
 375 580 l 1
 631 580 l 2
 654 580 674 588 691 605 c 0
 707 622 715 642 715 666 c 0
 715 689 707 708 690 725 c 0
 673 742 654 750 631 750 c 2
 375 750 l 1
 375 1159 l 1
 969 1159 l 2
EndSplineSet
EndChar

StartChar: F
Encoding: 70 70 41
Width: 1237
Flags: HMW
HStem: 895 264<375 801 375 969>
VStem: 207 846<1233.5 1256.5 1233.5 1329>
LayerCount: 3
Fore
SplineSet
207 84 m 2
 207 61 215 41 232 25 c 0
 248 8 268 0 291 0 c 0
 314 0 334 8 351 25 c 0
 367 41 375 61 375 84 c 2
 375 727 l 1
 801 727 l 2
 824 727 844 735 861 752 c 0
 877 768 885 788 885 811 c 0
 885 834 877 854 861 871 c 0
 844 887 824 895 801 895 c 2
 375 895 l 1
 375 1159 l 1
 969 1159 l 2
 991 1159 1011 1168 1028 1185 c 0
 1045 1202 1053 1222 1053 1245 c 0
 1053 1268 1045 1287 1028 1304 c 0
 1011 1321 992 1329 969 1329 c 2
 207 1329 l 1
 207 84 l 2
EndSplineSet
EndChar

StartChar: G
Encoding: 71 71 42
Width: 1237
Flags: HMW
HStem: 168 266<445.5 883 709 799>
VStem: 203 854<252 1256.5> 373 252<506.5 529.5 506.5 719 506.5 740.5>
LayerCount: 3
Fore
SplineSet
694 1329 m 2xc0
 659 1329 625 1321 594 1304 c 0
 561 1287 536 1267 518 1243 c 2
 518 1243 435 1138 270 928 c 0
 225 871 203 801 203 717 c 2
 203 252 l 2
 203 183 228 123 278 74 c 0
 327 25 387 0 457 0 c 2
 799 0 l 2
 868 0 928 25 977 74 c 0
 1026 123 1051 183 1051 252 c 2
 1051 602 l 1
 709 602 l 2
 685 602 665 594 649 578 c 0
 633 561 625 541 625 518 c 0
 625 495 633 475 649 459 c 0
 665 442 685 434 709 434 c 2
 883 434 l 1
 883 252 l 2
 883 229 875 210 858 193 c 0
 841 176 822 168 799 168 c 2
 457 168 l 2
 434 168 414 176 398 193 c 0
 381 210 373 230 373 254 c 2
 373 719 l 2
 373 762 383 795 403 819 c 2xa0
 639 1122 l 2
 658 1147 680 1159 707 1159 c 2
 973 1159 l 2
 994 1159 1014 1167 1031 1184 c 0
 1048 1200 1057 1220 1057 1245 c 0
 1057 1268 1049 1288 1033 1305 c 0
 1016 1321 996 1329 973 1329 c 2
 694 1329 l 2xc0
EndSplineSet
EndChar

StartChar: H
Encoding: 72 72 43
Width: 1237
Flags: HMW
HStem: 0 1329<275.5 298.5 275.5 299 955.5 978.5 275.5 978.5>
VStem: 203 848<72.5 1243 84 1243 1243 1245>
LayerCount: 3
Fore
SplineSet
203 84 m 2
 203 61 211 41 228 25 c 0
 245 8 264 0 287 0 c 0
 311 0 331 8 348 25 c 0
 365 42 373 61 373 84 c 2
 373 582 l 1
 883 582 l 1
 883 84 l 2
 883 61 891 41 907 25 c 0
 923 8 943 0 967 0 c 0
 990 0 1009 8 1026 25 c 0
 1043 42 1051 61 1051 84 c 2
 1051 1243 l 2
 1051 1266 1043 1287 1027 1304 c 0
 1010 1321 990 1329 967 1329 c 0
 944 1329 924 1321 908 1304 c 0
 891 1287 883 1268 883 1245 c 2
 883 750 l 1
 371 750 l 1
 371 1245 l 2
 371 1268 363 1287 346 1304 c 0
 329 1321 310 1329 287 1329 c 0
 264 1329 244 1321 228 1304 c 0
 211 1287 203 1268 203 1245 c 2
 203 84 l 2
EndSplineSet
EndChar

StartChar: I
Encoding: 73 73 44
Width: 1237
Flags: HMW
HStem: 0 1329<289 969 277.5 980.5>
VStem: 205 848<72.5 95.5 1233.5 1255>
LayerCount: 3
Fore
SplineSet
289 1329 m 2
 266 1329 246 1321 230 1304 c 0
 213 1287 205 1267 205 1243 c 0
 205 1220 213 1201 230 1184 c 0
 246 1167 266 1159 289 1159 c 2
 547 1159 l 1
 547 168 l 1
 289 168 l 2
 266 168 246 160 230 144 c 0
 213 127 205 107 205 84 c 0
 205 61 213 41 230 25 c 0
 246 8 266 0 289 0 c 2
 969 0 l 2
 992 0 1011 8 1028 25 c 0
 1045 41 1053 61 1053 84 c 0
 1053 107 1045 127 1029 144 c 0
 1012 160 992 168 969 168 c 2
 715 168 l 1
 715 1159 l 1
 969 1159 l 2
 991 1159 1011 1168 1028 1185 c 0
 1045 1202 1053 1222 1053 1245 c 0
 1053 1268 1045 1287 1028 1304 c 0
 1011 1321 992 1329 969 1329 c 2
 289 1329 l 2
EndSplineSet
EndChar

StartChar: J
Encoding: 74 74 45
Width: 1237
Flags: HMW
HStem: 0 1329<543 892.5 656.5 892.5>
VStem: 457 342<252 254 254 520 520 531.5>
LayerCount: 3
Fore
SplineSet
289 254 m 2
 289 185 314 125 364 75 c 0
 413 25 473 0 543 0 c 2
 543 0 600 0 713 0 c 0
 780 0 839 25 890 74 c 0
 941 123 967 183 967 254 c 2
 967 1241 l 2
 967 1263 958 1283 941 1302 c 0
 924 1320 904 1329 881 1329 c 0
 858 1329 839 1321 823 1305 c 0
 807 1288 799 1268 799 1245 c 2
 799 254 l 2
 799 231 791 211 774 195 c 0
 757 178 737 170 713 170 c 2
 543 170 l 2
 520 170 499 178 482 194 c 0
 465 210 457 229 457 252 c 2
 457 520 l 2
 457 543 449 563 433 580 c 0
 416 596 396 604 373 604 c 0
 350 604 330 596 314 580 c 0
 297 563 289 543 289 520 c 2
 289 254 l 2
EndSplineSet
EndChar

StartChar: K
Encoding: 75 75 46
Width: 1237
Flags: HMW
HStem: 0 1330<277.5 985.5 962.5 982>
VStem: 205 852<1232 1243>
LayerCount: 3
Fore
SplineSet
205 84 m 2
 205 61 213 41 230 25 c 0
 247 8 266 0 289 0 c 0
 312 0 332 8 349 25 c 0
 365 41 373 61 373 84 c 2
 373 485 l 1
 909 23 l 2
 928 8 948 0 970 0 c 0
 994 0 1014 9 1031 27 c 0
 1047 45 1055 65 1055 87 c 0
 1055 109 1047 127 1030 141 c 2
 420 668 l 1
 1030 1186 l 2
 1048 1201 1057 1220 1057 1244 c 0
 1057 1267 1049 1287 1033 1304 c 0
 1017 1321 997 1330 974 1330 c 0
 951 1330 930 1322 911 1307 c 2
 373 848 l 1
 373 1245 l 2
 373 1268 365 1288 349 1305 c 0
 332 1321 312 1329 289 1329 c 0
 266 1329 246 1321 230 1304 c 0
 213 1287 205 1267 205 1243 c 2
 205 84 l 2
EndSplineSet
EndChar

StartChar: L
Encoding: 76 76 47
Width: 1237
Flags: HMW
HStem: 0 1329<279.5 302.5 279.5 969 279.5 981>
VStem: 207 848<72.5 95.5 72.5 1245 0 95.5>
LayerCount: 3
Fore
SplineSet
969 0 m 2
 993 0 1013 8 1030 25 c 0
 1047 41 1055 61 1055 84 c 0
 1055 107 1047 127 1030 144 c 0
 1013 160 992 168 969 168 c 2
 375 168 l 1
 375 1245 l 2
 375 1268 367 1287 350 1304 c 0
 333 1321 314 1329 291 1329 c 0
 268 1329 249 1321 232 1304 c 0
 215 1287 207 1268 207 1245 c 2
 207 0 l 1
 969 0 l 2
EndSplineSet
EndChar

StartChar: M
Encoding: 77 77 48
Width: 1237
Flags: HMW
HStem: 0 1329<275.5 298.5 955.5 979>
VStem: 371 174<795.5 807 807 850 795.5 1098> 713 170<807 854 854 854>
LayerCount: 3
Fore
SplineSet
545 807 m 2
 545 784 553 765 570 748 c 0
 586 731 606 723 629 723 c 0
 652 723 671 731 688 748 c 0
 705 765 713 784 713 807 c 2
 713 854 l 1
 883 1094 l 1
 883 84 l 2
 883 61 891 42 908 25 c 0
 925 8 944 0 967 0 c 0
 991 0 1011 8 1028 25 c 0
 1045 41 1053 61 1053 84 c 2
 1053 1329 l 1
 840 1329 l 1
 627 1028 l 1
 420 1329 l 1
 203 1329 l 1
 203 84 l 2
 203 61 211 42 228 25 c 0
 244 8 264 0 287 0 c 0
 310 0 330 8 347 25 c 0
 363 41 371 61 371 84 c 2
 371 1098 l 1
 545 850 l 1
 545 807 l 2
EndSplineSet
EndChar

StartChar: N
Encoding: 78 78 49
Width: 1237
Flags: HMW
HStem: 0 1329<279.5 302.5 957.5 980.5 207 1053 207 1053>
VStem: 207 846<72.5 84 84 1243 1243 1254.5 0 1329>
LayerCount: 3
Fore
SplineSet
1053 1243 m 2
 1053 1266 1045 1287 1029 1304 c 0
 1012 1321 992 1329 969 1329 c 0
 946 1329 926 1321 909 1304 c 0
 892 1287 883 1266 883 1243 c 2
 883 299 l 1
 430 1329 l 1
 207 1329 l 1
 207 84 l 2
 207 61 215 41 232 25 c 0
 248 8 268 0 291 0 c 0
 314 0 334 8 351 25 c 0
 367 41 375 61 375 84 c 2
 375 1032 l 1
 827 0 l 1
 1053 0 l 1
 1053 1243 l 2
EndSplineSet
EndChar

StartChar: O
Encoding: 79 79 50
Width: 1237
Flags: HMW
HStem: 0 1329<606.5 675.5 583 676>
VStem: 205 848<632.5 692 632.5 693.5>
LayerCount: 3
Fore
SplineSet
829 1206 m 2
 789 1288 722 1329 629 1329 c 0
 537 1329 470 1288 428 1206 c 2
 242 829 l 2
 217 780 205 725 205 662 c 0
 205 600 217 545 242 496 c 2
 428 123 l 2
 447 87 474 58 509 35 c 0
 544 12 584 0 629 0 c 0
 723 0 790 41 829 123 c 2
 1014 496 l 2
 1040 548 1053 603 1053 662 c 0
 1053 722 1040 778 1014 829 c 2
 829 1206 l 2
573 1122 m 2
 586 1148 604 1161 629 1161 c 0
 654 1161 671 1148 682 1122 c 2
 858 768 l 2
 875 735 883 701 883 664 c 0
 883 628 875 593 858 559 c 2
 678 201 l 2
 667 179 651 168 629 168 c 0
 604 168 587 179 578 201 c 2
 399 559 l 2
 383 592 375 627 375 664 c 0
 375 699 383 733 399 768 c 2
 573 1122 l 2
EndSplineSet
EndChar

StartChar: P
Encoding: 80 80 51
Width: 1237
Flags: HMW
HStem: 0 1329<281 304.5>
VStem: 207 848<72.5 1075 760 1075 1075 1109.5 760 1329>
LayerCount: 3
Fore
SplineSet
207 84 m 2
 207 61 215 41 232 25 c 0
 249 8 269 0 293 0 c 0
 316 0 336 8 353 25 c 0
 369 41 377 61 377 84 c 2
 377 508 l 1
 803 508 l 2
 872 508 932 533 981 582 c 0
 1030 631 1055 691 1055 760 c 2
 1055 1075 l 2
 1055 1144 1030 1203 981 1254 c 0
 931 1304 872 1329 803 1329 c 2
 207 1329 l 1
 207 84 l 2
377 1159 m 1
 803 1159 l 2
 825 1159 845 1151 862 1135 c 0
 879 1118 887 1098 887 1075 c 2
 887 760 l 2
 887 737 879 717 862 701 c 0
 845 684 826 676 803 676 c 2
 377 676 l 1
 377 1159 l 1
EndSplineSet
EndChar

StartChar: Q
Encoding: 81 81 52
Width: 1237
Flags: HMW
HStem: 0 1329<382.5 874.5 821 874.5 821 971 821 982.5>
VStem: 373 174<514 531.5 514 655 514 678>
LayerCount: 3
Fore
SplineSet
340 961 m 2
 286 914 250 869 232 828 c 0
 214 785 205 735 205 676 c 2
 205 676 205 520 205 207 c 0
 205 150 225 101 265 61 c 0
 304 20 353 0 412 0 c 0
 463 0 514 21 565 63 c 2
 680 158 l 1
 741 0 l 1
 971 0 l 2
 994 0 1014 8 1031 25 c 0
 1047 41 1055 61 1055 84 c 0
 1055 107 1047 127 1031 144 c 0
 1014 160 994 168 971 168 c 2
 858 168 l 1
 815 274 l 1
 928 371 l 2
 1011 442 1053 526 1053 623 c 2
 1053 1137 l 2
 1053 1184 1033 1227 992 1268 c 0
 951 1309 903 1329 846 1329 c 0
 796 1329 747 1309 698 1270 c 2
 340 961 l 2
809 1147 m 2
 818 1156 830 1160 845 1160 c 0
 870 1160 883 1146 883 1118 c 2
 883 623 l 2
 883 590 873 560 854 535 c 0
 835 509 801 477 752 440 c 1
 709 553 l 2
 696 585 670 601 631 601 c 0
 609 601 589 593 572 577 c 0
 555 560 547 542 547 521 c 0
 547 507 551 490 559 471 c 2
 614 324 l 1
 444 178 l 2
 435 169 424 165 413 165 c 0
 386 165 373 182 373 217 c 2
 373 655 l 2
 373 701 378 736 389 760 c 0
 399 785 420 811 451 838 c 2
 809 1147 l 2
EndSplineSet
EndChar

StartChar: R
Encoding: 82 82 53
Width: 1237
Flags: HMW
HStem: 893 266<377 803 377 803>
VStem: 379 121<84 725 725 725>
LayerCount: 3
Fore
SplineSet
209 84 m 2
 209 61 217 41 234 25 c 0
 250 8 270 0 293 0 c 0
 317 0 337 8 354 25 c 0
 371 41 379 61 379 84 c 2
 379 725 l 1
 500 725 l 1
 895 45 l 2
 912 15 937 0 971 0 c 0
 994 0 1013 8 1030 25 c 0
 1047 41 1056 60 1056 83 c 0
 1056 101 1051 118 1040 135 c 2
 696 725 l 1
 803 725 l 2
 873 725 932 750 981 800 c 0
 1030 849 1055 909 1055 979 c 2
 1055 1075 l 2
 1055 1144 1030 1203 981 1254 c 0
 931 1304 872 1329 803 1329 c 2
 209 1329 l 1
 209 84 l 2
377 1159 m 1
 803 1159 l 2
 826 1159 846 1151 863 1135 c 0
 879 1118 887 1098 887 1075 c 2
 887 977 l 2
 887 954 879 934 863 918 c 0
 846 901 826 893 803 893 c 2
 377 893 l 1
 377 1159 l 1
EndSplineSet
EndChar

StartChar: S
Encoding: 83 83 54
Width: 1237
Flags: HMW
HStem: 0 1329<428 834 370.5 881 370.5 903.5>
VStem: 205 852<191.5 210.5 164 250.5>
LayerCount: 3
Fore
SplineSet
397 1329 m 2
 344 1329 299 1310 262 1272 c 0
 225 1233 206 1187 206 1136 c 0
 206 1092 221 1051 250 1012 c 2
 872 215 l 2
 881 204 885 196 885 189 c 0
 885 175 876 168 858 168 c 2
 440 168 l 2
 421 168 406 174 394 186 c 0
 381 198 375 213 375 231 c 0
 375 253 367 272 351 289 c 0
 335 305 316 313 293 313 c 0
 234 313 205 282 205 219 c 0
 205 164 227 114 272 69 c 0
 316 23 368 0 428 0 c 2
 881 0 l 2
 926 0 966 19 1003 57 c 0
 1039 95 1057 139 1057 189 c 0
 1057 232 1042 274 1012 313 c 2
 389 1110 l 2
 380 1121 376 1130 376 1138 c 0
 376 1151 386 1157 406 1157 c 2
 821 1157 l 2
 854 1157 876 1139 886 1104 c 0
 895 1069 905 1045 916 1032 c 0
 927 1019 947 1012 975 1012 c 0
 996 1012 1015 1020 1032 1037 c 0
 1049 1054 1057 1074 1057 1098 c 0
 1057 1162 1033 1217 986 1262 c 0
 939 1307 888 1329 834 1329 c 2
 397 1329 l 2
EndSplineSet
EndChar

StartChar: T
Encoding: 84 84 55
Width: 1237
Flags: HMW
HStem: 0 1327<617 640.5>
VStem: 373 170<1100 1159> 713 170<1087 1098 1098 1159 1087 1159>
LayerCount: 3
Fore
SplineSet
205 1100 m 2
 205 1077 213 1057 230 1041 c 0
 246 1024 266 1016 289 1016 c 0
 312 1016 332 1024 349 1041 c 0
 365 1057 373 1077 373 1100 c 2
 373 1159 l 1
 543 1159 l 1
 543 84 l 2
 543 61 551 41 568 25 c 0
 585 8 605 0 629 0 c 0
 652 0 671 8 688 25 c 0
 705 41 713 61 713 84 c 2
 713 1159 l 1
 883 1159 l 1
 883 1098 l 2
 883 1076 892 1056 909 1039 c 0
 926 1022 946 1014 969 1014 c 0
 992 1014 1011 1022 1028 1039 c 0
 1045 1055 1053 1075 1053 1098 c 2
 1053 1327 l 1
 205 1327 l 1
 205 1100 l 2
EndSplineSet
EndChar

StartChar: U
Encoding: 85 85 56
Width: 1237
Flags: HMW
HStem: 0 1329<277.5 801 277.5 835.5>
VStem: 205 848<217.5 1243 254 1243 254 1243>
LayerCount: 3
Fore
SplineSet
205 252 m 2
 205 183 230 123 279 74 c 0
 328 25 388 0 457 0 c 2
 801 0 l 2
 870 0 929 25 979 75 c 0
 1028 126 1053 185 1053 254 c 2
 1053 1243 l 2
 1053 1266 1045 1287 1029 1304 c 0
 1012 1321 992 1329 969 1329 c 0
 946 1329 926 1321 910 1304 c 0
 893 1287 885 1267 885 1243 c 2
 885 252 l 2
 885 229 877 210 861 194 c 0
 844 178 824 170 801 170 c 2
 457 170 l 2
 434 170 415 178 398 195 c 0
 381 211 373 230 373 252 c 2
 373 1245 l 2
 373 1268 365 1287 348 1304 c 0
 331 1321 312 1329 289 1329 c 0
 266 1329 247 1321 230 1304 c 0
 213 1287 205 1267 205 1243 c 2
 205 252 l 2
EndSplineSet
EndChar

StartChar: V
Encoding: 86 86 57
Width: 1237
Flags: HMW
HStem: 0 1329<281.5 652>
VStem: 209 848<934 1243 934 1243>
LayerCount: 3
Fore
SplineSet
1057 1243 m 2
 1057 1266 1049 1287 1033 1304 c 0
 1016 1321 996 1329 973 1329 c 0
 950 1329 930 1321 914 1304 c 0
 897 1287 889 1267 889 1243 c 2
 889 967 l 1
 633 317 l 1
 377 969 l 1
 377 1243 l 2
 377 1266 369 1287 353 1304 c 0
 336 1321 316 1329 293 1329 c 0
 270 1329 250 1321 234 1304 c 0
 217 1287 209 1267 209 1243 c 2
 209 934 l 1
 549 63 l 2
 566 21 594 0 633 0 c 0
 671 0 698 21 715 63 c 2
 1057 934 l 1
 1057 1243 l 2
EndSplineSet
EndChar

StartChar: W
Encoding: 87 87 58
Width: 1237
Flags: HMW
HStem: 0 1329<279.5 537 279.5 560 279.5 883 279.5 899.5>
VStem: 373 174<252 809 252 1243> 715 170<252 809 809 820.5>
LayerCount: 3
Fore
SplineSet
715 809 m 2
 715 832 707 852 691 869 c 0
 674 885 654 893 631 893 c 0
 608 893 588 885 572 869 c 0
 555 852 547 832 547 809 c 2
 547 252 l 1
 494 168 l 1
 422 168 l 1
 373 248 l 1
 373 1243 l 2
 373 1266 365 1287 349 1304 c 0
 332 1321 313 1329 291 1329 c 0
 268 1329 248 1321 231 1304 c 0
 214 1287 205 1266 205 1243 c 2
 205 225 l 2
 205 210 212 191 225 168 c 2
 297 47 l 2
 316 16 347 0 389 0 c 2
 537 0 l 2
 583 0 614 23 629 68 c 1
 643 23 675 0 725 0 c 2
 883 0 l 2
 916 0 940 14 956 43 c 2
 1034 172 l 2
 1048 195 1055 212 1055 225 c 2
 1055 1245 l 2
 1055 1268 1047 1287 1030 1304 c 0
 1013 1321 994 1329 971 1329 c 0
 948 1329 928 1321 911 1304 c 0
 894 1287 885 1266 885 1243 c 2
 885 252 l 1
 834 168 l 1
 764 168 l 1
 715 250 l 1
 715 809 l 2
EndSplineSet
EndChar

StartChar: X
Encoding: 88 88 59
Width: 1237
Flags: HMW
HStem: 0 1330<294 996.5>
VStem: 219 853
LayerCount: 3
Fore
SplineSet
912 41 m 2
 928 14 952 0 985 0 c 0
 1008 0 1028 8 1045 24 c 0
 1061 40 1069 60 1069 84 c 0
 1069 100 1065 114 1057 127 c 2
 744 666 l 1
 1059 1202 l 2
 1068 1217 1072 1232 1072 1247 c 0
 1072 1270 1063 1289 1046 1305 c 0
 1029 1321 1008 1329 985 1329 c 0
 955 1329 931 1315 914 1288 c 2
 648 834 l 1
 377 1290 l 2
 362 1317 338 1330 305 1330 c 0
 283 1330 264 1322 247 1306 c 0
 230 1289 222 1270 222 1249 c 0
 222 1232 228 1213 240 1192 c 2
 547 664 l 1
 234 133 l 2
 224 116 219 100 219 84 c 0
 219 63 228 44 245 27 c 0
 262 10 283 1 306 1 c 0
 339 1 362 14 377 41 c 2
 644 498 l 1
 912 41 l 2
EndSplineSet
EndChar

StartChar: Y
Encoding: 89 89 60
Width: 1237
Flags: HMW
HStem: 0 1329<281.5 644.5>
VStem: 209 846<1067 1243 1243 1243 1065 1243>
LayerCount: 3
Fore
SplineSet
1055 1067 m 1
 1055 1067 1055 1126 1055 1243 c 0
 1055 1269 1047 1290 1030 1306 c 0
 1013 1321 993 1329 971 1329 c 0
 948 1329 929 1321 912 1304 c 0
 895 1287 887 1267 887 1243 c 2
 887 1126 l 1
 631 803 l 1
 379 1128 l 1
 379 1243 l 2
 379 1267 371 1287 354 1304 c 0
 337 1321 317 1329 293 1329 c 0
 270 1329 250 1321 234 1304 c 0
 217 1287 209 1267 209 1243 c 2
 209 1065 l 1
 547 637 l 1
 547 84 l 2
 547 61 555 41 572 25 c 0
 589 8 609 0 633 0 c 0
 656 0 675 8 692 25 c 0
 709 41 717 61 717 84 c 2
 717 637 l 1
 1055 1067 l 1
EndSplineSet
EndChar

StartChar: Z
Encoding: 90 90 61
Width: 1237
Flags: HMW
HStem: 0 1329<275.5 287 287 969 969 980.5>
VStem: 205 848<72.5 95.5 72.5 111 0 95.5 1233.5 1256>
LayerCount: 3
Fore
SplineSet
287 1329 m 2
 264 1329 245 1321 229 1304 c 0
 213 1287 205 1267 205 1245 c 0
 205 1222 213 1202 229 1185 c 0
 245 1168 264 1159 287 1159 c 2
 821 1159 l 1
 205 111 l 1
 205 0 l 1
 969 0 l 2
 992 0 1011 8 1028 25 c 0
 1045 42 1053 61 1053 84 c 0
 1053 107 1045 127 1029 144 c 0
 1012 160 992 168 969 168 c 2
 436 168 l 1
 1053 1221 l 1
 1053 1329 l 1
 287 1329 l 2
EndSplineSet
EndChar

StartChar: bracketleft
Encoding: 91 91 62
Width: 1237
Flags: HMW
HStem: 2 1329<291 969 279.5 980.5>
VStem: 375 88<170 1161 170 1161>
LayerCount: 3
Fore
SplineSet
631 1161 m 1
 631 1161 744 1161 969 1161 c 0
 992 1161 1012 1170 1029 1187 c 0
 1045 1204 1053 1224 1053 1247 c 0
 1053 1270 1045 1289 1028 1306 c 0
 1011 1323 992 1331 969 1331 c 2
 291 1331 l 2
 268 1331 248 1323 232 1306 c 0
 215 1289 207 1269 207 1245 c 2
 207 86 l 2
 207 63 215 44 232 27 c 0
 249 10 268 2 291 2 c 2
 969 2 l 2
 992 2 1012 10 1029 27 c 0
 1045 43 1053 63 1053 86 c 0
 1053 109 1045 129 1029 146 c 0
 1012 162 992 170 969 170 c 2
 631 170 l 1
 631 1161 l 1
375 170 m 1
 375 1161 l 1
 463 1161 l 1
 463 170 l 1
 375 170 l 1
EndSplineSet
EndChar

StartChar: backslash
Encoding: 92 92 63
Width: 1237
Flags: HMW
HStem: -1 1331<307.5 994.5>
VStem: 229 844
LayerCount: 3
Fore
SplineSet
932 25 m 2
 943 8 961 -1 984 -1 c 0
 1005 -1 1026 7 1045 22 c 0
 1064 37 1073 56 1073 79 c 0
 1073 100 1066 122 1051 145 c 2
 371 1303 l 2
 360 1321 342 1330 318 1330 c 0
 297 1330 276 1323 257 1309 c 0
 238 1294 229 1275 229 1252 c 0
 229 1232 236 1209 250 1184 c 2
 932 25 l 2
EndSplineSet
EndChar

StartChar: bracketright
Encoding: 93 93 64
Width: 1237
Flags: HMW
HStem: 2 1327<291 967 279.5 969 279.5 980.5>
VStem: 797 88<170 1161 170 1161>
LayerCount: 3
Fore
SplineSet
627 170 m 1
 627 170 515 170 291 170 c 0
 268 170 248 162 232 146 c 0
 215 130 207 111 207 88 c 0
 207 65 215 45 232 28 c 0
 248 11 268 2 291 2 c 2
 969 2 l 2
 992 2 1011 10 1028 27 c 0
 1045 43 1053 63 1053 86 c 2
 1053 1245 l 2
 1053 1268 1045 1288 1028 1305 c 0
 1011 1321 990 1329 967 1329 c 2
 291 1329 l 2
 268 1329 248 1321 231 1304 c 0
 214 1287 205 1267 205 1245 c 0
 205 1222 213 1202 230 1186 c 0
 247 1169 267 1161 291 1161 c 2
 627 1161 l 1
 627 170 l 1
885 1161 m 1
 885 170 l 1
 797 170 l 1
 797 1161 l 1
 885 1161 l 1
EndSplineSet
EndChar

StartChar: asciicircum
Encoding: 94 94 65
Width: 1237
Flags: HMW
HStem: 220 820<294.5 664 630 999.5>
VStem: 223 848<289.5 308.5 289.5 308.5>
LayerCount: 3
Fore
SplineSet
239 356 m 2
 228 337 223 318 223 299 c 0
 223 278 231 260 248 244 c 0
 264 228 283 220 306 220 c 0
 337 220 361 232 378 256 c 2
 647 659 l 1
 917 256 l 2
 934 232 957 220 988 220 c 0
 1011 220 1030 228 1047 245 c 0
 1063 261 1071 279 1071 300 c 0
 1071 317 1065 335 1054 356 c 2
 723 991 l 2
 706 1024 681 1040 647 1040 c 0
 613 1040 588 1024 571 991 c 2
 239 356 l 2
EndSplineSet
EndChar

StartChar: underscore
Encoding: 95 95 66
Width: 1237
Flags: HMW
HStem: -256 170<-10 1247 828 1247>
VStem: -10 1257<-256 -86 -256 -199.5>
LayerCount: 3
Fore
SplineSet
1247 -86 m 1
 1247 -86 828 -86 -10 -86 c 1
 -10 -86 -10 -143 -10 -256 c 1
 -10 -256 409 -256 1247 -256 c 1
 1247 -256 1247 -199 1247 -86 c 1
EndSplineSet
EndChar

StartChar: grave
Encoding: 96 96 67
Width: 1237
Flags: HMW
HStem: 1018 311<461 792>
VStem: 391 471<1093 1253.5>
LayerCount: 3
Fore
SplineSet
510 1321 m 2
 497 1326 485 1329 473 1329 c 0
 449 1329 429 1320 414 1303 c 0
 399 1284 391 1264 391 1243 c 0
 391 1208 407 1183 438 1167 c 2
 743 1026 l 2
 756 1021 768 1018 780 1018 c 0
 804 1018 824 1027 839 1045 c 0
 854 1062 862 1082 862 1104 c 0
 862 1139 846 1164 815 1180 c 2
 510 1321 l 2
EndSplineSet
EndChar

StartChar: a
Encoding: 97 97 68
Width: 1237
Flags: HMW
HStem: 172 262<445.5 788 457 694> 606 191<422 778 459 778 778 786>
VStem: 203 850<72.5 286.5 72.5 352>
LayerCount: 3
Fore
SplineSet
457 606 m 2
 387 606 327 581 278 532 c 0
 228 482 203 422 203 352 c 2
 203 352 203 319 203 254 c 0
 203 183 228 123 277 74 c 0
 326 25 386 0 457 0 c 2
 741 0 l 1
 883 84 l 1
 883 61 891 41 908 25 c 0
 925 8 945 0 969 0 c 0
 992 0 1011 8 1028 25 c 0
 1045 41 1053 61 1053 84 c 2
 1032 713 l 2
 1030 784 1005 843 956 892 c 0
 907 941 848 965 778 965 c 2
 459 965 l 2
 436 965 416 957 400 941 c 0
 383 924 375 904 375 881 c 0
 375 858 383 839 400 822 c 0
 417 805 436 797 459 797 c 2
 778 797 l 2
 801 797 821 789 838 773 c 0
 854 756 862 736 862 713 c 2
 864 594 l 1
 830 602 804 606 786 606 c 2
 457 606 l 2
694 172 m 1
 457 172 l 2
 434 172 415 180 398 197 c 0
 381 214 373 233 373 256 c 2
 373 350 l 2
 373 373 381 393 398 410 c 0
 414 426 434 434 457 434 c 2
 788 434 l 2
 811 434 831 426 847 410 c 0
 862 395 871 375 872 350 c 2
 877 279 l 1
 694 172 l 1
EndSplineSet
EndChar

StartChar: b
Encoding: 98 98 69
Width: 1237
Flags: HMW
HStem: 0 1329<284 306.5 284 306.5 284 752 284 764.5>
VStem: 211 848<72.5 651 311 651 651 668.5 311 1245>
LayerCount: 3
Fore
SplineSet
379 1245 m 2
 379 1268 371 1288 355 1305 c 0
 338 1321 318 1329 295 1329 c 0
 273 1329 253 1321 236 1305 c 0
 219 1288 211 1268 211 1245 c 2
 211 84 l 2
 211 61 219 41 236 25 c 0
 252 8 272 0 295 0 c 0
 318 0 338 8 355 25 c 0
 371 41 379 61 379 84 c 2
 379 117 l 1
 462 39 539 0 608 0 c 2
 752 0 l 2
 777 0 806 7 840 22 c 0
 874 35 901 51 920 70 c 2
 993 139 l 2
 1011 156 1026 181 1039 214 c 0
 1052 249 1059 281 1059 311 c 2
 1059 651 l 2
 1059 686 1052 721 1038 757 c 0
 1023 794 1004 821 983 840 c 2
 903 909 l 2
 860 948 809 967 752 967 c 2
 598 967 l 2
 548 967 500 948 453 909 c 2
 379 850 l 1
 379 1245 l 2
739 797 m 2
 761 797 782 789 801 774 c 2
 862 723 l 2
 880 708 889 686 889 659 c 2
 889 305 l 2
 889 280 880 261 862 248 c 2
 795 188 l 2
 781 176 764 170 745 170 c 2
 608 170 l 2
 587 170 566 179 547 197 c 2
 412 311 l 2
 390 330 379 354 379 381 c 2
 379 571 l 2
 379 606 389 632 408 649 c 2
 559 778 l 2
 574 791 595 797 623 797 c 2
 739 797 l 2
EndSplineSet
EndChar

StartChar: c
Encoding: 99 99 70
Width: 1237
Flags: HMW
HStem: 0 965<612 971 971 973 568.5 982.5>
VStem: 209 848<338 892.5 375 892.5>
LayerCount: 3
Fore
SplineSet
971 0 m 2
 994 0 1014 8 1031 25 c 0
 1047 41 1055 61 1055 84 c 0
 1055 107 1047 127 1030 144 c 0
 1013 160 993 168 971 168 c 2
 627 168 l 2
 596 168 572 176 553 193 c 2
 405 319 l 2
 388 334 379 353 379 375 c 2
 379 580 l 2
 379 611 390 636 412 655 c 2
 547 770 l 2
 568 788 589 797 612 797 c 2
 973 797 l 2
 996 797 1016 805 1033 821 c 0
 1049 837 1057 857 1057 881 c 0
 1057 904 1049 924 1033 941 c 0
 1016 957 996 965 973 965 c 2
 596 965 l 2
 541 965 491 946 444 907 c 2
 297 780 l 2
 236 727 206 665 209 594 c 2
 209 375 l 2
 209 301 235 242 287 199 c 2
 450 57 l 2
 495 19 549 0 612 0 c 2
 971 0 l 2
EndSplineSet
EndChar

StartChar: d
Encoding: 100 100 71
Width: 1237
Flags: HMW
HStem: 0 1329<510 976.5 653 976.5 955 976.5 953.5 978.5>
VStem: 201 850<295 311 311 653>
LayerCount: 3
Fore
SplineSet
825 897 m 2
 772 944 712 967 645 967 c 2
 524 967 l 2
 457 967 399 946 350 903 c 2
 281 844 l 2
 260 826 241 799 225 764 c 0
 209 728 201 691 201 653 c 2
 201 311 l 2
 201 279 208 245 223 210 c 0
 237 173 252 148 268 133 c 2
 338 74 l 2
 395 25 453 0 510 0 c 2
 653 0 l 2
 725 0 802 40 883 121 c 1
 883 84 l 2
 883 61 891 41 907 25 c 0
 923 8 943 0 967 0 c 0
 990 0 1009 8 1026 25 c 0
 1043 41 1051 61 1051 84 c 2
 1051 1245 l 2
 1051 1268 1043 1288 1026 1305 c 0
 1009 1321 988 1329 965 1329 c 0
 942 1329 923 1321 907 1305 c 0
 891 1288 883 1268 883 1245 c 2
 883 848 l 1
 825 897 l 2
639 797 m 2
 670 797 694 789 711 772 c 2
 848 655 l 2
 871 636 883 606 883 565 c 2
 883 383 l 2
 883 354 872 330 850 311 c 2
 717 201 l 2
 692 180 671 170 653 170 c 2
 516 170 l 2
 497 170 478 178 461 193 c 2
 406 240 l 2
 384 259 373 280 373 303 c 2
 373 659 l 2
 373 685 382 706 401 723 c 2
 455 770 l 2
 475 788 497 797 522 797 c 2
 639 797 l 2
EndSplineSet
EndChar

StartChar: e
Encoding: 101 101 72
Width: 1237
Flags: HMW
HStem: 168 194<525 537 537 969> 532 263<530 741 741 751.5 530 887 377 741>
VStem: 205 848<72.5 293 446 649 649 678>
LayerCount: 3
Fore
SplineSet
1053 649 m 2
 1053 729 1030 790 985 831 c 2
 985 831 964 851 922 891 c 0
 869 940 813 965 754 965 c 2
 518 965 l 2
 463 965 412 946 365 909 c 2
 295 854 l 2
 270 833 248 804 231 767 c 0
 214 729 205 699 205 678 c 2
 205 293 l 2
 205 264 213 234 229 201 c 0
 244 169 263 143 287 123 c 2
 362 57 l 2
 377 44 401 31 434 19 c 0
 465 6 496 0 526 0 c 2
 969 0 l 2
 992 0 1011 8 1028 25 c 0
 1045 42 1053 61 1053 84 c 0
 1053 107 1045 127 1028 144 c 0
 1011 160 991 168 969 168 c 2
 537 168 l 2
 513 168 488 178 461 199 c 2
 412 240 l 2
 387 260 375 284 375 313 c 2
 375 362 l 1
 969 362 l 2
 992 362 1011 370 1028 387 c 0
 1045 404 1053 423 1053 446 c 2
 1053 649 l 2
377 662 m 2
 377 689 388 710 410 727 c 2
 459 768 l 2
 480 786 503 795 530 795 c 2
 741 795 l 2
 762 795 784 785 809 764 c 2
 858 721 l 2
 877 704 887 680 887 649 c 2
 887 532 l 1
 377 532 l 1
 377 662 l 2
EndSplineSet
EndChar

StartChar: f
Encoding: 102 102 73
Width: 1237
Flags: HMW
HStem: 965 194<731 760 592 928>
VStem: 250 762<869.5 1254.5>
LayerCount: 3
Fore
SplineSet
760 797 m 2
 783 797 802 805 819 822 c 0
 836 839 844 858 844 881 c 0
 844 904 836 924 819 941 c 0
 802 958 783 966 760 965 c 2
 592 965 l 1
 592 1030 l 2
 592 1068 605 1099 632 1123 c 0
 658 1147 691 1159 731 1159 c 2
 928 1159 l 2
 951 1159 970 1167 987 1184 c 0
 1004 1201 1012 1220 1012 1243 c 0
 1012 1266 1004 1287 988 1304 c 0
 971 1321 951 1329 928 1329 c 2
 731 1329 l 2
 643 1329 570 1301 511 1244 c 0
 452 1187 422 1115 422 1030 c 2
 422 965 l 1
 334 965 l 2
 308 965 288 957 273 940 c 0
 258 923 250 903 250 881 c 0
 250 858 258 839 275 822 c 0
 291 805 311 797 334 797 c 2
 420 797 l 1
 420 84 l 2
 420 61 428 41 445 25 c 0
 462 8 482 0 506 0 c 0
 529 0 548 8 565 25 c 0
 582 41 590 61 590 84 c 2
 590 797 l 1
 760 797 l 2
EndSplineSet
EndChar

StartChar: g
Encoding: 103 103 74
Width: 1237
Flags: HMW
HStem: -193 269<359.5 653 524 653 653 690 524 735>
VStem: 205 846<359.5 375 375 653>
LayerCount: 3
Fore
SplineSet
735 -360 m 2
 762 -360 791 -354 824 -343 c 0
 855 -332 879 -319 897 -303 c 2
 897 -303 920 -283 965 -244 c 0
 1022 -193 1051 -132 1051 -61 c 2
 1051 881 l 2
 1051 904 1043 924 1026 941 c 0
 1009 957 988 965 965 965 c 0
 942 965 923 957 906 940 c 0
 889 923 881 904 881 881 c 2
 883 848 l 1
 825 897 l 2
 772 944 712 967 645 967 c 2
 524 967 l 2
 457 967 399 946 350 903 c 2
 281 844 l 2
 262 828 244 802 228 765 c 0
 213 729 205 692 205 653 c 2
 205 375 l 2
 205 344 213 311 228 277 c 0
 244 242 262 217 281 201 c 2
 344 145 l 2
 397 99 457 76 524 76 c 2
 653 76 l 2
 727 76 804 116 883 195 c 1
 883 -61 l 2
 883 -84 873 -104 854 -119 c 2
 797 -168 l 2
 778 -185 758 -193 735 -193 c 2
 371 -193 l 2
 348 -193 328 -201 312 -217 c 0
 295 -233 287 -253 287 -276 c 0
 287 -300 295 -320 312 -336 c 0
 328 -352 348 -360 371 -360 c 2
 735 -360 l 2
639 799 m 2
 668 799 692 790 711 772 c 2
 848 655 l 2
 871 636 883 611 883 580 c 2
 883 453 l 2
 883 427 873 405 852 387 c 2
 719 274 l 2
 695 254 673 244 653 244 c 2
 516 244 l 2
 496 244 478 251 461 266 c 2
 406 315 l 2
 384 335 373 356 373 379 c 2
 373 659 l 2
 373 688 383 710 403 727 c 2
 455 770 l 2
 478 789 502 799 526 799 c 2
 639 799 l 2
EndSplineSet
EndChar

StartChar: h
Encoding: 104 104 75
Width: 1237
Flags: HMW
HStem: 0 1327<277.5 300.5 277.5 978.5>
VStem: 205 846<72.5 84 84 1245>
LayerCount: 3
Fore
SplineSet
205 84 m 2
 205 61 213 41 230 25 c 0
 246 8 266 0 289 0 c 0
 312 0 332 8 349 25 c 0
 365 41 373 61 373 84 c 2
 373 618 l 1
 612 774 l 2
 637 791 660 799 682 799 c 2
 776 799 l 2
 799 799 819 791 836 774 c 0
 852 758 861 738 862 715 c 2
 883 84 l 2
 884 62 893 43 908 26 c 0
 924 9 944 0 967 0 c 0
 990 0 1010 8 1027 25 c 0
 1044 41 1052 61 1051 84 c 2
 1030 713 l 2
 1028 783 1002 843 953 892 c 0
 904 941 845 965 776 965 c 2
 672 965 l 2
 623 965 569 946 508 907 c 2
 373 819 l 1
 373 1243 l 2
 373 1266 365 1286 349 1303 c 0
 332 1319 312 1327 289 1327 c 0
 266 1327 246 1319 230 1303 c 0
 213 1287 205 1268 205 1245 c 2
 205 84 l 2
EndSplineSet
EndChar

StartChar: i
Encoding: 105 105 76
Width: 1237
Flags: HMW
HStem: 967 194<363.5 631 541 631 541 631>
VStem: 289 680<74.5 97.5>
LayerCount: 3
Fore
SplineSet
543 1403 m 2
 520 1403 500 1395 484 1379 c 0
 467 1362 459 1342 459 1319 c 2
 459 1319 458 1294 457 1245 c 0
 456 1224 464 1204 481 1187 c 0
 497 1170 517 1161 541 1161 c 2
 631 1161 l 2
 654 1161 674 1170 691 1187 c 0
 707 1204 715 1224 715 1247 c 2
 715 1319 l 2
 715 1342 707 1362 691 1379 c 0
 674 1395 654 1403 631 1403 c 2
 543 1403 l 2
885 2 m 2
 908 2 927 10 944 27 c 0
 961 43 969 63 969 86 c 0
 969 109 961 129 944 146 c 0
 927 162 906 170 883 170 c 2
 715 170 l 1
 715 881 l 2
 715 904 707 925 691 942 c 0
 674 959 654 967 631 967 c 2
 375 967 l 2
 352 967 332 959 316 942 c 0
 299 925 291 905 291 881 c 0
 291 858 299 839 316 822 c 0
 332 805 352 797 375 797 c 2
 545 797 l 1
 545 170 l 1
 373 170 l 2
 350 170 330 162 314 145 c 0
 297 128 289 109 289 86 c 0
 289 63 297 43 314 27 c 0
 330 10 350 2 373 2 c 2
 885 2 l 2
EndSplineSet
EndChar

StartChar: j
Encoding: 106 106 77
Width: 1237
Flags: HMW
HStem: 965 192<799 887>
VStem: 287 686
LayerCount: 3
Fore
SplineSet
799 1399 m 2
 777 1399 758 1391 741 1374 c 0
 724 1358 716 1338 715 1315 c 2
 715 1315 715 1290 715 1241 c 0
 715 1218 723 1198 740 1182 c 0
 756 1165 776 1157 799 1157 c 2
 889 1157 l 2
 912 1157 932 1165 949 1182 c 0
 965 1199 973 1219 973 1241 c 2
 973 1315 l 2
 973 1338 965 1357 948 1374 c 0
 931 1391 912 1399 889 1399 c 2
 799 1399 l 2
719 -360 m 2
 788 -360 848 -335 897 -286 c 0
 946 -237 971 -178 971 -109 c 2
 971 879 l 2
 971 902 963 923 947 940 c 0
 930 957 910 965 887 965 c 2
 545 965 l 2
 522 965 502 957 486 940 c 0
 469 923 461 904 461 881 c 0
 461 857 469 837 486 821 c 0
 502 805 522 797 545 797 c 2
 801 797 l 1
 801 -109 l 2
 801 -132 793 -152 777 -168 c 0
 760 -185 740 -193 717 -193 c 2
 549 -193 l 2
 520 -193 499 -187 487 -174 c 0
 476 -161 465 -143 456 -119 c 0
 447 -95 438 -77 427 -66 c 0
 416 -55 398 -49 373 -49 c 0
 349 -49 329 -57 312 -74 c 0
 295 -91 287 -109 287 -129 c 0
 287 -185 312 -237 363 -286 c 0
 414 -335 474 -360 541 -360 c 2
 719 -360 l 2
EndSplineSet
EndChar

StartChar: k
Encoding: 107 107 78
Width: 1237
Flags: HMW
HStem: 0 1329<279.5 302.5 279.5 984.5>
VStem: 207 849<74.5 84 84 97.5 74.5 1243>
LayerCount: 3
Fore
SplineSet
207 84 m 2
 207 61 215 41 232 25 c 0
 248 8 268 0 291 0 c 0
 314 0 334 8 351 25 c 0
 367 41 375 61 375 84 c 2
 375 338 l 1
 463 412 l 1
 911 23 l 2
 930 8 950 0 973 0 c 0
 996 0 1016 9 1032 27 c 0
 1048 44 1056 63 1056 86 c 0
 1056 109 1047 127 1030 141 c 2
 596 522 l 1
 948 821 l 2
 965 836 974 856 974 880 c 0
 974 904 966 924 950 941 c 0
 934 958 914 966 890 966 c 0
 867 966 846 958 827 942 c 2
 375 557 l 1
 375 1243 l 2
 375 1266 367 1287 351 1304 c 0
 334 1321 314 1329 291 1329 c 0
 268 1329 248 1321 232 1304 c 0
 215 1287 207 1267 207 1243 c 2
 207 84 l 2
EndSplineSet
EndChar

StartChar: l
Encoding: 108 108 79
Width: 1237
Flags: HMW
HStem: 0 1329<377 631 363.5 885 363.5 896.5>
VStem: 291 678
LayerCount: 3
Fore
SplineSet
885 0 m 2
 908 0 928 9 945 26 c 0
 961 43 969 63 969 86 c 0
 969 109 961 128 944 145 c 0
 927 162 908 170 885 170 c 2
 715 170 l 1
 715 1245 l 2
 715 1268 707 1287 690 1304 c 0
 673 1321 654 1329 631 1329 c 2
 375 1329 l 2
 352 1329 332 1321 316 1305 c 0
 299 1288 291 1268 291 1245 c 0
 291 1222 299 1202 316 1186 c 0
 332 1169 352 1161 375 1161 c 2
 545 1161 l 1
 545 170 l 1
 377 170 l 2
 354 170 334 162 318 145 c 0
 301 128 293 109 293 86 c 0
 293 63 301 43 318 26 c 0
 334 9 354 0 377 0 c 2
 885 0 l 2
EndSplineSet
EndChar

StartChar: m
Encoding: 109 109 80
Width: 1237
Flags: HMW
HStem: 0 967<260.5 541.5 479.5 998.5>
VStem: 354 191<84 86 86 682 682 682> 713 178
LayerCount: 3
Fore
SplineSet
186 84 m 2
 186 62 195 42 212 25 c 0
 229 8 249 0 272 0 c 0
 295 0 314 8 330 25 c 0
 346 42 354 61 354 84 c 2
 354 682 l 1
 475 784 l 2
 484 793 495 797 508 797 c 0
 533 797 545 783 545 754 c 2
 545 86 l 2
 545 63 553 43 570 27 c 0
 587 10 606 2 629 2 c 0
 652 2 672 10 689 26 c 0
 705 42 713 61 713 84 c 2
 713 698 l 1
 813 782 l 2
 825 792 837 797 848 797 c 0
 869 797 880 779 881 743 c 2
 901 84 l 2
 902 61 910 42 927 25 c 0
 944 8 964 0 987 0 c 0
 1010 0 1029 8 1046 25 c 0
 1063 42 1071 61 1071 84 c 2
 1047 770 l 2
 1044 828 1023 875 986 912 c 0
 947 949 902 967 850 967 c 0
 786 967 727 938 674 881 c 1
 631 938 575 967 508 967 c 0
 451 967 399 945 352 901 c 1
 341 944 314 965 270 965 c 0
 247 965 227 957 211 941 c 0
 194 924 186 904 186 881 c 2
 186 84 l 2
EndSplineSet
EndChar

StartChar: n
Encoding: 110 110 81
Width: 1237
Flags: HMW
HStem: 0 967<279.5 302.5 279.5 980.5>
VStem: 207 846<72.5 84 84 881>
LayerCount: 3
Fore
SplineSet
604 770 m 2
 633 789 661 799 686 799 c 2
 686 799 713 799 768 799 c 0
 827 799 858 770 860 711 c 2
 885 84 l 2
 886 58 895 38 911 23 c 0
 928 8 948 0 969 0 c 0
 992 0 1012 8 1029 25 c 0
 1046 42 1054 61 1053 84 c 2
 1030 721 l 2
 1027 792 1001 850 953 896 c 0
 904 943 846 967 780 967 c 2
 702 967 l 2
 637 967 579 951 528 918 c 2
 375 825 l 1
 375 881 l 2
 375 905 367 925 350 942 c 0
 333 959 314 967 291 967 c 0
 268 967 248 959 232 942 c 0
 215 925 207 905 207 881 c 2
 207 84 l 2
 207 61 215 42 232 25 c 0
 249 8 268 0 291 0 c 0
 314 0 333 8 350 25 c 0
 367 42 375 61 375 84 c 2
 375 621 l 1
 604 770 l 2
EndSplineSet
EndChar

StartChar: o
Encoding: 111 111 82
Width: 1237
Flags: HMW
HStem: 2 965<530 727 489.5 764.5>
VStem: 205 848<270.5 662 307 662>
LayerCount: 3
Fore
SplineSet
1053 662 m 2
 1053 739 1018 809 947 873 c 0
 876 937 803 968 727 967 c 2
 530 967 l 2
 449 967 375 935 308 870 c 0
 239 805 205 736 205 662 c 2
 205 307 l 2
 205 234 240 165 310 100 c 0
 381 35 454 2 530 2 c 2
 727 2 l 2
 802 2 876 34 947 98 c 0
 1018 162 1053 232 1053 307 c 2
 1053 662 l 2
375 655 m 2
 375 684 385 706 406 723 c 2
 463 772 l 2
 484 790 513 799 551 799 c 2
 725 799 l 2
 752 799 776 791 795 774 c 2
 854 727 l 2
 875 711 885 686 885 653 c 2
 885 313 l 2
 885 284 875 262 854 246 c 2
 803 201 l 2
 780 180 754 170 725 170 c 2
 530 170 l 2
 505 170 485 176 471 188 c 2
 408 242 l 2
 386 260 375 284 375 315 c 2
 375 655 l 2
EndSplineSet
EndChar

StartChar: p
Encoding: 112 112 83
Width: 1237
Flags: HMW
HStem: -362 1368<281.5 304.5>
VStem: 207 846<-287.5 614 352 614 614 655 352 922>
LayerCount: 3
Fore
SplineSet
442 31 m 2
 487 -14 543 -37 608 -37 c 2
 645 -37 l 2
 714 -37 772 -16 817 25 c 2
 954 143 l 2
 1020 200 1053 269 1053 352 c 2
 1053 614 l 2
 1053 696 1022 764 961 817 c 2
 821 938 l 2
 771 982 716 1004 657 1004 c 2
 618 1004 l 2
 538 1004 458 959 377 868 c 1
 377 922 l 2
 377 945 369 964 352 981 c 0
 335 998 316 1006 293 1006 c 0
 269 1006 249 998 232 981 c 0
 215 964 207 945 207 922 c 2
 207 -276 l 2
 207 -299 216 -320 233 -337 c 0
 250 -354 270 -362 293 -362 c 0
 316 -362 336 -354 353 -337 c 0
 369 -320 377 -300 377 -276 c 2
 377 96 l 1
 442 31 l 2
614 133 m 2
 591 133 565 148 535 178 c 2
 414 299 l 2
 389 324 377 349 377 375 c 2
 377 590 l 2
 377 617 388 642 410 664 c 2
 535 788 l 2
 565 819 589 834 608 834 c 2
 657 834 l 2
 676 834 693 827 709 813 c 2
 850 692 l 2
 875 671 887 648 887 621 c 2
 887 350 l 2
 887 319 876 296 854 279 c 2
 723 164 l 2
 700 143 678 133 657 133 c 2
 614 133 l 2
EndSplineSet
EndChar

StartChar: q
Encoding: 113 113 84
Width: 1237
Flags: HMW
HStem: -360 1327<957.5 980.5>
VStem: 207 846<287.5 303 303 653>
LayerCount: 3
Fore
SplineSet
885 -274 m 2
 885 -298 893 -318 910 -335 c 0
 926 -352 946 -360 969 -360 c 0
 992 -360 1012 -352 1029 -335 c 0
 1045 -318 1053 -298 1053 -274 c 2
 1053 883 l 2
 1053 906 1045 926 1029 943 c 0
 1012 959 992 967 969 967 c 0
 946 967 926 959 910 943 c 0
 893 926 885 906 885 883 c 2
 885 848 l 1
 800 927 723 967 653 967 c 2
 530 967 l 2
 459 967 397 942 342 891 c 2
 281 838 l 2
 232 795 207 733 207 653 c 2
 207 303 l 2
 207 272 215 239 230 204 c 0
 245 169 264 142 287 123 c 2
 365 57 l 2
 410 19 465 0 532 0 c 2
 645 0 l 2
 707 0 766 23 821 68 c 2
 885 121 l 1
 885 -274 l 2
524 170 m 2
 504 170 484 178 465 193 c 2
 410 242 l 2
 387 263 375 285 375 307 c 2
 375 662 l 2
 375 685 385 705 406 723 c 2
 469 778 l 2
 482 791 499 797 518 797 c 2
 655 797 l 2
 680 797 702 787 723 766 c 2
 850 653 l 2
 873 632 885 610 885 588 c 2
 885 395 l 2
 885 359 876 333 858 317 c 2
 707 188 l 2
 692 176 670 170 641 170 c 2
 524 170 l 2
EndSplineSet
EndChar

StartChar: r
Encoding: 114 114 85
Width: 1237
Flags: HMW
HStem: 0 967<279.5 302.5>
VStem: 207 846<72.5 713 668 713 713 747.5 668 881>
LayerCount: 3
Fore
SplineSet
207 84 m 2
 207 61 215 41 232 25 c 0
 248 8 268 0 291 0 c 0
 314 0 333 8 350 25 c 0
 367 41 375 61 375 84 c 2
 375 553 l 1
 614 760 l 2
 643 785 669 797 692 797 c 2
 801 797 l 2
 824 797 844 789 861 773 c 0
 877 756 885 736 885 713 c 2
 885 666 l 2
 885 643 893 623 910 607 c 0
 926 590 946 582 969 582 c 0
 992 582 1012 590 1029 607 c 0
 1045 624 1053 644 1053 668 c 2
 1053 713 l 2
 1053 782 1028 842 979 891 c 0
 930 940 870 965 801 965 c 2
 678 965 l 2
 625 965 569 941 512 893 c 2
 375 776 l 1
 375 881 l 2
 375 904 367 925 351 942 c 0
 334 959 314 967 291 967 c 0
 268 967 248 959 232 942 c 0
 215 925 207 905 207 881 c 2
 207 84 l 2
EndSplineSet
EndChar

StartChar: s
Encoding: 115 115 86
Width: 1237
Flags: HMW
HStem: 0 965<444 784 784 816.5>
VStem: 205 850<139 824>
LayerCount: 3
Fore
SplineSet
442 965 m 2
 381 965 329 943 288 899 c 0
 246 855 225 803 225 743 c 0
 225 706 237 668 260 631 c 0
 283 594 316 566 360 547 c 2
 811 344 l 2
 848 327 867 299 867 262 c 0
 867 237 859 216 842 197 c 0
 825 178 804 168 780 168 c 2
 467 168 l 2
 421 168 386 180 362 204 c 0
 337 228 314 240 293 240 c 0
 267 240 246 232 230 215 c 0
 213 198 205 179 205 156 c 0
 205 122 230 88 281 53 c 0
 332 18 386 0 444 0 c 2
 784 0 l 2
 849 0 907 25 958 75 c 0
 1009 125 1034 186 1034 258 c 0
 1034 312 1020 361 991 406 c 0
 962 449 925 481 879 502 c 2
 432 700 l 2
 407 711 395 727 395 750 c 0
 395 781 414 797 451 797 c 2
 831 797 l 2
 855 797 878 785 900 761 c 0
 922 737 946 725 973 725 c 0
 994 725 1013 733 1030 748 c 0
 1047 763 1055 782 1055 807 c 0
 1055 841 1032 876 986 912 c 0
 939 947 886 965 827 965 c 2
 442 965 l 2
EndSplineSet
EndChar

StartChar: t
Encoding: 116 116 87
Width: 1237
Flags: HMW
HStem: 0 1255<449.5 797 449.5 834>
VStem: 205 846<202 892.5>
LayerCount: 3
Fore
SplineSet
797 0 m 2
 871 0 932 25 980 76 c 0
 1027 127 1051 177 1051 227 c 0
 1051 251 1043 272 1028 289 c 0
 1012 305 992 313 967 313 c 0
 925 313 897 289 882 241 c 0
 867 192 838 168 793 168 c 2
 629 168 l 2
 606 168 586 176 569 193 c 0
 552 210 543 230 543 252 c 2
 543 797 l 1
 883 797 l 2
 906 797 925 805 942 822 c 0
 959 838 967 858 967 881 c 0
 967 904 959 923 942 940 c 0
 925 957 906 965 883 965 c 2
 545 965 l 1
 545 1171 l 2
 545 1194 537 1213 520 1230 c 0
 503 1247 484 1255 461 1255 c 0
 438 1255 418 1247 402 1231 c 0
 385 1214 377 1194 377 1171 c 2
 377 965 l 1
 289 965 l 2
 266 965 246 957 230 941 c 0
 213 924 205 904 205 881 c 0
 205 857 213 837 230 821 c 0
 246 805 266 797 289 797 c 2
 375 797 l 1
 375 252 l 2
 375 183 400 123 450 74 c 0
 501 25 560 0 629 0 c 2
 797 0 l 2
EndSplineSet
EndChar

StartChar: u
Encoding: 117 117 88
Width: 1237
Flags: HMW
HStem: 0 967<491 984.5 569 984.5 961.5 984.5>
VStem: 211 846<84 881>
LayerCount: 3
Fore
SplineSet
504 170 m 2
 437 170 403 200 401 260 c 2
 379 881 l 2
 378 904 370 923 354 940 c 0
 337 957 318 965 295 965 c 0
 272 965 252 957 235 940 c 0
 218 923 210 903 211 881 c 2
 235 248 l 2
 238 179 264 121 314 72 c 0
 363 24 422 0 491 0 c 2
 569 0 l 2
 628 0 686 18 743 55 c 2
 889 150 l 1
 889 84 l 2
 889 61 897 42 914 25 c 0
 931 8 950 0 973 0 c 0
 996 0 1015 8 1032 25 c 0
 1049 42 1057 61 1057 84 c 2
 1057 881 l 2
 1057 904 1049 925 1033 942 c 0
 1016 959 996 967 973 967 c 0
 950 967 930 959 914 942 c 0
 897 925 889 905 889 881 c 2
 889 350 l 1
 606 170 l 1
 504 170 l 2
EndSplineSet
EndChar

StartChar: v
Encoding: 118 118 89
Width: 1237
Flags: HMW
HStem: 0 965<277.5 688 277.5 703>
VStem: 205 848<721 881 721 881 719 881>
LayerCount: 3
Fore
SplineSet
1053 881 m 2
 1053 904 1045 924 1029 941 c 0
 1012 957 992 965 969 965 c 0
 946 965 925 957 908 941 c 0
 891 924 883 904 883 881 c 2
 883 754 l 1
 629 176 l 1
 373 752 l 1
 373 881 l 2
 373 904 365 924 349 941 c 0
 332 957 312 965 289 965 c 0
 266 965 246 957 230 941 c 0
 213 924 205 904 205 881 c 2
 205 719 l 1
 494 61 l 2
 512 20 541 0 580 0 c 2
 688 0 l 2
 718 0 743 20 762 59 c 2
 1053 721 l 1
 1053 881 l 2
EndSplineSet
EndChar

StartChar: w
Encoding: 119 119 90
Width: 1237
Flags: HMW
HStem: 0 965<259 462 259 476.5 259 884 259 903.5>
VStem: 362.5 181.5 714 179
LayerCount: 3
Fore
SplineSet
714 592 m 2
 714 615 706 635 689 652 c 0
 672 668 653 676 630 676 c 0
 606 676 586 668 569 652 c 0
 552 635 544 615 544 592 c 2
 544 397 l 1
 427 201 l 1
 372 389 l 1
 353 881 l 2
 352 906 344 926 328 942 c 0
 311 957 292 965 271 965 c 0
 247 965 227 957 210 940 c 0
 193 923 184 903 185 881 c 2
 204 365 l 1
 292 57 l 2
 296 41 306 28 322 17 c 0
 337 6 355 0 374 0 c 2
 462 0 l 2
 491 0 515 16 536 49 c 2
 628 205 l 1
 720 47 l 2
 738 16 763 0 794 0 c 2
 884 0 l 2
 923 0 949 20 962 61 c 2
 1052 358 l 1
 1070 881 l 2
 1071 904 1063 924 1046 941 c 0
 1029 957 1009 965 986 965 c 0
 964 965 945 957 929 940 c 0
 912 923 903 903 902 881 c 2
 884 391 l 1
 826 199 l 1
 714 391 l 1
 714 592 l 2
EndSplineSet
EndChar

StartChar: x
Encoding: 120 120 91
Width: 1237
Flags: HMW
HStem: 0 965<310.5 316.5>
VStem: 219 850<77.5 96.5>
LayerCount: 3
Fore
SplineSet
917 35 m 2
 936 12 958 1 985 1 c 0
 1007 1 1027 10 1044 27 c 0
 1061 44 1069 65 1069 90 c 0
 1069 108 1063 124 1052 137 c 2
 755 496 l 1
 1038 838 l 2
 1045 847 1049 863 1049 885 c 0
 1049 908 1040 928 1023 943 c 0
 1006 958 987 965 965 965 c 0
 941 965 921 955 905 936 c 2
 645 629 l 1
 391 934 l 2
 374 955 352 965 323 965 c 0
 298 965 278 956 263 939 c 0
 247 921 239 901 239 879 c 0
 239 860 245 844 258 829 c 2
 536 498 l 1
 235 137 l 2
 224 124 219 107 219 86 c 0
 219 62 227 42 243 25 c 0
 259 8 279 0 303 0 c 0
 330 0 352 12 370 35 c 2
 645 362 l 1
 917 35 l 2
EndSplineSet
EndChar

StartChar: y
Encoding: 121 121 92
Width: 1237
Flags: HMW
HStem: -360 1327<289 982.5 522 982.5>
VStem: 205 850
LayerCount: 3
Fore
SplineSet
1055 883 m 2
 1055 906 1047 925 1030 942 c 0
 1013 959 994 967 971 967 c 0
 948 967 928 959 911 942 c 0
 894 925 885 905 885 883 c 2
 885 754 l 1
 657 244 l 1
 598 244 l 1
 377 756 l 1
 377 881 l 2
 377 904 369 924 352 941 c 0
 335 957 314 965 291 965 c 0
 268 965 249 957 233 941 c 0
 217 924 209 904 209 881 c 2
 209 719 l 1
 461 133 l 2
 478 94 506 74 543 74 c 2
 584 74 l 1
 469 -193 l 1
 289 -193 l 2
 266 -193 246 -201 230 -217 c 0
 213 -233 205 -253 205 -276 c 0
 205 -300 213 -320 230 -336 c 0
 246 -352 266 -360 289 -360 c 2
 522 -360 l 2
 561 -360 587 -342 602 -305 c 2
 1055 719 l 1
 1055 883 l 2
EndSplineSet
EndChar

StartChar: z
Encoding: 122 122 93
Width: 1237
Flags: HMW
HStem: 0 967<320.5 545 545 969 969 971 320.5 980.5>
VStem: 207 848<72.5 881 84 881>
LayerCount: 3
Fore
SplineSet
1055 881 m 2
 1055 904 1047 925 1031 942 c 0
 1014 959 994 967 971 967 c 2
 971 967 758 967 332 967 c 0
 309 967 290 959 273 942 c 0
 256 925 248 906 248 883 c 0
 248 859 256 839 273 822 c 0
 289 805 309 797 332 797 c 2
 836 797 l 1
 252 236 l 2
 222 207 207 180 207 156 c 2
 207 84 l 2
 207 61 215 41 232 25 c 0
 249 8 269 0 293 0 c 2
 969 0 l 2
 992 0 1012 8 1029 25 c 0
 1045 41 1053 61 1053 84 c 0
 1053 107 1045 127 1029 144 c 0
 1012 160 992 168 969 168 c 2
 430 168 l 1
 1026 745 l 2
 1045 764 1055 787 1055 813 c 2
 1055 881 l 2
EndSplineSet
EndChar

StartChar: braceleft
Encoding: 123 123 94
Width: 1237
Flags: HMW
HStem: 2 1327<715 971 692.5 982.5>
VStem: 209 846<74.5 677.5>
LayerCount: 3
Fore
SplineSet
971 1161 m 2
 994 1161 1014 1169 1031 1186 c 0
 1047 1202 1055 1222 1055 1245 c 0
 1055 1268 1047 1288 1031 1305 c 0
 1014 1321 994 1329 971 1329 c 2
 715 1329 l 2
 670 1329 630 1312 597 1279 c 0
 564 1244 547 1206 547 1163 c 2
 547 840 l 2
 547 817 538 796 521 777 c 0
 504 759 484 750 461 750 c 2
 293 750 l 2
 270 750 250 742 234 726 c 0
 217 709 209 689 209 666 c 0
 209 642 217 622 234 606 c 0
 250 590 270 582 293 582 c 2
 461 582 l 2
 484 582 504 573 521 555 c 0
 538 536 547 515 547 492 c 2
 547 170 l 2
 547 127 564 88 597 53 c 0
 630 19 669 2 715 2 c 2
 971 2 l 2
 994 2 1013 10 1030 27 c 0
 1047 44 1055 63 1055 86 c 0
 1055 109 1047 129 1031 146 c 0
 1014 162 994 170 971 170 c 2
 715 170 l 1
 715 498 l 2
 715 569 692 625 647 666 c 1
 692 709 715 765 715 834 c 2
 715 1161 l 1
 971 1161 l 2
EndSplineSet
EndChar

StartChar: bar
Encoding: 124 124 95
Width: 1237
Flags: HMW
HStem: 0 1329<609.5 630>
VStem: 535 170<74.5 1247 86 1247>
LayerCount: 3
Fore
SplineSet
705 1247 m 2
 705 1270 697 1290 680 1306 c 0
 663 1321 643 1329 621 1329 c 0
 598 1329 577 1321 560 1306 c 0
 543 1290 535 1270 535 1247 c 2
 535 86 l 2
 535 63 543 43 560 26 c 0
 576 9 595 0 618 0 c 0
 642 0 663 9 680 26 c 0
 697 43 705 63 705 86 c 2
 705 1247 l 2
EndSplineSet
EndChar

StartChar: braceright
Encoding: 125 125 96
Width: 1237
Flags: HMW
HStem: 2 1327<293 549 281.5 571.5>
VStem: 209 846<74.5 677.5 654 1256.5>
LayerCount: 3
Fore
SplineSet
293 170 m 2
 270 170 250 162 234 146 c 0
 217 129 209 109 209 86 c 0
 209 63 217 43 234 27 c 0
 250 10 270 2 293 2 c 2
 549 2 l 2
 594 2 633 19 667 53 c 0
 700 88 717 126 717 168 c 2
 717 492 l 2
 717 516 725 537 742 554 c 0
 759 571 780 580 803 580 c 2
 971 580 l 2
 994 580 1014 588 1031 605 c 0
 1047 622 1055 642 1055 666 c 0
 1055 689 1047 709 1031 726 c 0
 1014 742 994 750 971 750 c 2
 803 750 l 2
 780 750 760 759 743 777 c 0
 726 794 717 815 717 838 c 2
 717 1161 l 2
 717 1204 700 1243 667 1278 c 0
 634 1312 595 1329 549 1329 c 2
 293 1329 l 2
 270 1329 250 1321 234 1304 c 0
 217 1287 209 1268 209 1245 c 0
 209 1222 217 1202 234 1186 c 0
 250 1169 270 1161 293 1161 c 2
 549 1161 l 1
 549 831 l 2
 549 762 571 707 616 666 c 1
 571 623 549 567 549 498 c 2
 549 170 l 1
 293 170 l 2
EndSplineSet
EndChar

StartChar: asciitilde
Encoding: 126 126 97
Width: 1237
Flags: HMW
HStem: 502 264<811 1028.5 864 1028.5>
VStem: 246 856<578.5 689>
LayerCount: 3
Fore
SplineSet
1061 608 m 2
 1088 625 1102 648 1102 677 c 0
 1102 701 1094 722 1077 739 c 0
 1060 757 1040 766 1017 766 c 0
 1002 766 986 761 971 752 c 2
 840 672 l 1
 825 672 l 1
 563 760 l 2
 556 763 547 764 537 764 c 2
 483 764 l 2
 466 764 451 760 438 752 c 2
 287 659 l 2
 260 642 246 619 246 590 c 0
 246 567 254 546 271 529 c 0
 288 511 307 502 330 502 c 0
 346 502 362 507 377 516 c 2
 504 594 l 1
 528 594 l 1
 784 508 l 2
 797 504 806 502 811 502 c 2
 864 502 l 2
 874 502 889 507 909 516 c 2
 1061 608 l 2
EndSplineSet
EndChar

StartChar: exclamdown
Encoding: 161 161 99
Width: 1237
Flags: HMW
HStem: -362 1327<586 668 572.5 670 572.5 682>
VStem: 500 254
LayerCount: 3
Fore
SplineSet
752 881 m 2
 752 904 744 924 728 941 c 0
 711 957 691 965 668 965 c 2
 584 965 l 2
 561 965 541 957 525 941 c 0
 508 924 500 904 500 881 c 2
 500 809 l 2
 500 787 508 767 525 750 c 0
 541 732 561 723 586 723 c 2
 666 723 l 2
 690 723 710 731 727 748 c 0
 744 765 752 784 752 807 c 2
 752 881 l 2
713 375 m 2
 712 397 704 417 687 434 c 0
 671 451 652 459 629 459 c 0
 605 459 585 451 570 436 c 0
 554 420 545 400 543 375 c 2
 502 -279 l 2
 501 -300 508 -319 525 -336 c 0
 542 -353 563 -362 586 -362 c 2
 670 -362 l 2
 694 -362 714 -353 731 -335 c 0
 748 -318 755 -299 754 -276 c 2
 713 375 l 2
EndSplineSet
EndChar

StartChar: cent
Encoding: 162 162 100
Width: 1237
Flags: HMW
HStem: -289 1542<621.5 642.5>
VStem: 209 848<338 892.5 375 892.5>
LayerCount: 3
Fore
SplineSet
717 1171 m 2
 717 1194 709 1214 692 1230 c 0
 675 1245 655 1253 633 1253 c 0
 610 1253 589 1245 572 1230 c 0
 555 1214 547 1194 547 1171 c 2
 547 958 l 1
 512 951 477 934 444 907 c 2
 297 780 l 2
 236 727 206 665 209 594 c 2
 209 375 l 2
 209 301 235 242 287 199 c 2
 450 57 l 2
 477 34 509 18 547 8 c 1
 547 -203 l 2
 547 -226 555 -246 572 -263 c 0
 588 -280 608 -289 631 -289 c 0
 654 -289 675 -280 692 -263 c 0
 709 -246 717 -226 717 -203 c 2
 717 0 l 1
 971 0 l 2
 994 0 1014 8 1031 25 c 0
 1047 41 1055 61 1055 84 c 0
 1055 107 1047 127 1030 144 c 0
 1013 160 993 168 971 168 c 2
 627 168 l 2
 596 168 572 176 553 193 c 2
 405 319 l 2
 388 334 379 353 379 375 c 2
 379 580 l 2
 379 611 390 636 412 655 c 2
 547 770 l 2
 568 788 589 797 612 797 c 2
 973 797 l 2
 996 797 1016 805 1033 821 c 0
 1049 837 1057 857 1057 881 c 0
 1057 904 1049 924 1033 941 c 0
 1016 957 996 965 973 965 c 2
 717 965 l 1
 717 1171 l 2
EndSplineSet
EndChar

StartChar: sterling
Encoding: 163 163 101
Width: 1237
Flags: HMW
HStem: 2 1329<874 963 963 975>
VStem: 199 854
LayerCount: 3
Fore
SplineSet
963 2 m 2
 987 2 1007 10 1024 27 c 0
 1041 44 1049 63 1049 86 c 0
 1049 109 1041 129 1024 146 c 0
 1007 162 986 170 963 170 c 2
 567 170 l 1
 688 584 l 1
 965 584 l 2
 988 584 1007 592 1024 609 c 0
 1041 626 1049 645 1049 668 c 0
 1049 691 1041 711 1024 728 c 0
 1007 744 986 752 963 752 c 2
 737 752 l 1
 838 1090 l 2
 852 1137 881 1161 926 1161 c 2
 969 1161 l 2
 992 1161 1012 1170 1029 1187 c 0
 1045 1204 1053 1224 1053 1247 c 0
 1053 1303 1017 1331 944 1331 c 0
 804 1331 714 1264 674 1130 c 2
 561 754 l 1
 285 754 l 2
 262 754 242 746 226 729 c 0
 209 712 201 693 201 670 c 0
 201 646 209 626 226 609 c 0
 242 592 262 584 285 584 c 2
 512 584 l 1
 389 170 l 1
 283 170 l 2
 259 170 239 162 223 146 c 0
 207 129 199 109 199 86 c 0
 199 63 207 44 224 27 c 0
 241 10 260 2 283 2 c 2
 963 2 l 2
EndSplineSet
EndChar

StartChar: currency
Encoding: 164 164 102
Width: 1237
Flags: HMW
HStem: 131 905<273.5 296.5 1010.5 1033.5>
VStem: 201 905<203.5 226.5 940.5 963.5>
LayerCount: 3
Fore
SplineSet
992 365 m 1
 1022 408 1037 463 1037 528 c 2
 1037 528 1037 566 1037 641 c 0
 1037 708 1022 762 992 803 c 1
 1082 893 l 2
 1098 910 1106 929 1106 952 c 0
 1106 975 1098 995 1082 1012 c 0
 1065 1028 1045 1036 1022 1036 c 0
 999 1036 980 1028 963 1012 c 2
 869 918 l 1
 824 949 771 965 711 965 c 2
 596 965 l 2
 536 965 484 949 439 918 c 1
 344 1012 l 2
 328 1028 308 1036 285 1036 c 0
 262 1036 242 1028 226 1012 c 0
 209 995 201 975 201 952 c 0
 201 929 209 910 226 893 c 2
 316 803 l 1
 286 762 271 708 271 641 c 2
 271 528 l 2
 271 463 286 408 316 365 c 1
 226 274 l 2
 209 258 201 238 201 215 c 0
 201 192 209 172 226 156 c 0
 242 139 262 131 285 131 c 0
 308 131 328 139 344 156 c 2
 441 250 l 1
 486 220 537 205 596 205 c 2
 711 205 l 2
 772 205 824 221 867 252 c 1
 963 156 l 2
 980 139 999 131 1022 131 c 0
 1045 131 1065 139 1082 156 c 0
 1098 172 1106 192 1106 215 c 0
 1106 238 1098 258 1082 274 c 2
 992 365 l 1
867 549 m 2
 867 501 857 468 836 449 c 2
 779 399 l 2
 758 382 728 373 691 373 c 2
 617 373 l 2
 580 373 550 382 529 399 c 2
 471 449 l 2
 451 466 441 499 441 549 c 2
 441 621 l 2
 441 668 451 702 471 721 c 2
 529 770 l 2
 550 788 579 797 617 797 c 2
 691 797 l 2
 730 797 760 788 779 770 c 2
 836 721 l 2
 857 704 867 671 867 621 c 2
 867 549 l 2
EndSplineSet
EndChar

StartChar: yen
Encoding: 165 165 103
Width: 1237
Flags: HMW
HStem: 4 1328<278.5 640.5>
VStem: 203 858<510.5 533.5>
LayerCount: 3
Fore
SplineSet
713 649 m 1
 713 649 824 835 1047 1206 c 0
 1052 1217 1055 1228 1055 1240 c 0
 1055 1264 1048 1285 1033 1302 c 0
 1018 1320 997 1329 970 1329 c 0
 938 1329 914 1316 899 1290 c 2
 631 838 l 1
 360 1296 l 2
 346 1320 323 1332 290 1332 c 0
 267 1332 247 1324 230 1307 c 0
 213 1290 205 1272 205 1251 c 0
 205 1233 211 1213 223 1192 c 2
 545 645 l 1
 545 606 l 1
 287 606 l 2
 265 606 245 598 228 582 c 0
 211 565 203 545 203 522 c 0
 203 499 211 479 228 462 c 0
 245 445 265 436 287 436 c 2
 545 436 l 1
 545 88 l 2
 545 65 553 45 570 29 c 0
 586 12 606 4 629 4 c 0
 652 4 672 12 689 29 c 0
 705 45 713 65 713 88 c 2
 713 436 l 1
 975 436 l 2
 998 436 1019 445 1036 462 c 0
 1053 479 1061 499 1061 522 c 0
 1061 545 1053 564 1036 581 c 0
 1019 598 999 606 975 606 c 2
 713 606 l 1
 713 649 l 1
EndSplineSet
EndChar

StartChar: brokenbar
Encoding: 166 166 104
Width: 1237
Flags: HMW
HStem: 0 1329<609.5 630>
VStem: 535 170<74.5 463 86 463 870 1247>
LayerCount: 3
Fore
SplineSet
705 1247 m 2
 705 1270 697 1290 680 1306 c 0
 663 1321 643 1329 621 1329 c 0
 598 1329 577 1321 560 1306 c 0
 543 1290 535 1270 535 1247 c 2
 535 870 l 2
 535 847 543 827 560 810 c 0
 576 793 595 784 618 784 c 0
 642 784 663 793 680 810 c 0
 697 827 705 847 705 870 c 2
 705 1247 l 2
705 463 m 2
 705 486 697 505 680 521 c 0
 663 537 643 545 621 545 c 0
 598 545 577 537 560 521 c 0
 543 505 535 486 535 463 c 2
 535 86 l 2
 535 63 543 43 560 26 c 0
 576 9 595 0 618 0 c 0
 642 0 663 9 680 26 c 0
 697 43 705 63 705 86 c 2
 705 463 l 2
EndSplineSet
EndChar

StartChar: section
Encoding: 167 167 105
Width: 1237
Flags: HMW
HStem: -360 1689<428 834 371 881 371 903.5> -190 313<440 881>
VStem: 205 852
LayerCount: 3
Fore
SplineSet
397 846 m 2xa0
 345 846 300 827 263 790 c 0
 226 753 207 708 207 657 c 0
 207 616 225 573 260 528 c 2
 862 -143 l 2
 870 -152 874 -161 874 -170 c 0
 874 -183 865 -190 848 -190 c 2
 440 -190 l 2
 421 -190 406 -184 394 -172 c 0
 381 -160 375 -145 375 -127 c 0
 375 -105 367 -86 351 -69 c 0
 335 -53 316 -45 293 -45 c 0
 234 -45 205 -76 205 -139 c 0
 205 -195 227 -246 272 -291 c 0
 316 -337 368 -360 428 -360 c 2
 881 -360 l 2
 926 -360 966 -341 1002 -304 c 0
 1037 -267 1055 -223 1055 -174 c 0
 1055 -129 1037 -86 1001 -47 c 2
 850 123 l 1
 881 123 l 2
 926 123 966 142 1002 179 c 0x60
 1037 216 1055 260 1055 309 c 0
 1055 355 1037 397 1001 436 c 2
 399 1112 l 2
 391 1121 387 1131 387 1141 c 0
 387 1153 397 1159 416 1159 c 2
 821 1159 l 2
 854 1159 876 1141 886 1105 c 0
 895 1070 905 1045 916 1032 c 0
 927 1019 947 1012 975 1012 c 0
 996 1012 1015 1020 1032 1037 c 0
 1049 1054 1057 1074 1057 1098 c 0
 1057 1162 1033 1217 986 1262 c 0
 939 1307 888 1329 834 1329 c 2
 397 1329 l 2
 345 1329 300 1310 263 1273 c 0
 226 1236 207 1192 207 1141 c 0
 207 1100 225 1057 260 1012 c 2
 408 846 l 1
 397 846 l 2xa0
399 629 m 2
 391 638 387 647 387 657 c 0
 387 670 397 676 416 676 c 2
 561 676 l 1
 862 340 l 2
 870 331 874 322 874 313 c 0
 874 300 865 293 848 293 c 2
 698 293 l 1
 399 629 l 2
EndSplineSet
EndChar

StartChar: dieresis
Encoding: 168 168 106
Width: 1237
Flags: HMW
HStem: 1018 313<953.5 976.5 953.5 976.5>
VStem: 203 846<1090.5 1245 1102 1245>
LayerCount: 3
Fore
SplineSet
1049 1245 m 2
 1049 1269 1041 1289 1024 1306 c 0
 1007 1323 988 1331 965 1331 c 0
 942 1331 922 1323 906 1306 c 0
 889 1289 881 1269 881 1245 c 2
 881 1102 l 2
 881 1079 889 1059 905 1043 c 0
 921 1026 941 1018 965 1018 c 0
 988 1018 1008 1026 1025 1043 c 0
 1041 1059 1049 1079 1049 1102 c 2
 1049 1245 l 2
371 1245 m 2
 371 1268 363 1288 347 1305 c 0
 330 1321 310 1329 287 1329 c 0
 264 1329 244 1321 228 1305 c 0
 211 1288 203 1268 203 1245 c 2
 203 1102 l 2
 203 1079 211 1059 228 1043 c 0
 244 1026 264 1018 287 1018 c 0
 310 1018 330 1026 347 1043 c 0
 363 1059 371 1079 371 1102 c 2
 371 1245 l 2
EndSplineSet
EndChar

StartChar: copyright
Encoding: 169 169 107
Width: 1237
Flags: HMW
HStem: 86 172<471.5 795 641 735> 1073 170<618.5 635 635 735 735 766.5 502 797>
VStem: 256 84<650.5 690 650.5 1022> 881 100<987.5 1008.5>
LayerCount: 3
Fore
SplineSet
1067 1026 m 2
 1067 1097 1034 1165 968 1231 c 0
 901 1296 824 1329 739 1329 c 2
 498 1329 l 2
 413 1329 337 1296 270 1231 c 0
 203 1165 170 1097 170 1026 c 2
 170 303 l 2
 170 232 203 164 270 99 c 0
 336 33 412 0 498 0 c 2
 739 0 l 2
 825 0 901 33 968 99 c 0
 1034 164 1067 232 1067 303 c 2
 1067 1026 l 2
981 307 m 2
 981 258 968 218 943 189 c 0
 914 156 889 132 870 116 c 0
 847 96 802 86 735 86 c 2
 502 86 l 2
 441 86 400 94 379 109 c 0
 358 125 333 149 303 180 c 0
 272 213 256 255 256 307 c 2
 256 1022 l 2
 256 1071 269 1111 295 1140 c 0
 321 1170 345 1195 367 1214 c 0
 390 1233 435 1243 502 1243 c 2
 735 1243 l 2
 798 1243 839 1236 858 1221 c 0
 878 1206 904 1182 935 1150 c 0
 966 1119 981 1076 981 1022 c 2
 981 307 l 2
797 924 m 2
 823 924 843 931 858 946 c 0
 873 960 881 977 881 998 c 0
 881 1019 873 1037 858 1052 c 0
 843 1066 823 1073 797 1073 c 2
 635 1073 l 2
 602 1073 568 1063 535 1042 c 0
 501 1021 477 996 463 967 c 2
 367 788 l 2
 349 755 340 714 340 666 c 0
 340 635 348 596 365 551 c 1
 463 365 l 2
 479 334 505 309 541 289 c 0
 576 268 609 258 641 258 c 2
 795 258 l 2
 821 258 841 265 856 280 c 0
 871 294 879 312 879 333 c 0
 879 353 871 371 856 386 c 0
 841 401 821 408 795 408 c 2
 629 408 l 2
 618 408 607 419 594 442 c 2
 500 621 l 2
 493 634 489 649 489 666 c 0
 489 685 491 698 496 705 c 2
 594 887 l 2
 607 912 618 924 629 924 c 2
 797 924 l 2
EndSplineSet
EndChar

StartChar: ordfeminine
Encoding: 170 170 108
Width: 1237
Flags: HMW
HStem: 536 262<445.5 788 457 694> 970 191<422 778 459 778 778 786>
VStem: 203 850<436.5 650.5 436.5 716>
LayerCount: 3
Fore
SplineSet
457 970 m 2
 387 970 327 945 278 896 c 0
 228 846 203 786 203 716 c 2
 203 716 203 683 203 618 c 0
 203 547 228 487 277 438 c 0
 326 389 386 364 457 364 c 2
 741 364 l 1
 883 448 l 1
 883 425 891 405 908 389 c 0
 925 372 945 364 969 364 c 0
 992 364 1011 372 1028 389 c 0
 1045 405 1053 425 1053 448 c 2
 1032 1077 l 2
 1030 1148 1005 1207 956 1256 c 0
 907 1305 848 1329 778 1329 c 2
 459 1329 l 2
 436 1329 416 1321 400 1305 c 0
 383 1288 375 1268 375 1245 c 0
 375 1222 383 1203 400 1186 c 0
 417 1169 436 1161 459 1161 c 2
 778 1161 l 2
 801 1161 821 1153 838 1137 c 0
 854 1120 862 1100 862 1077 c 2
 864 958 l 1
 830 966 804 970 786 970 c 2
 457 970 l 2
694 536 m 1
 457 536 l 2
 434 536 415 544 398 561 c 0
 381 578 373 597 373 620 c 2
 373 714 l 2
 373 737 381 757 398 774 c 0
 414 790 434 798 457 798 c 2
 788 798 l 2
 811 798 831 790 847 774 c 0
 862 759 871 739 872 714 c 2
 877 643 l 1
 694 536 l 1
EndSplineSet
EndChar

StartChar: guillemotleft
Encoding: 171 171 109
Width: 1237
Flags: HMW
HStem: 186 779<414.5 442.5 414.5 443 924.5 952.5 414.5 953>
VStem: 207 821<257 581.5>
LayerCount: 3
Fore
SplineSet
895 575 m 1
 895 575 937 665 1020 846 c 0
 1025 859 1028 871 1028 882 c 0
 1028 906 1019 926 1002 942 c 0
 983 957 963 965 942 965 c 0
 907 965 882 949 866 918 c 2
 725 612 l 2
 720 600 717 588 717 575 c 0
 717 565 720 553 725 539 c 2
 866 233 l 2
 881 202 907 186 942 186 c 0
 964 186 984 194 1002 210 c 0
 1019 225 1028 245 1028 269 c 0
 1028 280 1025 292 1020 305 c 2
 895 575 l 1
385 575 m 1
 510 846 l 2
 515 859 518 871 518 882 c 0
 518 906 509 926 492 942 c 0
 473 957 453 965 432 965 c 0
 397 965 372 949 356 918 c 2
 215 612 l 2
 210 600 207 588 207 575 c 0
 207 565 210 553 215 539 c 2
 356 233 l 2
 371 202 397 186 432 186 c 0
 454 186 474 194 492 210 c 0
 509 225 518 245 518 269 c 0
 518 280 515 292 510 305 c 2
 385 575 l 1
EndSplineSet
EndChar

StartChar: logicalnot
Encoding: 172 172 110
Width: 1237
Flags: HMW
HStem: 244 508<951 961>
VStem: 193 854<656 668 668 679.5>
LayerCount: 3
Fore
SplineSet
1047 668 m 2
 1047 691 1039 711 1022 728 c 0
 1005 744 984 752 961 752 c 2
 276 752 l 2
 253 752 233 744 217 728 c 0
 201 711 193 691 193 668 c 0
 193 644 201 624 217 608 c 0
 233 592 253 584 276 584 c 2
 877 584 l 1
 877 328 l 2
 877 305 885 285 902 269 c 0
 919 252 939 244 963 244 c 0
 986 244 1005 252 1022 269 c 0
 1039 286 1047 305 1047 328 c 2
 1047 668 l 2
EndSplineSet
EndChar

StartChar: uni00AD
Encoding: 173 173 111
Width: 1237
Flags: HMW
HStem: 510 244<291 517 517 969>
VStem: 207 846<584.5 670 596 670>
LayerCount: 3
Fore
SplineSet
1053 670 m 2
 1053 695 1044 715 1027 731 c 0
 1010 746 990 754 969 754 c 2
 969 754 743 754 291 754 c 0
 268 754 248 746 232 730 c 0
 215 713 207 693 207 670 c 2
 207 596 l 2
 207 573 215 553 232 536 c 0
 248 519 268 510 291 510 c 2
 969 510 l 2
 992 510 1012 519 1029 536 c 0
 1045 553 1053 573 1053 596 c 2
 1053 670 l 2
EndSplineSet
EndChar

StartChar: registered
Encoding: 174 174 112
Width: 1237
Flags: HMW
HStem: 86 170<429.5 502 429.5 735> 715 211<514 653 514 653> 1073 170<502 653 367 735>
VStem: 256 111<319.5 330 330 1022 1022 1046.5> 514 244<784.5 834.5 784.5 926 784.5 926> 516 37<330 567 567 567> 905 76<753.5 853.5>
LayerCount: 3
Fore
SplineSet
1067 1026 m 2xf6
 1067 1097 1034 1165 968 1231 c 0
 901 1296 824 1329 739 1329 c 2
 498 1329 l 2
 413 1329 337 1296 270 1231 c 0
 203 1165 170 1097 170 1026 c 2
 170 303 l 2
 170 232 203 164 270 99 c 0
 336 33 412 0 498 0 c 2
 739 0 l 2
 825 0 901 33 968 99 c 0
 1034 164 1067 232 1067 303 c 2
 1067 1026 l 2xf6
981 307 m 2
 981 258 968 218 943 189 c 0
 914 156 889 132 870 116 c 0
 847 96 802 86 735 86 c 2
 502 86 l 2
 441 86 400 94 379 109 c 0
 358 125 333 149 303 180 c 0
 272 213 256 255 256 307 c 2
 256 1022 l 2
 256 1071 269 1111 295 1140 c 0
 321 1170 345 1195 367 1214 c 0
 390 1233 435 1243 502 1243 c 2
 735 1243 l 2
 798 1243 839 1236 858 1221 c 0
 878 1206 904 1182 935 1150 c 0
 966 1119 981 1076 981 1022 c 2
 981 307 l 2
367 330 m 2
 367 309 374 291 388 277 c 0
 401 263 419 256 440 256 c 0
 461 256 480 263 495 277 c 0
 509 291 516 309 516 330 c 2
 516 567 l 1
 553 567 l 1
 743 301 l 2
 765 271 789 256 815 256 c 0
 834 256 851 263 864 276 c 0
 877 289 883 305 883 324 c 0
 883 347 875 370 860 391 c 2
 725 578 l 1
 845 607 905 688 905 819 c 0
 905 888 880 947 831 998 c 0
 782 1048 723 1073 653 1073 c 2
 367 1073 l 1
 367 330 l 2
514 926 m 1xfa
 653 926 l 2
 683 926 708 916 729 897 c 0
 748 876 758 850 758 819 c 0
 758 750 723 715 653 715 c 2
 514 715 l 1
 514 926 l 1xfa
EndSplineSet
EndChar

StartChar: macron
Encoding: 175 175 113
Width: 1237
Flags: HMW
HStem: 1415 170<-10 1247 828 1247>
VStem: -10 1257<1415 1585 1415 1471.5>
LayerCount: 3
Fore
SplineSet
1247 1585 m 1
 1247 1585 828 1585 -10 1585 c 1
 -10 1585 -10 1528 -10 1415 c 1
 -10 1415 409 1415 1247 1415 c 1
 1247 1415 1247 1472 1247 1585 c 1
EndSplineSet
EndChar

StartChar: degree
Encoding: 176 176 114
Width: 1237
Flags: HMW
HStem: 569 760<571 686 532 724>
VStem: 246 766<837.5 1024 874 1024>
LayerCount: 3
Fore
SplineSet
1012 1024 m 2
 1012 1101 977 1171 907 1234 c 0
 836 1297 762 1329 686 1329 c 2
 571 1329 l 2
 493 1329 419 1297 350 1233 c 0
 281 1169 246 1099 246 1024 c 2
 246 874 l 2
 246 801 281 732 351 667 c 0
 422 602 495 569 571 569 c 2
 686 569 l 2
 762 569 835 601 906 666 c 0
 977 730 1012 799 1012 874 c 2
 1012 1024 l 2
844 881 m 2
 844 852 834 829 813 813 c 2
 762 768 l 2
 739 747 713 737 684 737 c 2
 571 737 l 2
 545 737 525 743 512 756 c 2
 449 809 l 2
 427 827 416 852 416 883 c 2
 416 1018 l 2
 416 1046 426 1068 446 1085 c 2
 504 1135 l 2
 525 1152 555 1161 592 1161 c 2
 684 1161 l 2
 711 1161 734 1153 754 1137 c 2
 813 1090 l 2
 834 1073 844 1049 844 1016 c 2
 844 881 l 2
EndSplineSet
EndChar

StartChar: plusminus
Encoding: 177 177 115
Width: 1237
Flags: HMW
HStem: 168 72<606.5 630.5 606.5 961>
VStem: 193 854<72.5 95.5 656.5 679.5>
LayerCount: 3
Fore
SplineSet
702 1010 m 2
 702 1032 694 1051 679 1068 c 0
 663 1084 644 1092 621 1092 c 0
 598 1092 577 1084 560 1068 c 0
 543 1052 535 1033 535 1010 c 2
 535 752 l 1
 276 752 l 2
 253 752 234 744 218 727 c 0
 201 710 193 691 193 668 c 0
 193 645 201 625 218 609 c 0
 234 592 253 584 276 584 c 2
 535 584 l 1
 535 326 l 2
 535 302 543 282 560 265 c 0
 576 248 595 240 618 240 c 0
 643 240 663 248 680 265 c 0
 697 282 705 302 705 326 c 2
 705 584 l 1
 961 584 l 2
 985 584 1005 592 1022 609 c 0
 1039 625 1047 645 1047 668 c 0
 1047 691 1039 711 1022 728 c 0
 1005 744 984 752 961 752 c 2
 702 752 l 1
 702 1010 l 2
276 168 m 2
 253 168 234 160 218 144 c 0
 201 127 193 107 193 84 c 0
 193 61 201 41 218 25 c 0
 234 8 253 0 276 0 c 2
 961 0 l 2
 985 0 1005 8 1022 25 c 0
 1039 41 1047 61 1047 84 c 0
 1047 107 1039 127 1022 144 c 0
 1005 160 984 168 961 168 c 2
 276 168 l 2
EndSplineSet
EndChar

StartChar: uni00B2
Encoding: 178 178 116
Width: 1237
Flags: HMW
HStem: 842 96<543 754 754 771.5 543 797 543 754> 1085 97<517.5 535 535 745>
VStem: 395 498<743.5 1190 768 1190>
LayerCount: 3
Fore
SplineSet
893 1190 m 2
 893 1225 879 1257 850 1286 c 0
 821 1315 789 1329 754 1329 c 2
 479 1329 l 2
 457 1329 439 1322 426 1308 c 0
 413 1293 406 1275 406 1255 c 0
 406 1235 413 1218 426 1203 c 0
 439 1189 457 1182 479 1182 c 2
 745 1182 l 1
 745 1085 l 1
 535 1085 l 2
 500 1085 468 1071 439 1042 c 0
 410 1013 395 981 395 946 c 2
 395 768 l 2
 395 719 420 694 469 694 c 2
 797 694 l 2
 820 694 837 701 850 716 c 0
 863 731 870 748 870 768 c 0
 870 788 863 806 850 821 c 0
 837 835 819 842 797 842 c 2
 543 842 l 1
 543 938 l 1
 754 938 l 2
 789 938 821 953 850 982 c 0
 879 1011 893 1042 893 1077 c 2
 893 1190 l 2
EndSplineSet
EndChar

StartChar: uni00B3
Encoding: 179 179 117
Width: 1237
Flags: HMW
HStem: 842 96<704 818 704 818> 1085 97<692.5 704 704 818>
VStem: 479 487<758 946 834 1265>
LayerCount: 3
Fore
SplineSet
966 946 m 2
 966 971 958 993 941 1012 c 1
 958 1031 966 1052 966 1077 c 2
 966 1190 l 2
 966 1225 952 1257 923 1286 c 0
 894 1315 862 1329 827 1329 c 2
 552 1329 l 2
 529 1329 512 1322 499 1308 c 0
 486 1293 479 1275 479 1255 c 0
 479 1235 486 1218 499 1203 c 0
 512 1189 529 1182 552 1182 c 2
 818 1182 l 1
 818 1085 l 1
 704 1085 l 2
 681 1085 663 1078 650 1064 c 0
 637 1049 630 1032 630 1012 c 0
 630 992 637 975 650 960 c 0
 663 945 681 938 704 938 c 2
 818 938 l 1
 818 842 l 1
 552 842 l 2
 529 842 512 835 499 821 c 0
 486 806 479 788 479 768 c 0
 479 748 486 731 499 716 c 0
 512 701 529 694 552 694 c 2
 827 694 l 2
 862 694 894 709 923 738 c 0
 952 767 966 799 966 834 c 2
 966 946 l 2
EndSplineSet
EndChar

StartChar: acute
Encoding: 180 180 118
Width: 1237
Flags: HMW
HStem: 1018 311<460.5 792>
VStem: 391 471<1093 1253.5>
LayerCount: 3
Fore
SplineSet
438 1180 m 2
 407 1165 391 1139 391 1104 c 0
 391 1082 399 1062 414 1045 c 0
 429 1027 448 1018 473 1018 c 0
 485 1018 497 1021 510 1026 c 2
 815 1167 l 2
 846 1182 862 1208 862 1243 c 0
 862 1264 854 1284 839 1303 c 0
 824 1320 804 1329 780 1329 c 0
 768 1329 756 1326 743 1321 c 2
 438 1180 l 2
EndSplineSet
EndChar

StartChar: uni00B5
Encoding: 181 181 119
Width: 1237
Flags: HMW
HStem: -360 1327<281.5 985.5>
VStem: 210 848<-284.5 881 84 881 84 881>
LayerCount: 3
Fore
SplineSet
1058 881 m 2
 1058 904 1050 925 1034 942 c 0
 1017 959 997 967 974 967 c 0
 951 967 931 959 915 942 c 0
 898 925 890 905 890 881 c 2
 890 350 l 1
 607 170 l 1
 480 170 l 2
 414 170 380 200 378 260 c 2
 378 881 l 2
 378 899 370 918 355 937 c 0
 339 956 319 965 294 965 c 0
 270 965 250 957 233 940 c 0
 216 923 208 903 210 881 c 2
 210 -276 l 2
 210 -293 218 -312 234 -331 c 0
 249 -350 269 -360 294 -360 c 0
 317 -360 337 -352 354 -336 c 0
 370 -320 378 -300 378 -276 c 2
 378 16 l 1
 408 5 438 0 468 0 c 2
 570 0 l 2
 629 0 687 18 744 55 c 2
 890 150 l 1
 890 84 l 2
 890 61 898 42 915 25 c 0
 932 8 951 0 974 0 c 0
 997 0 1016 8 1033 25 c 0
 1050 42 1058 61 1058 84 c 2
 1058 881 l 2
EndSplineSet
EndChar

StartChar: paragraph
Encoding: 182 182 120
Width: 1237
Flags: HMW
HStem: 0 1329<596.5 620 936.5 960>
VStem: 694 170<84 1159>
LayerCount: 3
Fore
SplineSet
1034 1329 m 1
 1034 1329 835 1329 438 1329 c 0
 369 1329 310 1304 261 1254 c 0
 211 1204 186 1144 186 1075 c 2
 186 760 l 2
 186 691 211 631 260 582 c 0
 309 533 369 508 438 508 c 2
 524 508 l 1
 524 84 l 2
 524 61 532 41 549 25 c 0
 565 8 585 0 608 0 c 0
 632 0 652 8 669 25 c 0
 686 41 694 61 694 84 c 2
 694 1159 l 1
 864 1159 l 1
 864 84 l 2
 864 61 872 41 889 25 c 0
 905 8 925 0 948 0 c 0
 972 0 992 8 1009 25 c 0
 1026 41 1034 61 1034 84 c 2
 1034 1329 l 1
EndSplineSet
EndChar

StartChar: cedilla
Encoding: 184 184 121
Width: 1237
Flags: HMW
HStem: -360 360<715 799 799 810.5>
VStem: 375 508<-274 -264>
LayerCount: 3
Fore
SplineSet
883 0 m 1
 883 0 827 0 715 0 c 1
 715 0 715 -63 715 -190 c 1
 715 -190 630 -190 459 -190 c 0
 436 -190 416 -198 400 -215 c 0
 383 -232 375 -252 375 -276 c 0
 375 -299 383 -318 400 -335 c 0
 417 -352 436 -360 459 -360 c 2
 799 -360 l 2
 822 -360 842 -352 859 -335 c 0
 875 -318 883 -298 883 -274 c 2
 883 0 l 1
EndSplineSet
EndChar

StartChar: uni00B9
Encoding: 185 185 122
Width: 1237
Flags: HMW
HStem: 694 635<551 715 540 879 540 890>
VStem: 477 476<758 778 758 778 758 1265.5>
LayerCount: 3
Fore
SplineSet
879 694 m 2
 901 694 919 701 933 716 c 0
 946 731 953 748 953 768 c 0
 953 788 946 806 933 821 c 0
 919 835 901 842 879 842 c 2
 789 842 l 1
 789 1255 l 2
 789 1304 764 1329 715 1329 c 2
 551 1329 l 2
 529 1329 511 1322 498 1308 c 0
 484 1293 477 1276 477 1255 c 0
 477 1234 484 1217 498 1203 c 0
 511 1189 529 1182 551 1182 c 2
 641 1182 l 1
 641 842 l 1
 551 842 l 2
 529 842 511 835 498 821 c 0
 484 806 477 788 477 768 c 0
 477 747 484 730 498 716 c 0
 511 701 528 694 551 694 c 2
 879 694 l 2
EndSplineSet
EndChar

StartChar: ordmasculine
Encoding: 186 186 123
Width: 1237
Flags: HMW
HStem: 366 965<530 727 489.5 764.5>
VStem: 205 848<634.5 1026 671 1026>
LayerCount: 3
Fore
SplineSet
1053 1026 m 2
 1053 1103 1018 1173 947 1237 c 0
 876 1301 803 1332 727 1331 c 2
 530 1331 l 2
 449 1331 375 1299 308 1234 c 0
 239 1169 205 1100 205 1026 c 2
 205 671 l 2
 205 598 240 529 310 464 c 0
 381 399 454 366 530 366 c 2
 727 366 l 2
 802 366 876 398 947 462 c 0
 1018 526 1053 596 1053 671 c 2
 1053 1026 l 2
375 1019 m 2
 375 1048 385 1070 406 1087 c 2
 463 1136 l 2
 484 1154 513 1163 551 1163 c 2
 725 1163 l 2
 752 1163 776 1155 795 1138 c 2
 854 1091 l 2
 875 1075 885 1050 885 1017 c 2
 885 677 l 2
 885 648 875 626 854 610 c 2
 803 565 l 2
 780 544 754 534 725 534 c 2
 530 534 l 2
 505 534 485 540 471 552 c 2
 408 606 l 2
 386 624 375 648 375 679 c 2
 375 1019 l 2
EndSplineSet
EndChar

StartChar: guillemotright
Encoding: 187 187 124
Width: 1237
Flags: HMW
HStem: 186 779<292 320.5 802 830.5>
VStem: 217 821<256.5 580.5 569 894>
LayerCount: 3
Fore
SplineSet
735 305 m 2
 730 292 727 280 727 269 c 0
 727 244 736 225 754 210 c 0
 771 194 791 186 813 186 c 0
 848 186 873 202 889 233 c 2
 1030 539 l 2
 1035 551 1038 563 1038 575 c 0
 1038 586 1035 598 1030 612 c 2
 889 918 l 2
 874 949 848 965 813 965 c 0
 791 965 771 957 754 942 c 0
 736 926 727 906 727 882 c 0
 727 870 730 858 735 846 c 2
 860 575 l 1
 735 305 l 2
225 305 m 2
 220 292 217 280 217 269 c 0
 217 244 226 225 244 210 c 0
 261 194 281 186 303 186 c 0
 338 186 363 202 379 233 c 2
 520 539 l 2
 525 551 528 563 528 575 c 0
 528 586 525 598 520 612 c 2
 379 918 l 2
 364 949 338 965 303 965 c 0
 281 965 261 957 244 942 c 0
 226 926 217 906 217 882 c 0
 217 870 220 858 225 846 c 2
 350 575 l 1
 225 305 l 2
EndSplineSet
EndChar

StartChar: onequarter
Encoding: 188 188 125
Width: 1237
Flags: HMW
HStem: 0 1329<112.5 1131>
VStem: 857 190<295 541>
LayerCount: 3
Fore
SplineSet
452 694 m 2
 474 694 492 701 506 716 c 0
 519 731 526 748 526 768 c 0
 526 788 519 806 506 821 c 0
 492 835 474 842 452 842 c 2
 362 842 l 1
 362 1255 l 2
 362 1304 337 1329 288 1329 c 2
 124 1329 l 2
 101 1329 84 1322 71 1308 c 0
 57 1293 50 1276 50 1255 c 0
 50 1234 57 1217 71 1203 c 0
 84 1189 101 1182 124 1182 c 2
 214 1182 l 1
 214 842 l 1
 124 842 l 2
 101 842 84 835 71 821 c 0
 57 806 50 788 50 768 c 0
 50 747 57 730 71 716 c 0
 84 701 101 694 124 694 c 2
 452 694 l 2
1238 1192 m 2
 1252 1207 1259 1224 1259 1243 c 0
 1259 1263 1251 1281 1236 1296 c 0
 1221 1311 1203 1319 1183 1319 c 0
 1163 1319 1146 1311 1131 1294 c 2
 41 137 l 2
 27 122 20 105 20 86 c 0
 20 67 28 49 43 34 c 0
 58 18 76 10 96 10 c 0
 116 10 133 18 148 35 c 2
 1238 1192 l 2
1215 147 m 2
 1238 147 1256 154 1269 169 c 0
 1282 184 1289 201 1289 221 c 0
 1289 241 1282 259 1269 274 c 0
 1256 288 1238 295 1215 295 c 2
 1195 295 l 1
 1195 541 l 2
 1195 563 1188 581 1174 594 c 0
 1159 607 1141 614 1121 614 c 0
 1101 614 1084 607 1069 594 c 0
 1054 581 1047 564 1047 541 c 2
 1047 295 l 1
 857 295 l 1
 857 561 l 2
 857 584 850 602 836 615 c 0
 821 628 803 635 783 635 c 0
 763 635 746 628 731 615 c 0
 716 602 709 584 709 561 c 2
 709 221 l 2
 709 172 734 147 783 147 c 2
 1047 147 l 1
 1047 74 l 2
 1047 51 1054 33 1069 20 c 0
 1084 7 1101 0 1121 0 c 0
 1141 0 1159 7 1174 20 c 0
 1188 33 1195 51 1195 74 c 2
 1195 147 l 1
 1215 147 l 2
EndSplineSet
EndChar

StartChar: onehalf
Encoding: 189 189 126
Width: 1237
Flags: HMW
HStem: 148 96<857 1068 1068 1085.5 857 1111 857 1068> 391 97<831.5 849 849 1059>
VStem: 20 1239<76.5 1253>
LayerCount: 3
Fore
SplineSet
452 694 m 2
 474 694 492 701 506 716 c 0
 519 731 526 748 526 768 c 0
 526 788 519 806 506 821 c 0
 492 835 474 842 452 842 c 2
 362 842 l 1
 362 1255 l 2
 362 1304 337 1329 288 1329 c 2
 124 1329 l 2
 101 1329 84 1322 71 1308 c 0
 57 1293 50 1276 50 1255 c 0
 50 1234 57 1217 71 1203 c 0
 84 1189 101 1182 124 1182 c 2
 214 1182 l 1
 214 842 l 1
 124 842 l 2
 101 842 84 835 71 821 c 0
 57 806 50 788 50 768 c 0
 50 747 57 730 71 716 c 0
 84 701 101 694 124 694 c 2
 452 694 l 2
1238 1192 m 2
 1252 1207 1259 1224 1259 1243 c 0
 1259 1263 1251 1281 1236 1296 c 0
 1221 1311 1203 1319 1183 1319 c 0
 1163 1319 1146 1311 1131 1294 c 2
 41 137 l 2
 27 122 20 105 20 86 c 0
 20 67 28 49 43 34 c 0
 58 18 76 10 96 10 c 0
 116 10 133 18 148 35 c 2
 1238 1192 l 2
1207 496 m 2
 1207 531 1193 563 1164 592 c 0
 1135 621 1103 635 1068 635 c 2
 793 635 l 2
 771 635 753 628 740 614 c 0
 727 599 720 581 720 561 c 0
 720 541 727 524 740 509 c 0
 753 495 771 488 793 488 c 2
 1059 488 l 1
 1059 391 l 1
 849 391 l 2
 814 391 782 377 753 348 c 0
 724 319 709 287 709 252 c 2
 709 74 l 2
 709 25 734 0 783 0 c 2
 1111 0 l 2
 1134 0 1151 7 1164 22 c 0
 1177 37 1184 54 1184 74 c 0
 1184 94 1177 112 1164 127 c 0
 1151 141 1133 148 1111 148 c 2
 857 148 l 1
 857 244 l 1
 1068 244 l 2
 1103 244 1135 259 1164 288 c 0
 1193 317 1207 348 1207 383 c 2
 1207 496 l 2
EndSplineSet
EndChar

StartChar: threequarters
Encoding: 190 190 127
Width: 1237
Flags: HMW
HStem: 842 96<275 389 275 389> 1085 97<263.5 275 275 389>
VStem: 857 190<295 541>
LayerCount: 3
Fore
SplineSet
537 946 m 2
 537 971 529 993 512 1012 c 1
 529 1031 537 1052 537 1077 c 2
 537 1190 l 2
 537 1225 523 1257 494 1286 c 0
 465 1315 433 1329 398 1329 c 2
 123 1329 l 2
 101 1329 83 1322 70 1308 c 0
 57 1293 50 1275 50 1255 c 0
 50 1235 57 1218 70 1203 c 0
 83 1189 101 1182 123 1182 c 2
 389 1182 l 1
 389 1085 l 1
 275 1085 l 2
 252 1085 234 1078 221 1064 c 0
 208 1049 201 1032 201 1012 c 0
 201 992 208 975 221 960 c 0
 234 945 252 938 275 938 c 2
 389 938 l 1
 389 842 l 1
 123 842 l 2
 101 842 83 835 70 821 c 0
 57 806 50 788 50 768 c 0
 50 748 57 731 70 716 c 0
 83 701 100 694 123 694 c 2
 398 694 l 2
 433 694 465 709 494 738 c 0
 523 767 537 799 537 834 c 2
 537 946 l 2
1238 1192 m 2
 1252 1207 1259 1224 1259 1243 c 0
 1259 1263 1251 1281 1236 1296 c 0
 1221 1311 1203 1319 1183 1319 c 0
 1163 1319 1146 1311 1131 1294 c 2
 41 137 l 2
 27 122 20 105 20 86 c 0
 20 67 28 49 43 34 c 0
 58 18 76 10 96 10 c 0
 116 10 133 18 148 35 c 2
 1238 1192 l 2
1215 147 m 2
 1238 147 1256 154 1269 169 c 0
 1282 184 1289 201 1289 221 c 0
 1289 241 1282 259 1269 274 c 0
 1256 288 1238 295 1215 295 c 2
 1195 295 l 1
 1195 541 l 2
 1195 563 1188 581 1174 594 c 0
 1159 607 1141 614 1121 614 c 0
 1101 614 1084 607 1069 594 c 0
 1054 581 1047 564 1047 541 c 2
 1047 295 l 1
 857 295 l 1
 857 561 l 2
 857 584 850 602 836 615 c 0
 821 628 803 635 783 635 c 0
 763 635 746 628 731 615 c 0
 716 602 709 584 709 561 c 2
 709 221 l 2
 709 172 734 147 783 147 c 2
 1047 147 l 1
 1047 74 l 2
 1047 51 1054 33 1069 20 c 0
 1084 7 1101 0 1121 0 c 0
 1141 0 1159 7 1174 20 c 0
 1188 33 1195 51 1195 74 c 2
 1195 147 l 1
 1215 147 l 2
EndSplineSet
EndChar

StartChar: questiondown
Encoding: 191 191 128
Width: 1237
Flags: HMW
HStem: -362 1327<425.5 789.5>
VStem: 184 846<-144.5 169.5 -131 169.5>
LayerCount: 3
Fore
SplineSet
778 965 m 0
 755 965 735 957 719 941 c 0
 702 924 694 904 694 881 c 0
 694 857 702 837 719 820 c 0
 735 803 755 795 778 795 c 0
 801 795 821 803 838 820 c 0
 854 837 862 858 862 881 c 0
 862 904 854 924 838 941 c 0
 821 957 801 965 778 965 c 0
1008 96 m 2
 1023 109 1030 129 1030 157 c 0
 1030 182 1021 203 1004 219 c 0
 987 234 968 242 947 242 c 0
 925 242 904 234 885 217 c 2
 438 -166 l 1
 354 -90 l 1
 354 -29 l 1
 834 385 l 2
 851 400 860 423 860 453 c 2
 860 592 l 2
 860 615 852 634 836 651 c 0
 819 668 799 676 776 676 c 0
 753 676 734 668 717 651 c 0
 700 634 692 615 692 592 c 2
 692 487 l 1
 207 70 l 2
 192 57 184 37 184 12 c 2
 184 -131 l 2
 184 -158 194 -180 213 -195 c 2
 385 -344 l 2
 398 -356 415 -362 436 -362 c 0
 458 -362 477 -355 492 -342 c 2
 1008 96 l 2
EndSplineSet
EndChar

StartChar: Agrave
Encoding: 192 192 129
Width: 1237
Flags: HMW
HStem: 0 1693<279.5 476 458 984.5>
VStem: 207 846<74 88.5 72.5 90.5>
LayerCount: 3
Fore
SplineSet
212 117 m 2
 209 105 207 95 207 86 c 0
 207 62 215 42 231 25 c 0
 247 8 267 0 292 0 c 0
 309 0 325 5 340 15 c 0
 355 24 363 34 365 45 c 2
 439 289 l 1
 822 289 l 1
 890 61 l 2
 902 20 930 0 974 0 c 0
 995 0 1013 8 1029 25 c 0
 1045 41 1053 61 1053 84 c 0
 1053 93 1052 101 1049 109 c 2
 714 1276 l 2
 703 1311 677 1329 636 1329 c 0
 593 1329 565 1308 552 1266 c 2
 212 117 l 2
773 459 m 1
 490 459 l 1
 634 940 l 1
 773 459 l 1
507 1685 m 2
 494 1690 482 1693 470 1693 c 0
 446 1693 426 1684 411 1667 c 0
 396 1648 388 1628 388 1607 c 0
 388 1572 404 1547 435 1531 c 2
 740 1390 l 2
 753 1385 765 1382 777 1382 c 0
 802 1382 821 1391 836 1409 c 0
 851 1426 859 1446 859 1468 c 0
 859 1503 843 1528 812 1544 c 2
 507 1685 l 2
EndSplineSet
EndChar

StartChar: Aacute
Encoding: 193 193 130
Width: 1237
Flags: HMW
HStem: 0 1693<279.5 789 771 984.5>
VStem: 207 846<74 88.5 72.5 90.5>
LayerCount: 3
Fore
SplineSet
212 117 m 2
 209 105 207 95 207 86 c 0
 207 62 215 42 231 25 c 0
 247 8 267 0 292 0 c 0
 309 0 325 5 340 15 c 0
 355 24 363 34 365 45 c 2
 439 289 l 1
 822 289 l 1
 890 61 l 2
 902 20 930 0 974 0 c 0
 995 0 1013 8 1029 25 c 0
 1045 41 1053 61 1053 84 c 0
 1053 93 1052 101 1049 109 c 2
 714 1276 l 2
 703 1311 677 1329 636 1329 c 0
 593 1329 565 1308 552 1266 c 2
 212 117 l 2
773 459 m 1
 490 459 l 1
 634 940 l 1
 773 459 l 1
435 1544 m 2
 404 1529 388 1503 388 1468 c 0
 388 1446 396 1426 411 1409 c 0
 426 1391 446 1382 470 1382 c 0
 482 1382 494 1385 507 1390 c 2
 812 1531 l 2
 843 1546 859 1572 859 1607 c 0
 859 1628 851 1648 836 1667 c 0
 821 1684 801 1693 777 1693 c 0
 765 1693 753 1690 740 1685 c 2
 435 1544 l 2
EndSplineSet
EndChar

StartChar: Acircumflex
Encoding: 194 194 131
Width: 1237
Flags: HMW
HStem: 0 1693<279.5 629.5 618 984.5>
VStem: 207 846<74 88.5 72.5 90.5>
LayerCount: 3
Fore
SplineSet
212 117 m 2
 209 105 207 95 207 86 c 0
 207 62 215 42 231 25 c 0
 247 8 267 0 292 0 c 0
 309 0 325 5 340 15 c 0
 355 24 363 34 365 45 c 2
 439 289 l 1
 822 289 l 1
 890 61 l 2
 902 20 930 0 974 0 c 0
 995 0 1013 8 1029 25 c 0
 1045 41 1053 61 1053 84 c 0
 1053 93 1052 101 1049 109 c 2
 714 1276 l 2
 703 1311 677 1329 636 1329 c 0
 593 1329 565 1308 552 1266 c 2
 212 117 l 2
773 459 m 1
 490 459 l 1
 634 940 l 1
 773 459 l 1
894 1390 m 2
 907 1385 919 1382 930 1382 c 0
 954 1382 974 1391 990 1409 c 0
 1005 1426 1013 1446 1013 1468 c 0
 1013 1503 997 1528 966 1544 c 2
 660 1685 l 2
 648 1690 636 1693 623 1693 c 0
 613 1693 601 1690 587 1685 c 2
 281 1544 l 2
 250 1529 234 1503 234 1468 c 0
 234 1445 242 1426 258 1409 c 0
 273 1391 292 1382 317 1382 c 0
 329 1382 341 1385 353 1390 c 2
 623 1515 l 1
 894 1390 l 2
EndSplineSet
EndChar

StartChar: Atilde
Encoding: 195 195 132
Width: 1237
Flags: HMW
HStem: 0 1694<279.5 992.5 973.5 984.5>
VStem: 207 859
LayerCount: 3
Fore
SplineSet
212 117 m 2
 209 105 207 95 207 86 c 0
 207 62 215 42 231 25 c 0
 247 8 267 0 292 0 c 0
 309 0 325 5 340 15 c 0
 355 24 363 34 365 45 c 2
 439 289 l 1
 822 289 l 1
 890 61 l 2
 902 20 930 0 974 0 c 0
 995 0 1013 8 1029 25 c 0
 1045 41 1053 61 1053 84 c 0
 1053 93 1052 101 1049 109 c 2
 714 1276 l 2
 703 1311 677 1329 636 1329 c 0
 593 1329 565 1308 552 1266 c 2
 212 117 l 2
773 459 m 1
 490 459 l 1
 634 940 l 1
 773 459 l 1
1025 1536 m 2
 1052 1553 1066 1576 1066 1605 c 0
 1066 1629 1058 1650 1041 1667 c 0
 1024 1685 1004 1694 981 1694 c 0
 966 1694 950 1689 935 1680 c 2
 804 1600 l 1
 789 1600 l 1
 527 1688 l 2
 520 1691 511 1692 501 1692 c 2
 447 1692 l 2
 430 1692 415 1688 402 1680 c 2
 251 1588 l 2
 224 1571 210 1548 210 1519 c 0
 210 1495 218 1474 235 1457 c 0
 252 1439 271 1430 294 1430 c 0
 310 1430 326 1435 341 1444 c 2
 468 1522 l 1
 492 1522 l 1
 748 1436 l 2
 761 1432 770 1430 775 1430 c 2
 828 1430 l 2
 838 1430 853 1435 873 1444 c 2
 1025 1536 l 2
EndSplineSet
EndChar

StartChar: Adieresis
Encoding: 196 196 133
Width: 1237
Flags: HMW
HStem: 0 1695<275.5 977.5 954.5 977.5 954.5 980.5>
VStem: 203 847
LayerCount: 3
Fore
SplineSet
208 117 m 2
 205 105 203 95 203 86 c 0
 203 62 211 42 227 25 c 0
 243 8 263 0 288 0 c 0
 305 0 321 5 336 15 c 0
 351 24 359 34 361 45 c 2
 435 289 l 1
 818 289 l 1
 886 61 l 2
 898 20 926 0 970 0 c 0
 991 0 1009 8 1025 25 c 0
 1041 41 1049 61 1049 84 c 0
 1049 93 1048 101 1045 109 c 2
 710 1276 l 2
 699 1311 673 1329 632 1329 c 0
 589 1329 561 1308 548 1266 c 2
 208 117 l 2
769 459 m 1
 486 459 l 1
 630 940 l 1
 769 459 l 1
1050 1609 m 2
 1050 1633 1042 1653 1025 1670 c 0
 1008 1687 989 1695 966 1695 c 0
 943 1695 923 1687 907 1670 c 0
 890 1653 882 1633 882 1609 c 2
 882 1466 l 2
 882 1443 890 1423 906 1407 c 0
 922 1390 942 1382 966 1382 c 0
 989 1382 1009 1390 1026 1407 c 0
 1042 1423 1050 1443 1050 1466 c 2
 1050 1609 l 2
372 1609 m 2
 372 1632 364 1652 348 1669 c 0
 331 1685 311 1693 288 1693 c 0
 265 1693 245 1685 229 1669 c 0
 212 1652 204 1632 204 1609 c 2
 204 1466 l 2
 204 1443 212 1423 229 1407 c 0
 245 1390 265 1382 288 1382 c 0
 311 1382 331 1390 348 1407 c 0
 364 1423 372 1443 372 1466 c 2
 372 1609 l 2
EndSplineSet
EndChar

StartChar: Aring
Encoding: 197 197 134
Width: 1237
Flags: HMW
HStem: 1329 47<614.5 652 652 656.5> 1486 160<598.5 646 609 646 609 646>
VStem: 544 161<1542 1591 1535.5 1593 1535.5 1597.5>
LayerCount: 3
Fore
SplineSet
212 117 m 2
 209 105 207 95 207 86 c 0
 207 62 215 42 231 25 c 0
 247 8 267 0 292 0 c 0
 309 0 325 5 340 15 c 0
 355 24 363 34 365 45 c 2
 439 289 l 1
 822 289 l 1
 890 61 l 2
 902 20 930 0 974 0 c 0
 995 0 1013 8 1029 25 c 0
 1045 41 1053 61 1053 84 c 0
 1053 93 1052 101 1049 109 c 2
 714 1276 l 2
 703 1311 677 1329 636 1329 c 0
 593 1329 565 1308 552 1266 c 2
 212 117 l 2
773 459 m 1
 490 459 l 1
 634 940 l 1
 773 459 l 1
816 1603 m 2
 816 1640 798 1675 763 1708 c 0
 728 1741 691 1757 652 1757 c 2
 595 1757 l 2
 556 1757 519 1741 485 1709 c 0
 450 1676 433 1641 433 1603 c 2
 433 1529 l 2
 433 1491 451 1456 486 1424 c 0
 521 1392 557 1376 595 1376 c 2
 652 1376 l 2
 691 1376 728 1392 763 1425 c 0
 798 1457 816 1492 816 1529 c 2
 816 1603 l 2
705 1542 m 2
 705 1529 701 1520 693 1517 c 0
 674 1496 659 1486 646 1486 c 2
 603 1486 l 2
 594 1486 587 1489 580 1494 c 2
 556 1513 l 2
 548 1519 544 1529 544 1542 c 2
 544 1593 l 2
 544 1602 552 1614 567 1627 c 0
 582 1640 596 1646 609 1646 c 2
 646 1646 l 2
 653 1646 664 1640 681 1628 c 0
 697 1616 705 1604 705 1591 c 2
 705 1542 l 2
EndSplineSet
EndChar

StartChar: AE
Encoding: 198 198 135
Width: 1237
Flags: HMW
HStem: 170 121 461 121
VStem: 527 111<461 461>
LayerCount: 3
Fore
SplineSet
978 2 m 2
 1002 2 1022 10 1039 27 c 0
 1056 44 1064 63 1064 86 c 0
 1064 109 1056 129 1039 146 c 0
 1022 162 1002 170 978 170 c 2
 808 170 l 1
 808 582 l 1
 980 582 l 2
 1003 582 1023 590 1040 606 c 0
 1056 622 1064 642 1064 666 c 0
 1064 689 1056 709 1040 726 c 0
 1023 742 1003 750 980 750 c 2
 810 750 l 1
 810 1161 l 1
 980 1161 l 2
 1003 1161 1023 1169 1040 1186 c 0
 1056 1202 1064 1222 1064 1245 c 0
 1064 1268 1056 1288 1040 1305 c 0
 1023 1321 1003 1329 980 1329 c 2
 732 1329 l 2
 687 1329 657 1308 642 1266 c 2
 220 121 l 2
 215 110 213 98 213 86 c 0
 213 62 221 42 238 26 c 0
 255 10 275 2 298 2 c 0
 338 2 367 24 384 68 c 2
 464 291 l 1
 638 291 l 1
 638 86 l 2
 638 63 646 43 663 27 c 0
 680 10 700 2 724 2 c 2
 978 2 l 2
638 764 m 1
 638 461 l 1
 527 461 l 1
 638 764 l 1
EndSplineSet
EndChar

StartChar: Ccedilla
Encoding: 199 199 136
Width: 1237
Flags: HMW
HStem: -190 190<447.5 715 657 715 657 715>
VStem: 211 850<635.5 1256>
LayerCount: 3
Fore
SplineSet
715 -190 m 1
 715 -190 630 -190 459 -190 c 0
 436 -190 416 -198 400 -215 c 0
 383 -232 375 -252 375 -276 c 0
 375 -299 383 -318 400 -335 c 0
 417 -352 436 -360 459 -360 c 2
 799 -360 l 2
 822 -360 842 -352 859 -335 c 0
 875 -318 883 -298 883 -274 c 2
 883 0 l 1
 971 0 l 2
 995 0 1015 8 1032 25 c 0
 1049 41 1057 61 1057 84 c 0
 1057 107 1049 127 1032 144 c 0
 1015 160 994 168 971 168 c 2
 668 168 l 2
 631 168 603 186 586 221 c 2
 408 563 l 2
 392 593 384 628 384 667 c 0
 384 705 391 737 406 764 c 2
 592 1112 l 2
 609 1143 631 1159 657 1159 c 2
 977 1159 l 2
 1000 1159 1020 1168 1037 1185 c 0
 1053 1202 1061 1222 1061 1245 c 0
 1061 1267 1053 1287 1037 1304 c 0
 1020 1321 1000 1329 977 1329 c 2
 645 1329 l 2
 608 1329 570 1316 531 1290 c 0
 492 1263 463 1232 444 1198 c 2
 248 827 l 2
 223 782 211 727 211 664 c 0
 211 607 224 552 250 498 c 2
 444 123 l 2
 462 90 492 62 533 38 c 0
 576 13 618 0 657 0 c 2
 715 0 l 1
 715 -190 l 1
EndSplineSet
EndChar

StartChar: Egrave
Encoding: 200 200 137
Width: 1237
Flags: HMW
HStem: 1329 53<766 784 766 969>
VStem: 207 848<72.5 95.5 1231.5 1255 0 95.5>
LayerCount: 3
Fore
SplineSet
969 1159 m 2
 993 1159 1013 1167 1030 1184 c 0
 1047 1201 1055 1220 1055 1243 c 0
 1055 1267 1047 1287 1030 1304 c 0
 1013 1321 993 1329 969 1329 c 2
 207 1329 l 1
 207 0 l 1
 969 0 l 2
 993 0 1013 8 1030 25 c 0
 1047 41 1055 61 1055 84 c 0
 1055 107 1047 127 1030 144 c 0
 1013 160 993 168 971 168 c 2
 375 168 l 1
 375 580 l 1
 631 580 l 2
 654 580 674 588 691 605 c 0
 707 622 715 642 715 666 c 0
 715 689 707 708 690 725 c 0
 673 742 654 750 631 750 c 2
 375 750 l 1
 375 1159 l 1
 969 1159 l 2
502 1685 m 2
 489 1690 477 1693 465 1693 c 0
 441 1693 421 1684 406 1667 c 0
 391 1648 383 1628 383 1607 c 0
 383 1572 399 1547 430 1531 c 2
 735 1390 l 2
 748 1385 760 1382 772 1382 c 0
 796 1382 816 1391 831 1409 c 0
 846 1426 854 1446 854 1468 c 0
 854 1503 838 1528 807 1544 c 2
 502 1685 l 2
EndSplineSet
EndChar

StartChar: Eacute
Encoding: 201 201 138
Width: 1237
Flags: HMW
HStem: 1329 53<452.5 471 452.5 969>
VStem: 207 848<72.5 95.5 1231.5 1255 0 95.5>
LayerCount: 3
Fore
SplineSet
969 1159 m 2
 993 1159 1013 1167 1030 1184 c 0
 1047 1201 1055 1220 1055 1243 c 0
 1055 1267 1047 1287 1030 1304 c 0
 1013 1321 993 1329 969 1329 c 2
 207 1329 l 1
 207 0 l 1
 969 0 l 2
 993 0 1013 8 1030 25 c 0
 1047 41 1055 61 1055 84 c 0
 1055 107 1047 127 1030 144 c 0
 1013 160 993 168 971 168 c 2
 375 168 l 1
 375 580 l 1
 631 580 l 2
 654 580 674 588 691 605 c 0
 707 622 715 642 715 666 c 0
 715 689 707 708 690 725 c 0
 673 742 654 750 631 750 c 2
 375 750 l 1
 375 1159 l 1
 969 1159 l 2
430 1544 m 2
 399 1529 383 1503 383 1468 c 0
 383 1446 391 1426 406 1409 c 0
 421 1391 440 1382 465 1382 c 0
 477 1382 489 1385 502 1390 c 2
 807 1531 l 2
 838 1546 854 1572 854 1607 c 0
 854 1628 846 1648 831 1667 c 0
 816 1684 796 1693 772 1693 c 0
 760 1693 748 1690 735 1685 c 2
 430 1544 l 2
EndSplineSet
EndChar

StartChar: Ecircumflex
Encoding: 202 202 139
Width: 1237
Flags: HMW
HStem: 1329 53<300 318 919.5 937>
VStem: 207 848<72.5 95.5 1231.5 1255 0 95.5>
LayerCount: 3
Fore
SplineSet
969 1159 m 2
 993 1159 1013 1167 1030 1184 c 0
 1047 1201 1055 1220 1055 1243 c 0
 1055 1267 1047 1287 1030 1304 c 0
 1013 1321 993 1329 969 1329 c 2
 207 1329 l 1
 207 0 l 1
 969 0 l 2
 993 0 1013 8 1030 25 c 0
 1047 41 1055 61 1055 84 c 0
 1055 107 1047 127 1030 144 c 0
 1013 160 993 168 971 168 c 2
 375 168 l 1
 375 580 l 1
 631 580 l 2
 654 580 674 588 691 605 c 0
 707 622 715 642 715 666 c 0
 715 689 707 708 690 725 c 0
 673 742 654 750 631 750 c 2
 375 750 l 1
 375 1159 l 1
 969 1159 l 2
889 1390 m 2
 902 1385 914 1382 925 1382 c 0
 949 1382 969 1391 985 1409 c 0
 1000 1426 1008 1446 1008 1468 c 0
 1008 1503 992 1528 961 1544 c 2
 655 1685 l 2
 643 1690 631 1693 618 1693 c 0
 608 1693 596 1690 582 1685 c 2
 276 1544 l 2
 245 1529 229 1503 229 1468 c 0
 229 1445 237 1426 253 1409 c 0
 268 1391 288 1382 312 1382 c 0
 324 1382 336 1385 348 1390 c 2
 618 1515 l 1
 889 1390 l 2
EndSplineSet
EndChar

StartChar: Edieresis
Encoding: 203 203 140
Width: 1237
Flags: HMW
HStem: 1329 53<275.5 298.5 953 969>
VStem: 203 852
LayerCount: 3
Fore
SplineSet
969 1159 m 2
 993 1159 1013 1167 1030 1184 c 0
 1047 1201 1055 1220 1055 1243 c 0
 1055 1267 1047 1287 1030 1304 c 0
 1013 1321 993 1329 969 1329 c 2
 207 1329 l 1
 207 0 l 1
 969 0 l 2
 993 0 1013 8 1030 25 c 0
 1047 41 1055 61 1055 84 c 0
 1055 107 1047 127 1030 144 c 0
 1013 160 993 168 971 168 c 2
 375 168 l 1
 375 580 l 1
 631 580 l 2
 654 580 674 588 691 605 c 0
 707 622 715 642 715 666 c 0
 715 689 707 708 690 725 c 0
 673 742 654 750 631 750 c 2
 375 750 l 1
 375 1159 l 1
 969 1159 l 2
1049 1609 m 2
 1049 1633 1041 1653 1024 1670 c 0
 1007 1687 988 1695 965 1695 c 0
 942 1695 922 1687 906 1670 c 0
 889 1653 881 1633 881 1609 c 2
 881 1466 l 2
 881 1443 889 1423 905 1407 c 0
 921 1390 941 1382 965 1382 c 0
 988 1382 1008 1390 1025 1407 c 0
 1041 1423 1049 1443 1049 1466 c 2
 1049 1609 l 2
371 1609 m 2
 371 1632 363 1652 347 1669 c 0
 330 1685 310 1693 287 1693 c 0
 264 1693 244 1685 228 1669 c 0
 211 1652 203 1632 203 1609 c 2
 203 1466 l 2
 203 1443 211 1423 228 1407 c 0
 244 1390 264 1382 287 1382 c 0
 310 1382 330 1390 347 1407 c 0
 363 1423 371 1443 371 1466 c 2
 371 1609 l 2
EndSplineSet
EndChar

StartChar: Igrave
Encoding: 204 204 141
Width: 1237
Flags: HMW
HStem: 1329 53<766 784 766 969>
VStem: 205 848<72.5 95.5 1233.5 1255>
LayerCount: 3
Fore
SplineSet
289 1329 m 2
 266 1329 246 1321 230 1304 c 0
 213 1287 205 1267 205 1243 c 0
 205 1220 213 1201 230 1184 c 0
 246 1167 266 1159 289 1159 c 2
 547 1159 l 1
 547 168 l 1
 289 168 l 2
 266 168 246 160 230 144 c 0
 213 127 205 107 205 84 c 0
 205 61 213 41 230 25 c 0
 246 8 266 0 289 0 c 2
 969 0 l 2
 992 0 1011 8 1028 25 c 0
 1045 41 1053 61 1053 84 c 0
 1053 107 1045 127 1029 144 c 0
 1012 160 992 168 969 168 c 2
 715 168 l 1
 715 1159 l 1
 969 1159 l 2
 991 1159 1011 1168 1028 1185 c 0
 1045 1202 1053 1222 1053 1245 c 0
 1053 1268 1045 1287 1028 1304 c 0
 1011 1321 992 1329 969 1329 c 2
 289 1329 l 2
502 1685 m 2
 489 1690 477 1693 465 1693 c 0
 441 1693 421 1684 406 1667 c 0
 391 1648 383 1628 383 1607 c 0
 383 1572 399 1547 430 1531 c 2
 735 1390 l 2
 748 1385 760 1382 772 1382 c 0
 796 1382 816 1391 831 1409 c 0
 846 1426 854 1446 854 1468 c 0
 854 1503 838 1528 807 1544 c 2
 502 1685 l 2
EndSplineSet
EndChar

StartChar: Iacute
Encoding: 205 205 142
Width: 1237
Flags: HMW
HStem: 1329 53<452.5 471 452.5 969>
VStem: 205 848<72.5 95.5 1233.5 1255>
LayerCount: 3
Fore
SplineSet
289 1329 m 2
 266 1329 246 1321 230 1304 c 0
 213 1287 205 1267 205 1243 c 0
 205 1220 213 1201 230 1184 c 0
 246 1167 266 1159 289 1159 c 2
 547 1159 l 1
 547 168 l 1
 289 168 l 2
 266 168 246 160 230 144 c 0
 213 127 205 107 205 84 c 0
 205 61 213 41 230 25 c 0
 246 8 266 0 289 0 c 2
 969 0 l 2
 992 0 1011 8 1028 25 c 0
 1045 41 1053 61 1053 84 c 0
 1053 107 1045 127 1029 144 c 0
 1012 160 992 168 969 168 c 2
 715 168 l 1
 715 1159 l 1
 969 1159 l 2
 991 1159 1011 1168 1028 1185 c 0
 1045 1202 1053 1222 1053 1245 c 0
 1053 1268 1045 1287 1028 1304 c 0
 1011 1321 992 1329 969 1329 c 2
 289 1329 l 2
430 1544 m 2
 399 1529 383 1503 383 1468 c 0
 383 1446 391 1426 406 1409 c 0
 421 1391 440 1382 465 1382 c 0
 477 1382 489 1385 502 1390 c 2
 807 1531 l 2
 838 1546 854 1572 854 1607 c 0
 854 1628 846 1648 831 1667 c 0
 816 1684 796 1693 772 1693 c 0
 760 1693 748 1690 735 1685 c 2
 430 1544 l 2
EndSplineSet
EndChar

StartChar: Icircumflex
Encoding: 206 206 143
Width: 1237
Flags: HMW
HStem: 1329 53<277.5 318 300 318 919.5 937>
VStem: 205 848<72.5 95.5 1233.5 1255>
LayerCount: 3
Fore
SplineSet
289 1329 m 2
 266 1329 246 1321 230 1304 c 0
 213 1287 205 1267 205 1243 c 0
 205 1220 213 1201 230 1184 c 0
 246 1167 266 1159 289 1159 c 2
 547 1159 l 1
 547 168 l 1
 289 168 l 2
 266 168 246 160 230 144 c 0
 213 127 205 107 205 84 c 0
 205 61 213 41 230 25 c 0
 246 8 266 0 289 0 c 2
 969 0 l 2
 992 0 1011 8 1028 25 c 0
 1045 41 1053 61 1053 84 c 0
 1053 107 1045 127 1029 144 c 0
 1012 160 992 168 969 168 c 2
 715 168 l 1
 715 1159 l 1
 969 1159 l 2
 991 1159 1011 1168 1028 1185 c 0
 1045 1202 1053 1222 1053 1245 c 0
 1053 1268 1045 1287 1028 1304 c 0
 1011 1321 992 1329 969 1329 c 2
 289 1329 l 2
889 1390 m 2
 902 1385 914 1382 925 1382 c 0
 949 1382 969 1391 985 1409 c 0
 1000 1426 1008 1446 1008 1468 c 0
 1008 1503 992 1528 961 1544 c 2
 655 1685 l 2
 643 1690 631 1693 618 1693 c 0
 608 1693 596 1690 582 1685 c 2
 276 1544 l 2
 245 1529 229 1503 229 1468 c 0
 229 1445 237 1426 253 1409 c 0
 268 1391 288 1382 312 1382 c 0
 324 1382 336 1385 348 1390 c 2
 618 1515 l 1
 889 1390 l 2
EndSplineSet
EndChar

StartChar: Idieresis
Encoding: 207 207 144
Width: 1237
Flags: HMW
HStem: 1329 53<277.5 289 289 298.5 953 969>
VStem: 203 850
LayerCount: 3
Fore
SplineSet
289 1329 m 2
 266 1329 246 1321 230 1304 c 0
 213 1287 205 1267 205 1243 c 0
 205 1220 213 1201 230 1184 c 0
 246 1167 266 1159 289 1159 c 2
 547 1159 l 1
 547 168 l 1
 289 168 l 2
 266 168 246 160 230 144 c 0
 213 127 205 107 205 84 c 0
 205 61 213 41 230 25 c 0
 246 8 266 0 289 0 c 2
 969 0 l 2
 992 0 1011 8 1028 25 c 0
 1045 41 1053 61 1053 84 c 0
 1053 107 1045 127 1029 144 c 0
 1012 160 992 168 969 168 c 2
 715 168 l 1
 715 1159 l 1
 969 1159 l 2
 991 1159 1011 1168 1028 1185 c 0
 1045 1202 1053 1222 1053 1245 c 0
 1053 1268 1045 1287 1028 1304 c 0
 1011 1321 992 1329 969 1329 c 2
 289 1329 l 2
1049 1609 m 2
 1049 1633 1041 1653 1024 1670 c 0
 1007 1687 988 1695 965 1695 c 0
 942 1695 922 1687 906 1670 c 0
 889 1653 881 1633 881 1609 c 2
 881 1466 l 2
 881 1443 889 1423 905 1407 c 0
 921 1390 941 1382 965 1382 c 0
 988 1382 1008 1390 1025 1407 c 0
 1041 1423 1049 1443 1049 1466 c 2
 1049 1609 l 2
371 1609 m 2
 371 1632 363 1652 347 1669 c 0
 330 1685 310 1693 287 1693 c 0
 264 1693 244 1685 228 1669 c 0
 211 1652 203 1632 203 1609 c 2
 203 1466 l 2
 203 1443 211 1423 228 1407 c 0
 244 1390 264 1382 287 1382 c 0
 310 1382 330 1390 347 1407 c 0
 363 1423 371 1443 371 1466 c 2
 371 1609 l 2
EndSplineSet
EndChar

StartChar: Eth
Encoding: 208 208 145
Width: 1237
Flags: HMW
HStem: 0 1329<287 289 289 608 608 621 277.5 632.5>
VStem: 203 848<72.5 694.5 656.5 679.5> 713 170<656.5 679.5>
LayerCount: 3
Fore
SplineSet
375 752 m 1xc0
 375 752 346 752 287 752 c 0
 264 752 245 744 228 727 c 0
 211 710 203 691 203 668 c 0
 203 645 211 625 228 609 c 0
 245 592 264 584 287 584 c 2
 375 584 l 1
 375 170 l 1
 287 170 l 2
 264 170 244 162 228 145 c 0
 211 128 203 108 203 84 c 0
 203 61 211 42 228 25 c 0
 244 8 264 0 287 0 c 2
 608 0 l 2
 657 0 702 13 742 39 c 0
 783 64 813 98 834 141 c 2
 1001 473 l 2
 1034 538 1051 601 1051 662 c 0
 1051 727 1035 791 1004 852 c 2
 838 1188 l 2
 819 1227 789 1260 748 1287 c 0
 707 1314 665 1328 621 1329 c 2
 289 1329 l 2
 266 1329 246 1321 230 1304 c 0
 213 1287 205 1268 205 1245 c 0
 205 1222 213 1202 230 1185 c 0
 246 1168 266 1159 289 1159 c 2
 375 1159 l 1
 375 752 l 1xc0
543 584 m 1
 627 584 l 2
 651 584 671 592 688 609 c 0
 705 625 713 645 713 668 c 0
 713 691 705 711 688 728 c 0
 671 744 650 752 627 752 c 2
 543 752 l 1
 543 1159 l 1
 598 1159 l 2
 639 1159 668 1142 686 1108 c 2
 858 766 l 2
 875 733 883 699 883 662 c 0
 883 631 873 595 852 553 c 2xa0
 686 223 l 2
 667 186 639 168 602 168 c 2
 543 168 l 1
 543 584 l 1
EndSplineSet
EndChar

StartChar: Ntilde
Encoding: 209 209 146
Width: 1237
Flags: HMW
HStem: 1329 101<280 299 280 432 209 299>
VStem: 207 856<1507 1617>
LayerCount: 3
Fore
SplineSet
1055 1243 m 2
 1055 1266 1047 1287 1031 1304 c 0
 1014 1321 994 1329 971 1329 c 0
 948 1329 928 1321 911 1304 c 0
 894 1287 885 1266 885 1243 c 2
 885 299 l 1
 432 1329 l 1
 209 1329 l 1
 209 84 l 2
 209 61 217 41 234 25 c 0
 250 8 270 0 293 0 c 0
 316 0 336 8 353 25 c 0
 369 41 377 61 377 84 c 2
 377 1032 l 1
 829 0 l 1
 1055 0 l 1
 1055 1243 l 2
1022 1536 m 2
 1049 1553 1063 1576 1063 1605 c 0
 1063 1629 1055 1650 1038 1667 c 0
 1021 1685 1001 1694 978 1694 c 0
 963 1694 947 1689 932 1680 c 2
 801 1600 l 1
 786 1600 l 1
 524 1688 l 2
 517 1691 508 1692 498 1692 c 2
 444 1692 l 2
 427 1692 412 1688 399 1680 c 2
 248 1588 l 2
 221 1571 207 1548 207 1519 c 0
 207 1495 215 1474 232 1457 c 0
 249 1439 269 1430 291 1430 c 0
 307 1430 323 1435 338 1444 c 2
 465 1522 l 1
 489 1522 l 1
 745 1436 l 2
 758 1432 767 1430 772 1430 c 2
 825 1430 l 2
 835 1430 850 1435 870 1444 c 2
 1022 1536 l 2
EndSplineSet
EndChar

StartChar: Ograve
Encoding: 210 210 147
Width: 1237
Flags: HMW
HStem: 0 1693<453 676>
VStem: 205 848<632.5 692 632.5 693.5>
LayerCount: 3
Fore
SplineSet
829 1206 m 2
 789 1288 722 1329 629 1329 c 0
 537 1329 470 1288 428 1206 c 2
 242 829 l 2
 217 780 205 725 205 662 c 0
 205 600 217 545 242 496 c 2
 428 123 l 2
 447 87 474 58 509 35 c 0
 544 12 584 0 629 0 c 0
 723 0 790 41 829 123 c 2
 1014 496 l 2
 1040 548 1053 603 1053 662 c 0
 1053 722 1040 778 1014 829 c 2
 829 1206 l 2
573 1122 m 2
 586 1148 604 1161 629 1161 c 0
 654 1161 671 1148 682 1122 c 2
 858 768 l 2
 875 735 883 701 883 664 c 0
 883 628 875 593 858 559 c 2
 678 201 l 2
 667 179 651 168 629 168 c 0
 604 168 587 179 578 201 c 2
 399 559 l 2
 383 592 375 627 375 664 c 0
 375 699 383 733 399 768 c 2
 573 1122 l 2
502 1685 m 2
 489 1690 477 1693 465 1693 c 0
 441 1693 421 1684 406 1667 c 0
 391 1648 383 1628 383 1607 c 0
 383 1572 399 1547 430 1531 c 2
 735 1390 l 2
 748 1385 760 1382 772 1382 c 0
 796 1382 816 1391 831 1409 c 0
 846 1426 854 1446 854 1468 c 0
 854 1503 838 1528 807 1544 c 2
 502 1685 l 2
EndSplineSet
EndChar

StartChar: Oacute
Encoding: 211 211 148
Width: 1237
Flags: HMW
HStem: 0 1693<606.5 784>
VStem: 205 848<632.5 692 632.5 693.5>
LayerCount: 3
Fore
SplineSet
829 1206 m 2
 789 1288 722 1329 629 1329 c 0
 537 1329 470 1288 428 1206 c 2
 242 829 l 2
 217 780 205 725 205 662 c 0
 205 600 217 545 242 496 c 2
 428 123 l 2
 447 87 474 58 509 35 c 0
 544 12 584 0 629 0 c 0
 723 0 790 41 829 123 c 2
 1014 496 l 2
 1040 548 1053 603 1053 662 c 0
 1053 722 1040 778 1014 829 c 2
 829 1206 l 2
573 1122 m 2
 586 1148 604 1161 629 1161 c 0
 654 1161 671 1148 682 1122 c 2
 858 768 l 2
 875 735 883 701 883 664 c 0
 883 628 875 593 858 559 c 2
 678 201 l 2
 667 179 651 168 629 168 c 0
 604 168 587 179 578 201 c 2
 399 559 l 2
 383 592 375 627 375 664 c 0
 375 699 383 733 399 768 c 2
 573 1122 l 2
430 1544 m 2
 399 1529 383 1503 383 1468 c 0
 383 1446 391 1426 406 1409 c 0
 421 1391 440 1382 465 1382 c 0
 477 1382 489 1385 502 1390 c 2
 807 1531 l 2
 838 1546 854 1572 854 1607 c 0
 854 1628 846 1648 831 1667 c 0
 816 1684 796 1693 772 1693 c 0
 760 1693 748 1690 735 1685 c 2
 430 1544 l 2
EndSplineSet
EndChar

StartChar: Ocircumflex
Encoding: 212 212 149
Width: 1237
Flags: HMW
HStem: 0 1693<613 624.5 613 676>
VStem: 205 848<632.5 692 632.5 693.5>
LayerCount: 3
Fore
SplineSet
829 1206 m 2
 789 1288 722 1329 629 1329 c 0
 537 1329 470 1288 428 1206 c 2
 242 829 l 2
 217 780 205 725 205 662 c 0
 205 600 217 545 242 496 c 2
 428 123 l 2
 447 87 474 58 509 35 c 0
 544 12 584 0 629 0 c 0
 723 0 790 41 829 123 c 2
 1014 496 l 2
 1040 548 1053 603 1053 662 c 0
 1053 722 1040 778 1014 829 c 2
 829 1206 l 2
573 1122 m 2
 586 1148 604 1161 629 1161 c 0
 654 1161 671 1148 682 1122 c 2
 858 768 l 2
 875 735 883 701 883 664 c 0
 883 628 875 593 858 559 c 2
 678 201 l 2
 667 179 651 168 629 168 c 0
 604 168 587 179 578 201 c 2
 399 559 l 2
 383 592 375 627 375 664 c 0
 375 699 383 733 399 768 c 2
 573 1122 l 2
889 1390 m 2
 902 1385 914 1382 925 1382 c 0
 949 1382 969 1391 985 1409 c 0
 1000 1426 1008 1446 1008 1468 c 0
 1008 1503 992 1528 961 1544 c 2
 655 1685 l 2
 643 1690 631 1693 618 1693 c 0
 608 1693 596 1690 582 1685 c 2
 276 1544 l 2
 245 1529 229 1503 229 1468 c 0
 229 1445 237 1426 253 1409 c 0
 268 1391 288 1382 312 1382 c 0
 324 1382 336 1385 348 1390 c 2
 618 1515 l 1
 889 1390 l 2
EndSplineSet
EndChar

StartChar: Otilde
Encoding: 213 213 150
Width: 1237
Flags: HMW
HStem: 0 1694<606.5 987.5>
VStem: 205 856<1507 1617>
LayerCount: 3
Fore
SplineSet
829 1206 m 2
 789 1288 722 1329 629 1329 c 0
 537 1329 470 1288 428 1206 c 2
 242 829 l 2
 217 780 205 725 205 662 c 0
 205 600 217 545 242 496 c 2
 428 123 l 2
 447 87 474 58 509 35 c 0
 544 12 584 0 629 0 c 0
 723 0 790 41 829 123 c 2
 1014 496 l 2
 1040 548 1053 603 1053 662 c 0
 1053 722 1040 778 1014 829 c 2
 829 1206 l 2
573 1122 m 2
 586 1148 604 1161 629 1161 c 0
 654 1161 671 1148 682 1122 c 2
 858 768 l 2
 875 735 883 701 883 664 c 0
 883 628 875 593 858 559 c 2
 678 201 l 2
 667 179 651 168 629 168 c 0
 604 168 587 179 578 201 c 2
 399 559 l 2
 383 592 375 627 375 664 c 0
 375 699 383 733 399 768 c 2
 573 1122 l 2
1020 1536 m 2
 1047 1553 1061 1576 1061 1605 c 0
 1061 1629 1053 1650 1036 1667 c 0
 1019 1685 999 1694 976 1694 c 0
 961 1694 945 1689 930 1680 c 2
 799 1600 l 1
 784 1600 l 1
 522 1688 l 2
 515 1691 506 1692 496 1692 c 2
 442 1692 l 2
 425 1692 410 1688 397 1680 c 2
 246 1588 l 2
 219 1571 205 1548 205 1519 c 0
 205 1495 213 1474 230 1457 c 0
 247 1439 267 1430 289 1430 c 0
 305 1430 321 1435 336 1444 c 2
 463 1522 l 1
 487 1522 l 1
 743 1436 l 2
 756 1432 765 1430 770 1430 c 2
 823 1430 l 2
 833 1430 848 1435 868 1444 c 2
 1020 1536 l 2
EndSplineSet
EndChar

StartChar: Odieresis
Encoding: 214 214 151
Width: 1237
Flags: HMW
HStem: 0 1695<606.5 976.5>
VStem: 203 850<632.5 1466 632.5 1609>
LayerCount: 3
Fore
SplineSet
829 1206 m 2
 789 1288 722 1329 629 1329 c 0
 537 1329 470 1288 428 1206 c 2
 242 829 l 2
 217 780 205 725 205 662 c 0
 205 600 217 545 242 496 c 2
 428 123 l 2
 447 87 474 58 509 35 c 0
 544 12 584 0 629 0 c 0
 723 0 790 41 829 123 c 2
 1014 496 l 2
 1040 548 1053 603 1053 662 c 0
 1053 722 1040 778 1014 829 c 2
 829 1206 l 2
573 1122 m 2
 586 1148 604 1161 629 1161 c 0
 654 1161 671 1148 682 1122 c 2
 858 768 l 2
 875 735 883 701 883 664 c 0
 883 628 875 593 858 559 c 2
 678 201 l 2
 667 179 651 168 629 168 c 0
 604 168 587 179 578 201 c 2
 399 559 l 2
 383 592 375 627 375 664 c 0
 375 699 383 733 399 768 c 2
 573 1122 l 2
1049 1609 m 2
 1049 1633 1041 1653 1024 1670 c 0
 1007 1687 988 1695 965 1695 c 0
 942 1695 922 1687 906 1670 c 0
 889 1653 881 1633 881 1609 c 2
 881 1466 l 2
 881 1443 889 1423 905 1407 c 0
 921 1390 941 1382 965 1382 c 0
 988 1382 1008 1390 1025 1407 c 0
 1041 1423 1049 1443 1049 1466 c 2
 1049 1609 l 2
371 1609 m 2
 371 1632 363 1652 347 1669 c 0
 330 1685 310 1693 287 1693 c 0
 264 1693 244 1685 228 1669 c 0
 211 1652 203 1632 203 1609 c 2
 203 1466 l 2
 203 1443 211 1423 228 1407 c 0
 244 1390 264 1382 287 1382 c 0
 310 1382 330 1390 347 1407 c 0
 363 1423 371 1443 371 1466 c 2
 371 1609 l 2
EndSplineSet
EndChar

StartChar: multiply
Encoding: 215 215 152
Width: 1237
Flags: HMW
HStem: 296 741<917 939.5>
VStem: 272 741<370.5 393.5>
LayerCount: 3
Fore
SplineSet
987 893 m 2
 1004 910 1012 930 1012 954 c 0
 1012 975 1004 995 988 1012 c 0
 972 1029 952 1037 929 1037 c 0
 905 1037 885 1029 868 1012 c 2
 642 786 l 1
 417 1014 l 2
 402 1029 382 1037 359 1037 c 0
 336 1037 316 1029 299 1012 c 0
 282 995 273 974 273 950 c 0
 273 929 281 910 296 893 c 2
 522 668 l 1
 296 440 l 2
 280 424 272 405 272 382 c 0
 272 359 280 340 296 323 c 0
 311 306 330 298 355 298 c 0
 378 298 398 306 415 322 c 2
 640 549 l 1
 868 322 l 2
 885 305 905 296 928 296 c 0
 951 296 971 305 988 322 c 0
 1005 339 1013 359 1013 382 c 0
 1013 406 1004 426 987 442 c 2
 761 668 l 1
 987 893 l 2
EndSplineSet
EndChar

StartChar: Oslash
Encoding: 216 216 153
Width: 1237
Flags: HMW
HStem: 2 1329<629 669 629 670.5>
VStem: 223 847<75.5 692.5 638 692.5 632.5 699.5>
LayerCount: 3
Fore
SplineSet
263 840 m 2
 236 787 223 730 223 669 c 0
 223 607 237 548 265 492 c 2
 347 324 l 1
 240 143 l 2
 229 124 223 105 223 87 c 0
 223 64 232 44 250 28 c 0
 267 11 287 3 309 3 c 0
 340 3 365 17 382 45 c 2
 439 143 l 1
 456 100 484 65 523 40 c 0
 562 15 605 2 652 2 c 0
 689 2 725 12 760 33 c 0
 795 54 822 84 842 125 c 2
 1037 510 l 2
 1059 553 1070 603 1070 662 c 0
 1070 723 1058 777 1035 825 c 2
 943 1010 l 1
 1049 1190 l 2
 1062 1211 1068 1231 1068 1250 c 0
 1068 1270 1060 1289 1044 1306 c 0
 1028 1323 1008 1331 984 1331 c 0
 953 1331 928 1316 910 1286 c 2
 853 1192 l 1
 833 1239 804 1274 765 1297 c 0
 726 1320 688 1331 650 1331 c 0
 608 1331 569 1320 532 1299 c 0
 495 1278 468 1250 451 1214 c 2
 263 840 l 2
595 1122 m 2
 608 1149 626 1163 648 1163 c 0
 669 1163 685 1151 697 1126 c 2
 752 1014 l 1
 451 502 l 1
 412 567 392 623 392 672 c 0
 392 699 399 728 412 758 c 2
 595 1122 l 2
838 831 m 1
 880 767 901 709 901 656 c 0
 901 627 894 600 881 573 c 2
 697 211 l 2
 684 186 667 173 648 173 c 0
 623 173 605 186 592 213 c 2
 541 319 l 1
 838 831 l 1
EndSplineSet
EndChar

StartChar: Ugrave
Encoding: 217 217 154
Width: 1237
Flags: HMW
HStem: 0 1693<457 471 453 801 453 835.5>
VStem: 205 848<217.5 1243 254 1243 254 1243>
LayerCount: 3
Fore
SplineSet
205 252 m 2
 205 183 230 123 279 74 c 0
 328 25 388 0 457 0 c 2
 801 0 l 2
 870 0 929 25 979 75 c 0
 1028 126 1053 185 1053 254 c 2
 1053 1243 l 2
 1053 1266 1045 1287 1029 1304 c 0
 1012 1321 992 1329 969 1329 c 0
 946 1329 926 1321 910 1304 c 0
 893 1287 885 1267 885 1243 c 2
 885 252 l 2
 885 229 877 210 861 194 c 0
 844 178 824 170 801 170 c 2
 457 170 l 2
 434 170 415 178 398 195 c 0
 381 211 373 230 373 252 c 2
 373 1245 l 2
 373 1268 365 1287 348 1304 c 0
 331 1321 312 1329 289 1329 c 0
 266 1329 247 1321 230 1304 c 0
 213 1287 205 1267 205 1243 c 2
 205 252 l 2
502 1685 m 2
 489 1690 477 1693 465 1693 c 0
 441 1693 421 1684 406 1667 c 0
 391 1648 383 1628 383 1607 c 0
 383 1572 399 1547 430 1531 c 2
 735 1390 l 2
 748 1385 760 1382 772 1382 c 0
 796 1382 816 1391 831 1409 c 0
 846 1426 854 1446 854 1468 c 0
 854 1503 838 1528 807 1544 c 2
 502 1685 l 2
EndSplineSet
EndChar

StartChar: Uacute
Encoding: 218 218 155
Width: 1237
Flags: HMW
HStem: 0 1693<766 784 766 801 766 835.5>
VStem: 205 848<217.5 1243 254 1243 254 1243>
LayerCount: 3
Fore
SplineSet
205 252 m 2
 205 183 230 123 279 74 c 0
 328 25 388 0 457 0 c 2
 801 0 l 2
 870 0 929 25 979 75 c 0
 1028 126 1053 185 1053 254 c 2
 1053 1243 l 2
 1053 1266 1045 1287 1029 1304 c 0
 1012 1321 992 1329 969 1329 c 0
 946 1329 926 1321 910 1304 c 0
 893 1287 885 1267 885 1243 c 2
 885 252 l 2
 885 229 877 210 861 194 c 0
 844 178 824 170 801 170 c 2
 457 170 l 2
 434 170 415 178 398 195 c 0
 381 211 373 230 373 252 c 2
 373 1245 l 2
 373 1268 365 1287 348 1304 c 0
 331 1321 312 1329 289 1329 c 0
 266 1329 247 1321 230 1304 c 0
 213 1287 205 1267 205 1243 c 2
 205 252 l 2
430 1544 m 2
 399 1529 383 1503 383 1468 c 0
 383 1446 391 1426 406 1409 c 0
 421 1391 440 1382 465 1382 c 0
 477 1382 489 1385 502 1390 c 2
 807 1531 l 2
 838 1546 854 1572 854 1607 c 0
 854 1628 846 1648 831 1667 c 0
 816 1684 796 1693 772 1693 c 0
 760 1693 748 1690 735 1685 c 2
 430 1544 l 2
EndSplineSet
EndChar

StartChar: Ucircumflex
Encoding: 219 219 156
Width: 1237
Flags: HMW
HStem: 1329 53<300 300.5>
VStem: 205 848<217.5 1243 254 1243 254 1243>
LayerCount: 3
Fore
SplineSet
205 252 m 2
 205 183 230 123 279 74 c 0
 328 25 388 0 457 0 c 2
 801 0 l 2
 870 0 929 25 979 75 c 0
 1028 126 1053 185 1053 254 c 2
 1053 1243 l 2
 1053 1266 1045 1287 1029 1304 c 0
 1012 1321 992 1329 969 1329 c 0
 946 1329 926 1321 910 1304 c 0
 893 1287 885 1267 885 1243 c 2
 885 252 l 2
 885 229 877 210 861 194 c 0
 844 178 824 170 801 170 c 2
 457 170 l 2
 434 170 415 178 398 195 c 0
 381 211 373 230 373 252 c 2
 373 1245 l 2
 373 1268 365 1287 348 1304 c 0
 331 1321 312 1329 289 1329 c 0
 266 1329 247 1321 230 1304 c 0
 213 1287 205 1267 205 1243 c 2
 205 252 l 2
889 1390 m 2
 902 1385 914 1382 925 1382 c 0
 949 1382 969 1391 985 1409 c 0
 1000 1426 1008 1446 1008 1468 c 0
 1008 1503 992 1528 961 1544 c 2
 655 1685 l 2
 643 1690 631 1693 618 1693 c 0
 608 1693 596 1690 582 1685 c 2
 276 1544 l 2
 245 1529 229 1503 229 1468 c 0
 229 1445 237 1426 253 1409 c 0
 268 1391 288 1382 312 1382 c 0
 324 1382 336 1385 348 1390 c 2
 618 1515 l 1
 889 1390 l 2
EndSplineSet
EndChar

StartChar: Udieresis
Encoding: 220 220 157
Width: 1237
Flags: HMW
HStem: 1329 53<277.5 298.5 275.5 300.5 957.5 976.5>
VStem: 203 850<254 1466 254 1609>
LayerCount: 3
Fore
SplineSet
205 252 m 2
 205 183 230 123 279 74 c 0
 328 25 388 0 457 0 c 2
 801 0 l 2
 870 0 929 25 979 75 c 0
 1028 126 1053 185 1053 254 c 2
 1053 1243 l 2
 1053 1266 1045 1287 1029 1304 c 0
 1012 1321 992 1329 969 1329 c 0
 946 1329 926 1321 910 1304 c 0
 893 1287 885 1267 885 1243 c 2
 885 252 l 2
 885 229 877 210 861 194 c 0
 844 178 824 170 801 170 c 2
 457 170 l 2
 434 170 415 178 398 195 c 0
 381 211 373 230 373 252 c 2
 373 1245 l 2
 373 1268 365 1287 348 1304 c 0
 331 1321 312 1329 289 1329 c 0
 266 1329 247 1321 230 1304 c 0
 213 1287 205 1267 205 1243 c 2
 205 252 l 2
1049 1609 m 2
 1049 1633 1041 1653 1024 1670 c 0
 1007 1687 988 1695 965 1695 c 0
 942 1695 922 1687 906 1670 c 0
 889 1653 881 1633 881 1609 c 2
 881 1466 l 2
 881 1443 889 1423 905 1407 c 0
 921 1390 941 1382 965 1382 c 0
 988 1382 1008 1390 1025 1407 c 0
 1041 1423 1049 1443 1049 1466 c 2
 1049 1609 l 2
371 1609 m 2
 371 1632 363 1652 347 1669 c 0
 330 1685 310 1693 287 1693 c 0
 264 1693 244 1685 228 1669 c 0
 211 1652 203 1632 203 1609 c 2
 203 1466 l 2
 203 1443 211 1423 228 1407 c 0
 244 1390 264 1382 287 1382 c 0
 310 1382 330 1390 347 1407 c 0
 363 1423 371 1443 371 1466 c 2
 371 1609 l 2
EndSplineSet
EndChar

StartChar: Yacute
Encoding: 221 221 158
Width: 1237
Flags: HMW
HStem: 0 1693<621 907>
VStem: 209 846<1067 1243 1243 1243 1065 1243>
LayerCount: 3
Fore
SplineSet
1055 1067 m 1
 1055 1067 1055 1126 1055 1243 c 0
 1055 1269 1047 1290 1030 1306 c 0
 1013 1321 993 1329 971 1329 c 0
 948 1329 929 1321 912 1304 c 0
 895 1287 887 1267 887 1243 c 2
 887 1126 l 1
 631 803 l 1
 379 1128 l 1
 379 1243 l 2
 379 1267 371 1287 354 1304 c 0
 337 1321 317 1329 293 1329 c 0
 270 1329 250 1321 234 1304 c 0
 217 1287 209 1267 209 1243 c 2
 209 1065 l 1
 547 637 l 1
 547 84 l 2
 547 61 555 41 572 25 c 0
 589 8 609 0 633 0 c 0
 656 0 675 8 692 25 c 0
 709 41 717 61 717 84 c 2
 717 637 l 1
 1055 1067 l 1
553 1544 m 2
 522 1529 506 1503 506 1468 c 0
 506 1446 514 1426 529 1409 c 0
 544 1391 564 1382 588 1382 c 0
 600 1382 612 1385 625 1390 c 2
 930 1531 l 2
 961 1546 977 1572 977 1607 c 0
 977 1628 969 1648 954 1667 c 0
 939 1684 919 1693 895 1693 c 0
 883 1693 871 1690 858 1685 c 2
 553 1544 l 2
EndSplineSet
EndChar

StartChar: Thorn
Encoding: 222 222 159
Width: 1237
Flags: HMW
HStem: 481 314<377 803 377 803>
VStem: 207 848<72.5 711 565 711 711 745.5 565 1245>
LayerCount: 3
Fore
SplineSet
1055 711 m 2
 1055 780 1030 839 981 890 c 0
 931 940 872 965 803 965 c 2
 377 965 l 1
 377 1245 l 2
 377 1268 369 1288 353 1305 c 0
 336 1321 316 1329 293 1329 c 0
 270 1329 249 1321 232 1305 c 0
 215 1288 207 1268 207 1245 c 2
 207 84 l 2
 207 61 215 41 232 25 c 0
 249 8 269 0 293 0 c 0
 316 0 336 8 353 25 c 0
 369 41 377 61 377 84 c 2
 377 313 l 1
 803 313 l 2
 872 313 932 338 981 387 c 0
 1030 436 1055 496 1055 565 c 2
 1055 711 l 2
887 565 m 2
 887 542 879 523 862 506 c 0
 845 489 826 481 803 481 c 2
 377 481 l 1
 377 795 l 1
 803 795 l 2
 826 795 845 787 862 770 c 0
 879 753 887 734 887 711 c 2
 887 565 l 2
EndSplineSet
EndChar

StartChar: germandbls
Encoding: 223 223 160
Width: 1237
Flags: HMW
HStem: 0 1329<279.5 530 499.5 803 499.5 835.5>
VStem: 375 155<685 727 685 1018>
LayerCount: 3
Fore
SplineSet
743 662 m 2
 720 683 708 696 708 699 c 0
 708 709 730 725 774 748 c 2
 874 799 l 2
 943 834 990 866 1015 893 c 0
 1040 920 1053 964 1053 1024 c 0
 1053 1101 1018 1171 947 1235 c 0
 876 1299 803 1330 727 1329 c 2
 530 1329 l 2
 469 1329 419 1316 382 1289 c 0
 344 1263 305 1229 265 1188 c 0
 225 1147 205 1093 205 1026 c 2
 205 84 l 2
 205 63 214 43 231 26 c 0
 248 9 268 0 291 0 c 0
 314 0 333 8 350 25 c 0
 367 42 375 61 375 84 c 2
 375 1018 l 2
 375 1046 385 1068 406 1085 c 2
 463 1135 l 2
 484 1152 514 1161 551 1161 c 2
 725 1161 l 2
 752 1161 775 1153 795 1137 c 2
 854 1090 l 2
 875 1073 885 1046 885 1009 c 0
 885 989 880 974 869 964 c 0
 860 956 834 941 793 918 c 2
 631 834 l 2
 564 799 530 754 530 700 c 0
 530 670 537 646 552 627 c 0
 567 607 600 573 653 524 c 2
 850 344 l 2
 871 325 882 298 882 264 c 0
 882 238 874 215 859 196 c 0
 844 177 824 168 799 168 c 2
 772 168 l 2
 726 168 691 180 667 204 c 0
 642 228 619 240 598 240 c 0
 573 240 552 232 535 215 c 0
 518 198 510 179 510 156 c 0
 510 122 535 88 586 53 c 0
 637 18 691 0 750 0 c 2
 803 0 l 2
 868 0 925 25 976 75 c 0
 1027 125 1053 186 1053 258 c 0
 1053 299 1044 338 1027 376 c 0
 1011 411 975 454 920 504 c 2
 743 662 l 2
EndSplineSet
EndChar

StartChar: agrave
Encoding: 224 224 161
Width: 1237
Flags: HMW
HStem: 172 262<445.5 788 457 694> 606 191<422 778 459 778 778 786> 965 53<766 778>
VStem: 203 850<72.5 286.5 72.5 352>
LayerCount: 3
Fore
SplineSet
457 606 m 2
 387 606 327 581 278 532 c 0
 228 482 203 422 203 352 c 2
 203 352 203 319 203 254 c 0
 203 183 228 123 277 74 c 0
 326 25 386 0 457 0 c 2
 741 0 l 1
 883 84 l 1
 883 61 891 41 908 25 c 0
 925 8 945 0 969 0 c 0
 992 0 1011 8 1028 25 c 0
 1045 41 1053 61 1053 84 c 2
 1032 713 l 2
 1030 784 1005 843 956 892 c 0
 907 941 848 965 778 965 c 2
 459 965 l 2
 436 965 416 957 400 941 c 0
 383 924 375 904 375 881 c 0
 375 858 383 839 400 822 c 0
 417 805 436 797 459 797 c 2
 778 797 l 2
 801 797 821 789 838 773 c 0
 854 756 862 736 862 713 c 2
 864 594 l 1
 830 602 804 606 786 606 c 2
 457 606 l 2
694 172 m 1
 457 172 l 2
 434 172 415 180 398 197 c 0
 381 214 373 233 373 256 c 2
 373 350 l 2
 373 373 381 393 398 410 c 0
 414 426 434 434 457 434 c 2
 788 434 l 2
 811 434 831 426 847 410 c 0
 862 395 871 375 872 350 c 2
 877 279 l 1
 694 172 l 1
502 1321 m 2
 489 1326 477 1329 465 1329 c 0
 441 1329 421 1320 406 1303 c 0
 391 1284 383 1264 383 1243 c 0
 383 1208 399 1183 430 1167 c 2
 735 1026 l 2
 748 1021 760 1018 772 1018 c 0
 796 1018 816 1027 831 1045 c 0
 846 1062 854 1082 854 1104 c 0
 854 1139 838 1164 807 1180 c 2
 502 1321 l 2
EndSplineSet
EndChar

StartChar: aacute
Encoding: 225 225 162
Width: 1237
Flags: HMW
HStem: 172 262<445.5 788 457 694> 606 191<422 778 459 778 778 786> 965 53<452.5 459 459 471 452.5 778>
VStem: 203 850<72.5 286.5 72.5 352>
LayerCount: 3
Fore
SplineSet
457 606 m 2
 387 606 327 581 278 532 c 0
 228 482 203 422 203 352 c 2
 203 352 203 319 203 254 c 0
 203 183 228 123 277 74 c 0
 326 25 386 0 457 0 c 2
 741 0 l 1
 883 84 l 1
 883 61 891 41 908 25 c 0
 925 8 945 0 969 0 c 0
 992 0 1011 8 1028 25 c 0
 1045 41 1053 61 1053 84 c 2
 1032 713 l 2
 1030 784 1005 843 956 892 c 0
 907 941 848 965 778 965 c 2
 459 965 l 2
 436 965 416 957 400 941 c 0
 383 924 375 904 375 881 c 0
 375 858 383 839 400 822 c 0
 417 805 436 797 459 797 c 2
 778 797 l 2
 801 797 821 789 838 773 c 0
 854 756 862 736 862 713 c 2
 864 594 l 1
 830 602 804 606 786 606 c 2
 457 606 l 2
694 172 m 1
 457 172 l 2
 434 172 415 180 398 197 c 0
 381 214 373 233 373 256 c 2
 373 350 l 2
 373 373 381 393 398 410 c 0
 414 426 434 434 457 434 c 2
 788 434 l 2
 811 434 831 426 847 410 c 0
 862 395 871 375 872 350 c 2
 877 279 l 1
 694 172 l 1
430 1180 m 2
 399 1165 383 1139 383 1104 c 0
 383 1082 391 1062 406 1045 c 0
 421 1027 440 1018 465 1018 c 0
 477 1018 489 1021 502 1026 c 2
 807 1167 l 2
 838 1182 854 1208 854 1243 c 0
 854 1264 846 1284 831 1303 c 0
 816 1320 796 1329 772 1329 c 0
 760 1329 748 1326 735 1321 c 2
 430 1180 l 2
EndSplineSet
EndChar

StartChar: acircumflex
Encoding: 226 226 163
Width: 1237
Flags: HMW
HStem: 172 262<445.5 788 457 694> 606 191<422 778 459 778 778 786>
VStem: 203 850<72.5 286.5 72.5 352>
LayerCount: 3
Fore
SplineSet
457 606 m 2
 387 606 327 581 278 532 c 0
 228 482 203 422 203 352 c 2
 203 352 203 319 203 254 c 0
 203 183 228 123 277 74 c 0
 326 25 386 0 457 0 c 2
 741 0 l 1
 883 84 l 1
 883 61 891 41 908 25 c 0
 925 8 945 0 969 0 c 0
 992 0 1011 8 1028 25 c 0
 1045 41 1053 61 1053 84 c 2
 1032 713 l 2
 1030 784 1005 843 956 892 c 0
 907 941 848 965 778 965 c 2
 459 965 l 2
 436 965 416 957 400 941 c 0
 383 924 375 904 375 881 c 0
 375 858 383 839 400 822 c 0
 417 805 436 797 459 797 c 2
 778 797 l 2
 801 797 821 789 838 773 c 0
 854 756 862 736 862 713 c 2
 864 594 l 1
 830 602 804 606 786 606 c 2
 457 606 l 2
694 172 m 1
 457 172 l 2
 434 172 415 180 398 197 c 0
 381 214 373 233 373 256 c 2
 373 350 l 2
 373 373 381 393 398 410 c 0
 414 426 434 434 457 434 c 2
 788 434 l 2
 811 434 831 426 847 410 c 0
 862 395 871 375 872 350 c 2
 877 279 l 1
 694 172 l 1
889 1026 m 2
 902 1021 914 1018 925 1018 c 0
 949 1018 969 1027 985 1045 c 0
 1000 1062 1008 1082 1008 1104 c 0
 1008 1139 992 1164 961 1180 c 2
 655 1321 l 2
 643 1326 631 1329 618 1329 c 0
 608 1329 596 1326 582 1321 c 2
 276 1180 l 2
 245 1165 229 1139 229 1104 c 0
 229 1081 237 1062 253 1045 c 0
 268 1027 288 1018 312 1018 c 0
 324 1018 336 1021 348 1026 c 2
 618 1151 l 1
 889 1026 l 2
EndSplineSet
EndChar

StartChar: atilde
Encoding: 227 227 164
Width: 1237
Flags: HMW
HStem: 172 262<445.5 788 457 694> 606 191<422 778 459 778 778 786> 965 100<770 778>
VStem: 203 858
LayerCount: 3
Fore
SplineSet
457 606 m 2
 387 606 327 581 278 532 c 0
 228 482 203 422 203 352 c 2
 203 352 203 319 203 254 c 0
 203 183 228 123 277 74 c 0
 326 25 386 0 457 0 c 2
 741 0 l 1
 883 84 l 1
 883 61 891 41 908 25 c 0
 925 8 945 0 969 0 c 0
 992 0 1011 8 1028 25 c 0
 1045 41 1053 61 1053 84 c 2
 1032 713 l 2
 1030 784 1005 843 956 892 c 0
 907 941 848 965 778 965 c 2
 459 965 l 2
 436 965 416 957 400 941 c 0
 383 924 375 904 375 881 c 0
 375 858 383 839 400 822 c 0
 417 805 436 797 459 797 c 2
 778 797 l 2
 801 797 821 789 838 773 c 0
 854 756 862 736 862 713 c 2
 864 594 l 1
 830 602 804 606 786 606 c 2
 457 606 l 2
694 172 m 1
 457 172 l 2
 434 172 415 180 398 197 c 0
 381 214 373 233 373 256 c 2
 373 350 l 2
 373 373 381 393 398 410 c 0
 414 426 434 434 457 434 c 2
 788 434 l 2
 811 434 831 426 847 410 c 0
 862 395 871 375 872 350 c 2
 877 279 l 1
 694 172 l 1
1020 1171 m 2
 1047 1188 1061 1211 1061 1240 c 0
 1061 1264 1053 1285 1036 1302 c 0
 1019 1320 999 1329 976 1329 c 0
 961 1329 945 1324 930 1315 c 2
 799 1235 l 1
 784 1235 l 1
 522 1323 l 2
 515 1326 506 1327 496 1327 c 2
 442 1327 l 2
 425 1327 410 1323 397 1315 c 2
 246 1223 l 2
 219 1206 205 1183 205 1154 c 0
 205 1130 213 1109 230 1092 c 0
 247 1074 267 1065 289 1065 c 0
 305 1065 321 1070 336 1079 c 2
 463 1157 l 1
 487 1157 l 1
 743 1071 l 2
 756 1067 765 1065 770 1065 c 2
 823 1065 l 2
 833 1065 848 1070 868 1079 c 2
 1020 1171 l 2
EndSplineSet
EndChar

StartChar: adieresis
Encoding: 228 228 165
Width: 1237
Flags: HMW
HStem: 172 262<445.5 788 457 694> 606 191<422 778 459 778 778 786>
VStem: 203 850<72.5 286.5 72.5 352>
LayerCount: 3
Fore
SplineSet
457 606 m 2
 387 606 327 581 278 532 c 0
 228 482 203 422 203 352 c 2
 203 352 203 319 203 254 c 0
 203 183 228 123 277 74 c 0
 326 25 386 0 457 0 c 2
 741 0 l 1
 883 84 l 1
 883 61 891 41 908 25 c 0
 925 8 945 0 969 0 c 0
 992 0 1011 8 1028 25 c 0
 1045 41 1053 61 1053 84 c 2
 1032 713 l 2
 1030 784 1005 843 956 892 c 0
 907 941 848 965 778 965 c 2
 459 965 l 2
 436 965 416 957 400 941 c 0
 383 924 375 904 375 881 c 0
 375 858 383 839 400 822 c 0
 417 805 436 797 459 797 c 2
 778 797 l 2
 801 797 821 789 838 773 c 0
 854 756 862 736 862 713 c 2
 864 594 l 1
 830 602 804 606 786 606 c 2
 457 606 l 2
694 172 m 1
 457 172 l 2
 434 172 415 180 398 197 c 0
 381 214 373 233 373 256 c 2
 373 350 l 2
 373 373 381 393 398 410 c 0
 414 426 434 434 457 434 c 2
 788 434 l 2
 811 434 831 426 847 410 c 0
 862 395 871 375 872 350 c 2
 877 279 l 1
 694 172 l 1
1049 1245 m 2
 1049 1269 1041 1289 1024 1306 c 0
 1007 1323 988 1331 965 1331 c 0
 942 1331 922 1323 906 1306 c 0
 889 1289 881 1269 881 1245 c 2
 881 1102 l 2
 881 1079 889 1059 905 1043 c 0
 921 1026 941 1018 965 1018 c 0
 988 1018 1008 1026 1025 1043 c 0
 1041 1059 1049 1079 1049 1102 c 2
 1049 1245 l 2
371 1245 m 2
 371 1268 363 1288 347 1305 c 0
 330 1321 310 1329 287 1329 c 0
 264 1329 244 1321 228 1305 c 0
 211 1288 203 1268 203 1245 c 2
 203 1102 l 2
 203 1079 211 1059 228 1043 c 0
 244 1026 264 1018 287 1018 c 0
 310 1018 330 1026 347 1043 c 0
 363 1059 371 1079 371 1102 c 2
 371 1245 l 2
EndSplineSet
EndChar

StartChar: aring
Encoding: 229 229 166
Width: 1237
Flags: HMW
HStem: 172 262<445.5 788 457 694> 606 191<422 778 459 778 778 786> 965 47<590 647 647 666.5 590 778> 1122 160<593.5 641 604 641 604 641>
VStem: 539 161<1178 1227 1171.5 1229 1171.5 1233.5>
LayerCount: 3
Fore
SplineSet
457 606 m 2
 387 606 327 581 278 532 c 0
 228 482 203 422 203 352 c 2
 203 352 203 319 203 254 c 0
 203 183 228 123 277 74 c 0
 326 25 386 0 457 0 c 2
 741 0 l 1
 883 84 l 1
 883 61 891 41 908 25 c 0
 925 8 945 0 969 0 c 0
 992 0 1011 8 1028 25 c 0
 1045 41 1053 61 1053 84 c 2
 1032 713 l 2
 1030 784 1005 843 956 892 c 0
 907 941 848 965 778 965 c 2
 459 965 l 2
 436 965 416 957 400 941 c 0
 383 924 375 904 375 881 c 0
 375 858 383 839 400 822 c 0
 417 805 436 797 459 797 c 2
 778 797 l 2
 801 797 821 789 838 773 c 0
 854 756 862 736 862 713 c 2
 864 594 l 1
 830 602 804 606 786 606 c 2
 457 606 l 2
694 172 m 1
 457 172 l 2
 434 172 415 180 398 197 c 0
 381 214 373 233 373 256 c 2
 373 350 l 2
 373 373 381 393 398 410 c 0
 414 426 434 434 457 434 c 2
 788 434 l 2
 811 434 831 426 847 410 c 0
 862 395 871 375 872 350 c 2
 877 279 l 1
 694 172 l 1
811 1239 m 2
 811 1276 793 1311 758 1344 c 0
 723 1377 686 1393 647 1393 c 2
 590 1393 l 2
 551 1393 514 1377 480 1345 c 0
 445 1312 428 1277 428 1239 c 2
 428 1165 l 2
 428 1127 446 1092 481 1060 c 0
 516 1028 553 1012 590 1012 c 2
 647 1012 l 2
 686 1012 723 1028 758 1061 c 0
 793 1093 811 1128 811 1165 c 2
 811 1239 l 2
700 1178 m 2
 700 1165 696 1156 688 1153 c 0
 669 1132 654 1122 641 1122 c 2
 598 1122 l 2
 589 1122 582 1125 575 1130 c 2
 551 1149 l 2
 543 1155 539 1165 539 1178 c 2
 539 1229 l 2
 539 1238 547 1250 562 1263 c 0
 577 1276 591 1282 604 1282 c 2
 641 1282 l 2
 647 1282 659 1276 676 1264 c 0
 692 1252 700 1240 700 1227 c 2
 700 1178 l 2
EndSplineSet
EndChar

StartChar: ae
Encoding: 230 230 167
Width: 1237
Flags: HMW
HStem: 168 194<844 856 856 1077> 172 262<318.5 451 330 356> 532 263<696 860.5 836.5 860.5 836.5 995> 606 191<295 440 332 440 440 449>
VStem: 76 1085<72.5 254 72.5 352> 246 278<270 350 350 361.5> 696 299<532 649 532 662 532 675.5>
LayerCount: 3
Fore
SplineSet
1077 362 m 2x98
 1100 362 1120 370 1137 387 c 0
 1153 404 1161 423 1161 446 c 2
 1161 649 l 2
 1161 730 1139 790 1094 831 c 2
 1030 891 l 2
 977 940 921 965 862 965 c 2
 838 965 l 2
 775 965 708 933 637 870 c 1
 584 933 518 965 440 965 c 2
 332 965 l 2
 309 965 289 957 273 941 c 0
 256 924 248 904 248 881 c 0
 248 858 256 839 273 822 c 0
 290 805 309 797 332 797 c 2
 440 797 l 2
 463 797 483 789 500 773 c 0
 516 756 524 736 524 713 c 2
 524 594 l 1
 491 602 466 606 449 606 c 2
 330 606 l 2
 260 606 200 581 151 532 c 0
 101 482 76 422 76 352 c 2
 76 254 l 2
 76 183 101 123 150 74 c 0
 199 25 259 0 330 0 c 2
 403 0 l 1
 608 121 l 1
 682 57 l 2
 697 44 721 31 753 19 c 0
 784 6 815 0 846 0 c 2
 1077 0 l 2
 1100 0 1119 8 1136 25 c 0
 1153 42 1161 61 1161 84 c 0
 1161 107 1153 127 1136 144 c 0
 1119 160 1099 168 1077 168 c 2
 856 168 l 2
 832 168 807 178 780 199 c 2
 731 240 l 2
 706 260 694 284 694 313 c 2
 694 362 l 1
 1077 362 l 2x98
696 532 m 1x66
 696 662 l 2
 696 689 707 710 729 727 c 2
 778 768 l 2
 799 786 823 795 850 795 c 0
 871 795 893 785 918 764 c 2
 967 721 l 2
 986 704 995 680 995 649 c 2
 995 532 l 1
 696 532 l 1x66
356 172 m 1
 330 172 l 2
 307 172 288 180 271 197 c 0
 254 214 246 233 246 256 c 2
 246 350 l 2
 246 373 254 393 271 410 c 0
 287 426 307 434 330 434 c 2
 451 434 l 2
 484 434 508 419 524 389 c 1
 524 270 l 1
 356 172 l 1
EndSplineSet
EndChar

StartChar: ccedilla
Encoding: 231 231 168
Width: 1237
Flags: HMW
HStem: -190 190<451.5 719 612 719 612 719>
VStem: 209 848<338 892.5 375 892.5>
LayerCount: 3
Fore
SplineSet
719 -190 m 1
 719 -190 634 -190 463 -190 c 0
 440 -190 420 -198 404 -215 c 0
 387 -232 379 -252 379 -276 c 0
 379 -299 387 -318 404 -335 c 0
 421 -352 440 -360 463 -360 c 2
 803 -360 l 2
 826 -360 846 -352 863 -335 c 0
 879 -318 887 -298 887 -274 c 2
 887 0 l 1
 971 0 l 2
 994 0 1014 8 1031 25 c 0
 1047 41 1055 61 1055 84 c 0
 1055 107 1047 127 1030 144 c 0
 1013 160 993 168 971 168 c 2
 627 168 l 2
 596 168 572 176 553 193 c 2
 405 319 l 2
 388 334 379 353 379 375 c 2
 379 580 l 2
 379 611 390 636 412 655 c 2
 547 770 l 2
 568 788 589 797 612 797 c 2
 973 797 l 2
 996 797 1016 805 1033 821 c 0
 1049 837 1057 857 1057 881 c 0
 1057 904 1049 924 1033 941 c 0
 1016 957 996 965 973 965 c 2
 596 965 l 2
 541 965 491 946 444 907 c 2
 297 780 l 2
 236 727 206 665 209 594 c 2
 209 375 l 2
 209 301 235 242 287 199 c 2
 450 57 l 2
 495 19 549 0 612 0 c 2
 719 0 l 1
 719 -190 l 1
EndSplineSet
EndChar

StartChar: egrave
Encoding: 232 232 169
Width: 1237
Flags: HMW
HStem: 168 194<525 537 537 969> 532 263<530 741 741 751.5 530 887 377 741> 965 53<518 784>
VStem: 205 848<72.5 293 446 649 649 678>
LayerCount: 3
Fore
SplineSet
1053 649 m 2
 1053 729 1030 790 985 831 c 2
 985 831 964 851 922 891 c 0
 869 940 813 965 754 965 c 2
 518 965 l 2
 463 965 412 946 365 909 c 2
 295 854 l 2
 270 833 248 804 231 767 c 0
 214 729 205 699 205 678 c 2
 205 293 l 2
 205 264 213 234 229 201 c 0
 244 169 263 143 287 123 c 2
 362 57 l 2
 377 44 401 31 434 19 c 0
 465 6 496 0 526 0 c 2
 969 0 l 2
 992 0 1011 8 1028 25 c 0
 1045 42 1053 61 1053 84 c 0
 1053 107 1045 127 1028 144 c 0
 1011 160 991 168 969 168 c 2
 537 168 l 2
 513 168 488 178 461 199 c 2
 412 240 l 2
 387 260 375 284 375 313 c 2
 375 362 l 1
 969 362 l 2
 992 362 1011 370 1028 387 c 0
 1045 404 1053 423 1053 446 c 2
 1053 649 l 2
377 662 m 2
 377 689 388 710 410 727 c 2
 459 768 l 2
 480 786 503 795 530 795 c 2
 741 795 l 2
 762 795 784 785 809 764 c 2
 858 721 l 2
 877 704 887 680 887 649 c 2
 887 532 l 1
 377 532 l 1
 377 662 l 2
502 1321 m 2
 489 1326 477 1329 465 1329 c 0
 441 1329 421 1320 406 1303 c 0
 391 1284 383 1264 383 1243 c 0
 383 1208 399 1183 430 1167 c 2
 735 1026 l 2
 748 1021 760 1018 772 1018 c 0
 796 1018 816 1027 831 1045 c 0
 846 1062 854 1082 854 1104 c 0
 854 1139 838 1164 807 1180 c 2
 502 1321 l 2
EndSplineSet
EndChar

StartChar: eacute
Encoding: 233 233 170
Width: 1237
Flags: HMW
HStem: 168 194<525 537 537 969> 532 263<530 741 741 751.5 530 887 377 741> 965 53<576 594 576 754>
VStem: 205 848<72.5 293 446 649 649 678>
LayerCount: 3
Fore
SplineSet
1053 649 m 2
 1053 729 1030 790 985 831 c 2
 985 831 964 851 922 891 c 0
 869 940 813 965 754 965 c 2
 518 965 l 2
 463 965 412 946 365 909 c 2
 295 854 l 2
 270 833 248 804 231 767 c 0
 214 729 205 699 205 678 c 2
 205 293 l 2
 205 264 213 234 229 201 c 0
 244 169 263 143 287 123 c 2
 362 57 l 2
 377 44 401 31 434 19 c 0
 465 6 496 0 526 0 c 2
 969 0 l 2
 992 0 1011 8 1028 25 c 0
 1045 42 1053 61 1053 84 c 0
 1053 107 1045 127 1028 144 c 0
 1011 160 991 168 969 168 c 2
 537 168 l 2
 513 168 488 178 461 199 c 2
 412 240 l 2
 387 260 375 284 375 313 c 2
 375 362 l 1
 969 362 l 2
 992 362 1011 370 1028 387 c 0
 1045 404 1053 423 1053 446 c 2
 1053 649 l 2
377 662 m 2
 377 689 388 710 410 727 c 2
 459 768 l 2
 480 786 503 795 530 795 c 2
 741 795 l 2
 762 795 784 785 809 764 c 2
 858 721 l 2
 877 704 887 680 887 649 c 2
 887 532 l 1
 377 532 l 1
 377 662 l 2
553 1180 m 2
 522 1165 506 1139 506 1104 c 0
 506 1082 514 1062 529 1045 c 0
 544 1027 564 1018 588 1018 c 0
 600 1018 612 1021 625 1026 c 2
 930 1167 l 2
 961 1182 977 1208 977 1243 c 0
 977 1264 969 1284 954 1303 c 0
 939 1320 919 1329 895 1329 c 0
 883 1329 871 1326 858 1321 c 2
 553 1180 l 2
EndSplineSet
EndChar

StartChar: ecircumflex
Encoding: 234 234 171
Width: 1237
Flags: HMW
HStem: 168 194<525 537 537 969> 532 263<530 741 741 751.5 530 887 377 741>
VStem: 205 848<72.5 293 446 649 649 678>
LayerCount: 3
Fore
SplineSet
1053 649 m 2
 1053 729 1030 790 985 831 c 2
 985 831 964 851 922 891 c 0
 869 940 813 965 754 965 c 2
 518 965 l 2
 463 965 412 946 365 909 c 2
 295 854 l 2
 270 833 248 804 231 767 c 0
 214 729 205 699 205 678 c 2
 205 293 l 2
 205 264 213 234 229 201 c 0
 244 169 263 143 287 123 c 2
 362 57 l 2
 377 44 401 31 434 19 c 0
 465 6 496 0 526 0 c 2
 969 0 l 2
 992 0 1011 8 1028 25 c 0
 1045 42 1053 61 1053 84 c 0
 1053 107 1045 127 1028 144 c 0
 1011 160 991 168 969 168 c 2
 537 168 l 2
 513 168 488 178 461 199 c 2
 412 240 l 2
 387 260 375 284 375 313 c 2
 375 362 l 1
 969 362 l 2
 992 362 1011 370 1028 387 c 0
 1045 404 1053 423 1053 446 c 2
 1053 649 l 2
377 662 m 2
 377 689 388 710 410 727 c 2
 459 768 l 2
 480 786 503 795 530 795 c 2
 741 795 l 2
 762 795 784 785 809 764 c 2
 858 721 l 2
 877 704 887 680 887 649 c 2
 887 532 l 1
 377 532 l 1
 377 662 l 2
889 1026 m 2
 902 1021 914 1018 925 1018 c 0
 949 1018 969 1027 985 1045 c 0
 1000 1062 1008 1082 1008 1104 c 0
 1008 1139 992 1164 961 1180 c 2
 655 1321 l 2
 643 1326 631 1329 618 1329 c 0
 608 1329 596 1326 582 1321 c 2
 276 1180 l 2
 245 1165 229 1139 229 1104 c 0
 229 1081 237 1062 253 1045 c 0
 268 1027 288 1018 312 1018 c 0
 324 1018 336 1021 348 1026 c 2
 618 1151 l 1
 889 1026 l 2
EndSplineSet
EndChar

StartChar: edieresis
Encoding: 235 235 172
Width: 1237
Flags: HMW
HStem: 168 194<525 537 537 969> 532 263<530 741 741 751.5 530 887 377 741>
VStem: 203 850
LayerCount: 3
Fore
SplineSet
1053 649 m 2
 1053 729 1030 790 985 831 c 2
 985 831 964 851 922 891 c 0
 869 940 813 965 754 965 c 2
 518 965 l 2
 463 965 412 946 365 909 c 2
 295 854 l 2
 270 833 248 804 231 767 c 0
 214 729 205 699 205 678 c 2
 205 293 l 2
 205 264 213 234 229 201 c 0
 244 169 263 143 287 123 c 2
 362 57 l 2
 377 44 401 31 434 19 c 0
 465 6 496 0 526 0 c 2
 969 0 l 2
 992 0 1011 8 1028 25 c 0
 1045 42 1053 61 1053 84 c 0
 1053 107 1045 127 1028 144 c 0
 1011 160 991 168 969 168 c 2
 537 168 l 2
 513 168 488 178 461 199 c 2
 412 240 l 2
 387 260 375 284 375 313 c 2
 375 362 l 1
 969 362 l 2
 992 362 1011 370 1028 387 c 0
 1045 404 1053 423 1053 446 c 2
 1053 649 l 2
377 662 m 2
 377 689 388 710 410 727 c 2
 459 768 l 2
 480 786 503 795 530 795 c 2
 741 795 l 2
 762 795 784 785 809 764 c 2
 858 721 l 2
 877 704 887 680 887 649 c 2
 887 532 l 1
 377 532 l 1
 377 662 l 2
1049 1245 m 2
 1049 1269 1041 1289 1024 1306 c 0
 1007 1323 988 1331 965 1331 c 0
 942 1331 922 1323 906 1306 c 0
 889 1289 881 1269 881 1245 c 2
 881 1102 l 2
 881 1079 889 1059 905 1043 c 0
 921 1026 941 1018 965 1018 c 0
 988 1018 1008 1026 1025 1043 c 0
 1041 1059 1049 1079 1049 1102 c 2
 1049 1245 l 2
371 1245 m 2
 371 1268 363 1288 347 1305 c 0
 330 1321 310 1329 287 1329 c 0
 264 1329 244 1321 228 1305 c 0
 211 1288 203 1268 203 1245 c 2
 203 1102 l 2
 203 1079 211 1059 228 1043 c 0
 244 1026 264 1018 287 1018 c 0
 310 1018 330 1026 347 1043 c 0
 363 1059 371 1079 371 1102 c 2
 371 1245 l 2
EndSplineSet
EndChar

StartChar: igrave
Encoding: 236 236 173
Width: 1237
Flags: HMW
HStem: 967 51<383 669.5>
VStem: 268 709
LayerCount: 3
Fore
SplineSet
723 881 m 2
 723 904 715 925 699 942 c 0
 682 959 662 967 639 967 c 2
 383 967 l 2
 360 967 340 959 324 942 c 0
 307 925 299 905 299 881 c 0
 299 858 307 839 324 822 c 0
 340 805 360 797 383 797 c 2
 553 797 l 1
 553 170 l 1
 381 170 l 2
 358 170 338 162 322 145 c 0
 305 128 297 109 297 86 c 0
 297 63 305 43 322 27 c 0
 338 10 358 2 381 2 c 2
 893 2 l 2
 916 2 935 10 952 27 c 0
 969 43 977 63 977 86 c 0
 977 109 969 129 952 146 c 0
 935 162 914 170 891 170 c 2
 723 170 l 1
 723 881 l 2
387 1321 m 2
 374 1326 362 1329 350 1329 c 0
 326 1329 306 1320 291 1303 c 0
 276 1284 268 1264 268 1243 c 0
 268 1208 284 1183 315 1167 c 2
 620 1026 l 2
 633 1021 645 1018 657 1018 c 0
 682 1018 701 1027 716 1045 c 0
 731 1062 739 1082 739 1104 c 0
 739 1139 723 1164 692 1180 c 2
 387 1321 l 2
EndSplineSet
EndChar

StartChar: iacute
Encoding: 237 237 174
Width: 1237
Flags: HMW
HStem: 967 51<576 594 576 631>
VStem: 289 688
LayerCount: 3
Fore
SplineSet
715 881 m 2
 715 904 707 925 691 942 c 0
 674 959 654 967 631 967 c 2
 375 967 l 2
 352 967 332 959 316 942 c 0
 299 925 291 905 291 881 c 0
 291 858 299 839 316 822 c 0
 332 805 352 797 375 797 c 2
 545 797 l 1
 545 170 l 1
 373 170 l 2
 350 170 330 162 314 145 c 0
 297 128 289 109 289 86 c 0
 289 63 297 43 314 27 c 0
 330 10 350 2 373 2 c 2
 885 2 l 2
 908 2 927 10 944 27 c 0
 961 43 969 63 969 86 c 0
 969 109 961 129 944 146 c 0
 927 162 906 170 883 170 c 2
 715 170 l 1
 715 881 l 2
553 1180 m 2
 522 1165 506 1139 506 1104 c 0
 506 1082 514 1062 529 1045 c 0
 544 1027 564 1018 588 1018 c 0
 600 1018 612 1021 625 1026 c 2
 930 1167 l 2
 961 1182 977 1208 977 1243 c 0
 977 1264 969 1284 954 1303 c 0
 939 1320 919 1329 895 1329 c 0
 883 1329 871 1326 858 1321 c 2
 553 1180 l 2
EndSplineSet
EndChar

StartChar: icircumflex
Encoding: 238 238 175
Width: 1237
Flags: HMW
HStem: 2 1327<529 540.5 529 893 529 904.5>
VStem: 145 832
LayerCount: 3
Fore
SplineSet
723 881 m 2
 723 904 715 925 699 942 c 0
 682 959 662 967 639 967 c 2
 383 967 l 2
 360 967 340 959 324 942 c 0
 307 925 299 905 299 881 c 0
 299 858 307 839 324 822 c 0
 340 805 360 797 383 797 c 2
 553 797 l 1
 553 170 l 1
 381 170 l 2
 358 170 338 162 322 145 c 0
 305 128 297 109 297 86 c 0
 297 63 305 43 322 27 c 0
 338 10 358 2 381 2 c 2
 893 2 l 2
 916 2 935 10 952 27 c 0
 969 43 977 63 977 86 c 0
 977 109 969 129 952 146 c 0
 935 162 914 170 891 170 c 2
 723 170 l 1
 723 881 l 2
805 1026 m 2
 818 1021 830 1018 841 1018 c 0
 865 1018 885 1027 901 1045 c 0
 916 1062 924 1082 924 1104 c 0
 924 1139 908 1164 877 1180 c 2
 571 1321 l 2
 559 1326 547 1329 534 1329 c 0
 524 1329 512 1326 498 1321 c 2
 192 1180 l 2
 161 1165 145 1139 145 1104 c 0
 145 1081 153 1062 169 1045 c 0
 184 1027 204 1018 228 1018 c 0
 240 1018 252 1021 264 1026 c 2
 534 1151 l 1
 805 1026 l 2
EndSplineSet
EndChar

StartChar: idieresis
Encoding: 239 239 176
Width: 1237
Flags: HMW
HStem: 2 1329<850.5 873.5 850.5 885 850.5 896.5>
VStem: 100 869
LayerCount: 3
Fore
SplineSet
715 881 m 2
 715 904 707 925 691 942 c 0
 674 959 654 967 631 967 c 2
 375 967 l 2
 352 967 332 959 316 942 c 0
 299 925 291 905 291 881 c 0
 291 858 299 839 316 822 c 0
 332 805 352 797 375 797 c 2
 545 797 l 1
 545 170 l 1
 373 170 l 2
 350 170 330 162 314 145 c 0
 297 128 289 109 289 86 c 0
 289 63 297 43 314 27 c 0
 330 10 350 2 373 2 c 2
 885 2 l 2
 908 2 927 10 944 27 c 0
 961 43 969 63 969 86 c 0
 969 109 961 129 944 146 c 0
 927 162 906 170 883 170 c 2
 715 170 l 1
 715 881 l 2
946 1245 m 2
 946 1269 938 1289 921 1306 c 0
 904 1323 885 1331 862 1331 c 0
 839 1331 819 1323 803 1306 c 0
 786 1289 778 1269 778 1245 c 2
 778 1102 l 2
 778 1079 786 1059 802 1043 c 0
 818 1026 838 1018 862 1018 c 0
 885 1018 905 1026 922 1043 c 0
 938 1059 946 1079 946 1102 c 2
 946 1245 l 2
268 1245 m 2
 268 1268 260 1288 244 1305 c 0
 227 1321 207 1329 184 1329 c 0
 161 1329 141 1321 125 1305 c 0
 108 1288 100 1268 100 1245 c 2
 100 1102 l 2
 100 1079 108 1059 125 1043 c 0
 141 1026 161 1018 184 1018 c 0
 207 1018 227 1026 244 1043 c 0
 260 1059 268 1079 268 1102 c 2
 268 1245 l 2
EndSplineSet
EndChar

StartChar: eth
Encoding: 240 240 177
Width: 1237
Flags: HMW
HStem: 2 1327<623.5 646 277.5 731 277.5 768.5>
VStem: 205 852<307 910.5 307 1256.5>
LayerCount: 3
Fore
SplineSet
1057 492 m 2
 1057 561 1034 619 989 664 c 2
 579 1073 l 2
 581 1073 601 1092 640 1131 c 0
 679 1170 702 1194 709 1203 c 0
 716 1212 719 1226 719 1245 c 0
 719 1268 711 1288 694 1305 c 0
 677 1321 657 1329 635 1329 c 0
 612 1329 592 1321 575 1305 c 2
 461 1190 l 2
 461 1191 442 1211 403 1250 c 0
 364 1289 340 1312 331 1319 c 0
 322 1326 308 1329 289 1329 c 0
 266 1329 246 1321 230 1305 c 0
 213 1288 205 1268 205 1245 c 0
 205 1222 213 1202 229 1186 c 2
 342 1071 l 1
 229 958 l 2
 213 942 205 922 205 899 c 0
 205 876 213 856 230 840 c 0
 246 823 266 815 289 815 c 0
 312 815 333 824 350 841 c 2
 419 911 l 1
 461 954 l 1
 618 797 l 1
 534 797 l 2
 453 797 379 765 312 700 c 0
 243 635 209 566 209 492 c 2
 209 307 l 2
 209 234 244 165 314 100 c 0
 385 35 458 2 534 2 c 2
 731 2 l 2
 806 2 880 34 951 98 c 0
 1022 162 1057 232 1057 307 c 2
 1057 492 l 2
889 313 m 2
 889 284 879 262 858 246 c 2
 807 201 l 2
 784 180 758 170 729 170 c 2
 534 170 l 2
 509 170 489 176 475 188 c 2
 412 242 l 2
 390 260 379 284 379 315 c 2
 379 485 l 2
 379 514 389 536 410 553 c 2
 467 602 l 2
 488 620 517 629 555 629 c 2
 729 629 l 2
 756 629 780 621 799 604 c 2
 858 557 l 2
 879 541 889 516 889 483 c 2
 889 313 l 2
EndSplineSet
EndChar

StartChar: ntilde
Encoding: 241 241 178
Width: 1237
Flags: HMW
HStem: 967 98<281.5 299 280 304.5 772 782>
VStem: 207 856<1142 1252>
LayerCount: 3
Fore
SplineSet
606 770 m 2
 635 789 663 799 688 799 c 2
 688 799 715 799 770 799 c 0
 829 799 860 770 862 711 c 2
 887 84 l 2
 888 58 897 38 913 23 c 0
 930 8 950 0 971 0 c 0
 994 0 1014 8 1031 25 c 0
 1048 42 1056 61 1055 84 c 2
 1032 721 l 2
 1029 792 1003 850 955 896 c 0
 906 943 848 967 782 967 c 2
 704 967 l 2
 639 967 581 951 530 918 c 2
 377 825 l 1
 377 881 l 2
 377 905 369 925 352 942 c 0
 335 959 316 967 293 967 c 0
 270 967 250 959 234 942 c 0
 217 925 209 905 209 881 c 2
 209 84 l 2
 209 61 217 42 234 25 c 0
 251 8 270 0 293 0 c 0
 316 0 335 8 352 25 c 0
 369 42 377 61 377 84 c 2
 377 621 l 1
 606 770 l 2
1022 1171 m 2
 1049 1188 1063 1211 1063 1240 c 0
 1063 1264 1055 1285 1038 1302 c 0
 1021 1320 1001 1329 978 1329 c 0
 963 1329 947 1324 932 1315 c 2
 801 1235 l 1
 786 1235 l 1
 524 1323 l 2
 517 1326 508 1327 498 1327 c 2
 444 1327 l 2
 427 1327 412 1323 399 1315 c 2
 248 1223 l 2
 221 1206 207 1183 207 1154 c 0
 207 1130 215 1109 232 1092 c 0
 249 1074 269 1065 291 1065 c 0
 307 1065 323 1070 338 1079 c 2
 465 1157 l 1
 489 1157 l 1
 745 1071 l 2
 758 1067 767 1065 772 1065 c 2
 825 1065 l 2
 835 1065 850 1070 870 1079 c 2
 1022 1171 l 2
EndSplineSet
EndChar

StartChar: ograve
Encoding: 242 242 179
Width: 1237
Flags: HMW
HStem: 967 51<530 784>
VStem: 205 848<270.5 662 307 662>
LayerCount: 3
Fore
SplineSet
1053 662 m 2
 1053 739 1018 809 947 873 c 0
 876 937 803 968 727 967 c 2
 530 967 l 2
 449 967 375 935 308 870 c 0
 239 805 205 736 205 662 c 2
 205 307 l 2
 205 234 240 165 310 100 c 0
 381 35 454 2 530 2 c 2
 727 2 l 2
 802 2 876 34 947 98 c 0
 1018 162 1053 232 1053 307 c 2
 1053 662 l 2
375 655 m 2
 375 684 385 706 406 723 c 2
 463 772 l 2
 484 790 513 799 551 799 c 2
 725 799 l 2
 752 799 776 791 795 774 c 2
 854 727 l 2
 875 711 885 686 885 653 c 2
 885 313 l 2
 885 284 875 262 854 246 c 2
 803 201 l 2
 780 180 754 170 725 170 c 2
 530 170 l 2
 505 170 485 176 471 188 c 2
 408 242 l 2
 386 260 375 284 375 315 c 2
 375 655 l 2
502 1321 m 2
 489 1326 477 1329 465 1329 c 0
 441 1329 421 1320 406 1303 c 0
 391 1284 383 1264 383 1243 c 0
 383 1208 399 1183 430 1167 c 2
 735 1026 l 2
 748 1021 760 1018 772 1018 c 0
 796 1018 816 1027 831 1045 c 0
 846 1062 854 1082 854 1104 c 0
 854 1139 838 1164 807 1180 c 2
 502 1321 l 2
EndSplineSet
EndChar

StartChar: oacute
Encoding: 243 243 180
Width: 1237
Flags: HMW
HStem: 967 51<489.5 594 576 594 576 727>
VStem: 205 848<270.5 662 307 662>
LayerCount: 3
Fore
SplineSet
1053 662 m 2
 1053 739 1018 809 947 873 c 0
 876 937 803 968 727 967 c 2
 530 967 l 2
 449 967 375 935 308 870 c 0
 239 805 205 736 205 662 c 2
 205 307 l 2
 205 234 240 165 310 100 c 0
 381 35 454 2 530 2 c 2
 727 2 l 2
 802 2 876 34 947 98 c 0
 1018 162 1053 232 1053 307 c 2
 1053 662 l 2
375 655 m 2
 375 684 385 706 406 723 c 2
 463 772 l 2
 484 790 513 799 551 799 c 2
 725 799 l 2
 752 799 776 791 795 774 c 2
 854 727 l 2
 875 711 885 686 885 653 c 2
 885 313 l 2
 885 284 875 262 854 246 c 2
 803 201 l 2
 780 180 754 170 725 170 c 2
 530 170 l 2
 505 170 485 176 471 188 c 2
 408 242 l 2
 386 260 375 284 375 315 c 2
 375 655 l 2
553 1180 m 2
 522 1165 506 1139 506 1104 c 0
 506 1082 514 1062 529 1045 c 0
 544 1027 564 1018 588 1018 c 0
 600 1018 612 1021 625 1026 c 2
 930 1167 l 2
 961 1182 977 1208 977 1243 c 0
 977 1264 969 1284 954 1303 c 0
 939 1320 919 1329 895 1329 c 0
 883 1329 871 1326 858 1321 c 2
 553 1180 l 2
EndSplineSet
EndChar

StartChar: ocircumflex
Encoding: 244 244 181
Width: 1237
Flags: HMW
HStem: 2 1327<613 624.5 613 727 613 764.5>
VStem: 205 848<270.5 662 307 662>
LayerCount: 3
Fore
SplineSet
1053 662 m 2
 1053 739 1018 809 947 873 c 0
 876 937 803 968 727 967 c 2
 530 967 l 2
 449 967 375 935 308 870 c 0
 239 805 205 736 205 662 c 2
 205 307 l 2
 205 234 240 165 310 100 c 0
 381 35 454 2 530 2 c 2
 727 2 l 2
 802 2 876 34 947 98 c 0
 1018 162 1053 232 1053 307 c 2
 1053 662 l 2
375 655 m 2
 375 684 385 706 406 723 c 2
 463 772 l 2
 484 790 513 799 551 799 c 2
 725 799 l 2
 752 799 776 791 795 774 c 2
 854 727 l 2
 875 711 885 686 885 653 c 2
 885 313 l 2
 885 284 875 262 854 246 c 2
 803 201 l 2
 780 180 754 170 725 170 c 2
 530 170 l 2
 505 170 485 176 471 188 c 2
 408 242 l 2
 386 260 375 284 375 315 c 2
 375 655 l 2
889 1026 m 2
 902 1021 914 1018 925 1018 c 0
 949 1018 969 1027 985 1045 c 0
 1000 1062 1008 1082 1008 1104 c 0
 1008 1139 992 1164 961 1180 c 2
 655 1321 l 2
 643 1326 631 1329 618 1329 c 0
 608 1329 596 1326 582 1321 c 2
 276 1180 l 2
 245 1165 229 1139 229 1104 c 0
 229 1081 237 1062 253 1045 c 0
 268 1027 288 1018 312 1018 c 0
 324 1018 336 1021 348 1026 c 2
 618 1151 l 1
 889 1026 l 2
EndSplineSet
EndChar

StartChar: otilde
Encoding: 245 245 182
Width: 1237
Flags: HMW
HStem: 967 98
VStem: 205 856<307 1252 1142 1252>
LayerCount: 3
Fore
SplineSet
1053 662 m 2
 1053 739 1018 809 947 873 c 0
 876 937 803 968 727 967 c 2
 530 967 l 2
 449 967 375 935 308 870 c 0
 239 805 205 736 205 662 c 2
 205 307 l 2
 205 234 240 165 310 100 c 0
 381 35 454 2 530 2 c 2
 727 2 l 2
 802 2 876 34 947 98 c 0
 1018 162 1053 232 1053 307 c 2
 1053 662 l 2
375 655 m 2
 375 684 385 706 406 723 c 2
 463 772 l 2
 484 790 513 799 551 799 c 2
 725 799 l 2
 752 799 776 791 795 774 c 2
 854 727 l 2
 875 711 885 686 885 653 c 2
 885 313 l 2
 885 284 875 262 854 246 c 2
 803 201 l 2
 780 180 754 170 725 170 c 2
 530 170 l 2
 505 170 485 176 471 188 c 2
 408 242 l 2
 386 260 375 284 375 315 c 2
 375 655 l 2
1020 1171 m 2
 1047 1188 1061 1211 1061 1240 c 0
 1061 1264 1053 1285 1036 1302 c 0
 1019 1320 999 1329 976 1329 c 0
 961 1329 945 1324 930 1315 c 2
 799 1235 l 1
 784 1235 l 1
 522 1323 l 2
 515 1326 506 1327 496 1327 c 2
 442 1327 l 2
 425 1327 410 1323 397 1315 c 2
 246 1223 l 2
 219 1206 205 1183 205 1154 c 0
 205 1130 213 1109 230 1092 c 0
 247 1074 267 1065 289 1065 c 0
 305 1065 321 1070 336 1079 c 2
 463 1157 l 1
 487 1157 l 1
 743 1071 l 2
 756 1067 765 1065 770 1065 c 2
 823 1065 l 2
 833 1065 848 1070 868 1079 c 2
 1020 1171 l 2
EndSplineSet
EndChar

StartChar: odieresis
Encoding: 246 246 183
Width: 1237
Flags: HMW
HStem: 2 1329<530 976.5 727 976.5>
VStem: 203 850<307 1102 307 1245>
LayerCount: 3
Fore
SplineSet
1053 662 m 2
 1053 739 1018 809 947 873 c 0
 876 937 803 968 727 967 c 2
 530 967 l 2
 449 967 375 935 308 870 c 0
 239 805 205 736 205 662 c 2
 205 307 l 2
 205 234 240 165 310 100 c 0
 381 35 454 2 530 2 c 2
 727 2 l 2
 802 2 876 34 947 98 c 0
 1018 162 1053 232 1053 307 c 2
 1053 662 l 2
375 655 m 2
 375 684 385 706 406 723 c 2
 463 772 l 2
 484 790 513 799 551 799 c 2
 725 799 l 2
 752 799 776 791 795 774 c 2
 854 727 l 2
 875 711 885 686 885 653 c 2
 885 313 l 2
 885 284 875 262 854 246 c 2
 803 201 l 2
 780 180 754 170 725 170 c 2
 530 170 l 2
 505 170 485 176 471 188 c 2
 408 242 l 2
 386 260 375 284 375 315 c 2
 375 655 l 2
1049 1245 m 2
 1049 1269 1041 1289 1024 1306 c 0
 1007 1323 988 1331 965 1331 c 0
 942 1331 922 1323 906 1306 c 0
 889 1289 881 1269 881 1245 c 2
 881 1102 l 2
 881 1079 889 1059 905 1043 c 0
 921 1026 941 1018 965 1018 c 0
 988 1018 1008 1026 1025 1043 c 0
 1041 1059 1049 1079 1049 1102 c 2
 1049 1245 l 2
371 1245 m 2
 371 1268 363 1288 347 1305 c 0
 330 1321 310 1329 287 1329 c 0
 264 1329 244 1321 228 1305 c 0
 211 1288 203 1268 203 1245 c 2
 203 1102 l 2
 203 1079 211 1059 228 1043 c 0
 244 1026 264 1018 287 1018 c 0
 310 1018 330 1026 347 1043 c 0
 363 1059 371 1079 371 1102 c 2
 371 1245 l 2
EndSplineSet
EndChar

StartChar: divide
Encoding: 247 247 184
Width: 1237
Flags: HMW
HStem: 414 170<606.5 629.5> 752 170<607 629.5 607 961>
VStem: 193 854<656.5 679.5>
LayerCount: 3
Fore
SplineSet
618 1092 m 0
 595 1092 576 1084 560 1067 c 0
 543 1050 535 1030 535 1006 c 0
 535 983 543 964 560 947 c 0
 577 930 596 922 618 922 c 0
 641 922 660 930 677 947 c 0
 694 964 702 983 702 1006 c 0
 702 1030 694 1050 678 1067 c 0
 661 1084 641 1092 618 1092 c 0
276 752 m 2
 253 752 234 744 218 727 c 0
 201 710 193 691 193 668 c 0
 193 645 201 625 218 609 c 0
 234 592 253 584 276 584 c 2
 961 584 l 2
 985 584 1005 592 1022 609 c 0
 1039 625 1047 645 1047 668 c 0
 1047 691 1039 711 1022 728 c 0
 1005 744 984 752 961 752 c 2
 276 752 l 2
618 414 m 0
 595 414 576 406 560 389 c 0
 543 372 535 352 535 328 c 0
 535 305 543 286 560 269 c 0
 577 252 596 244 618 244 c 0
 641 244 660 252 677 269 c 0
 694 286 702 305 702 328 c 0
 702 352 694 372 678 389 c 0
 661 406 641 414 618 414 c 0
EndSplineSet
EndChar

StartChar: oslash
Encoding: 248 248 185
Width: 1237
Flags: HMW
HStem: -181 1327<281.5 979>
VStem: 205 848<291.5 662 307 662>
LayerCount: 3
Fore
SplineSet
1053 662 m 2
 1053 742 1019 810 950 866 c 1
 1032 1006 l 2
 1045 1027 1051 1047 1051 1066 c 0
 1051 1086 1043 1104 1027 1121 c 0
 1011 1138 991 1146 967 1146 c 0
 936 1146 911 1131 893 1102 c 2
 807 956 l 1
 786 963 760 967 727 967 c 2
 530 967 l 2
 451 967 378 935 309 871 c 0
 240 806 205 736 205 662 c 2
 205 307 l 2
 205 276 212 245 225 213 c 0
 238 180 266 143 307 102 c 1
 256 17 l 2
 223 -42 206 -80 206 -97 c 0
 206 -121 215 -141 233 -157 c 0
 251 -173 271 -181 292 -181 c 0
 324 -181 348 -167 365 -139 c 2
 453 12 l 1
 479 5 505 2 530 2 c 2
 727 2 l 2
 802 2 876 34 947 98 c 0
 1018 162 1053 232 1053 307 c 2
 1053 662 l 2
395 252 m 1
 382 271 375 292 375 315 c 2
 375 655 l 2
 375 684 385 706 406 723 c 2
 463 772 l 2
 484 790 513 799 551 799 c 2
 715 799 l 1
 395 252 l 1
885 313 m 2
 885 284 875 262 854 246 c 2
 803 201 l 2
 780 180 754 170 725 170 c 2
 545 170 l 1
 864 717 l 1
 878 696 885 675 885 653 c 2
 885 313 l 2
EndSplineSet
EndChar

StartChar: ugrave
Encoding: 249 249 186
Width: 1237
Flags: HMW
HStem: 0 1329<455 569 455 598.5 455 984.5>
VStem: 211 846<84 881>
LayerCount: 3
Fore
SplineSet
504 170 m 2
 437 170 403 200 401 260 c 2
 379 881 l 2
 378 904 370 923 354 940 c 0
 337 957 318 965 295 965 c 0
 272 965 252 957 235 940 c 0
 218 923 210 903 211 881 c 2
 235 248 l 2
 238 179 264 121 314 72 c 0
 363 24 422 0 491 0 c 2
 569 0 l 2
 628 0 686 18 743 55 c 2
 889 150 l 1
 889 84 l 2
 889 61 897 42 914 25 c 0
 931 8 950 0 973 0 c 0
 996 0 1015 8 1032 25 c 0
 1049 42 1057 61 1057 84 c 2
 1057 881 l 2
 1057 904 1049 925 1033 942 c 0
 1016 959 996 967 973 967 c 0
 950 967 930 959 914 942 c 0
 897 925 889 905 889 881 c 2
 889 350 l 1
 606 170 l 1
 504 170 l 2
504 1321 m 2
 491 1326 479 1329 467 1329 c 0
 443 1329 423 1320 408 1303 c 0
 393 1284 385 1264 385 1243 c 0
 385 1208 401 1183 432 1167 c 2
 737 1026 l 2
 750 1021 762 1018 774 1018 c 0
 798 1018 818 1027 833 1045 c 0
 848 1062 856 1082 856 1104 c 0
 856 1139 840 1164 809 1180 c 2
 504 1321 l 2
EndSplineSet
EndChar

StartChar: uacute
Encoding: 250 250 187
Width: 1237
Flags: HMW
HStem: 0 1329<491 909 569 909 891 984.5>
VStem: 211 846<84 881>
LayerCount: 3
Fore
SplineSet
504 170 m 2
 437 170 403 200 401 260 c 2
 379 881 l 2
 378 904 370 923 354 940 c 0
 337 957 318 965 295 965 c 0
 272 965 252 957 235 940 c 0
 218 923 210 903 211 881 c 2
 235 248 l 2
 238 179 264 121 314 72 c 0
 363 24 422 0 491 0 c 2
 569 0 l 2
 628 0 686 18 743 55 c 2
 889 150 l 1
 889 84 l 2
 889 61 897 42 914 25 c 0
 931 8 950 0 973 0 c 0
 996 0 1015 8 1032 25 c 0
 1049 42 1057 61 1057 84 c 2
 1057 881 l 2
 1057 904 1049 925 1033 942 c 0
 1016 959 996 967 973 967 c 0
 950 967 930 959 914 942 c 0
 897 925 889 905 889 881 c 2
 889 350 l 1
 606 170 l 1
 504 170 l 2
555 1180 m 2
 524 1165 508 1139 508 1104 c 0
 508 1082 516 1062 531 1045 c 0
 546 1027 566 1018 590 1018 c 0
 602 1018 614 1021 627 1026 c 2
 932 1167 l 2
 963 1182 979 1208 979 1243 c 0
 979 1264 971 1284 956 1303 c 0
 941 1320 921 1329 897 1329 c 0
 885 1329 873 1326 860 1321 c 2
 555 1180 l 2
EndSplineSet
EndChar

StartChar: ucircumflex
Encoding: 251 251 188
Width: 1237
Flags: HMW
HStem: 965 53<302 306.5>
VStem: 211 846<84 881>
LayerCount: 3
Fore
SplineSet
504 170 m 2
 437 170 403 200 401 260 c 2
 379 881 l 2
 378 904 370 923 354 940 c 0
 337 957 318 965 295 965 c 0
 272 965 252 957 235 940 c 0
 218 923 210 903 211 881 c 2
 235 248 l 2
 238 179 264 121 314 72 c 0
 363 24 422 0 491 0 c 2
 569 0 l 2
 628 0 686 18 743 55 c 2
 889 150 l 1
 889 84 l 2
 889 61 897 42 914 25 c 0
 931 8 950 0 973 0 c 0
 996 0 1015 8 1032 25 c 0
 1049 42 1057 61 1057 84 c 2
 1057 881 l 2
 1057 904 1049 925 1033 942 c 0
 1016 959 996 967 973 967 c 0
 950 967 930 959 914 942 c 0
 897 925 889 905 889 881 c 2
 889 350 l 1
 606 170 l 1
 504 170 l 2
891 1026 m 2
 904 1021 916 1018 927 1018 c 0
 951 1018 971 1027 987 1045 c 0
 1002 1062 1010 1082 1010 1104 c 0
 1010 1139 994 1164 963 1180 c 2
 657 1321 l 2
 645 1326 633 1329 620 1329 c 0
 610 1329 598 1326 584 1321 c 2
 278 1180 l 2
 247 1165 231 1139 231 1104 c 0
 231 1081 239 1062 255 1045 c 0
 270 1027 290 1018 314 1018 c 0
 326 1018 338 1021 350 1026 c 2
 620 1151 l 1
 891 1026 l 2
EndSplineSet
EndChar

StartChar: udieresis
Encoding: 252 252 189
Width: 1237
Flags: HMW
HStem: 967 51<959.5 976.5>
VStem: 203 852<84 1102 84 1245>
LayerCount: 3
Fore
SplineSet
502 170 m 2
 435 170 401 200 399 260 c 2
 377 881 l 2
 376 904 368 923 352 940 c 0
 335 957 316 965 293 965 c 0
 270 965 250 957 233 940 c 0
 216 923 208 903 209 881 c 2
 233 248 l 2
 236 179 262 121 312 72 c 0
 361 24 420 0 489 0 c 2
 567 0 l 2
 626 0 684 18 741 55 c 2
 887 150 l 1
 887 84 l 2
 887 61 895 42 912 25 c 0
 929 8 948 0 971 0 c 0
 994 0 1013 8 1030 25 c 0
 1047 42 1055 61 1055 84 c 2
 1055 881 l 2
 1055 904 1047 925 1031 942 c 0
 1014 959 994 967 971 967 c 0
 948 967 928 959 912 942 c 0
 895 925 887 905 887 881 c 2
 887 350 l 1
 604 170 l 1
 502 170 l 2
1049 1245 m 2
 1049 1269 1041 1289 1024 1306 c 0
 1007 1323 988 1331 965 1331 c 0
 942 1331 922 1323 906 1306 c 0
 889 1289 881 1269 881 1245 c 2
 881 1102 l 2
 881 1079 889 1059 905 1043 c 0
 921 1026 941 1018 965 1018 c 0
 988 1018 1008 1026 1025 1043 c 0
 1041 1059 1049 1079 1049 1102 c 2
 1049 1245 l 2
371 1245 m 2
 371 1268 363 1288 347 1305 c 0
 330 1321 310 1329 287 1329 c 0
 264 1329 244 1321 228 1305 c 0
 211 1288 203 1268 203 1245 c 2
 203 1102 l 2
 203 1079 211 1059 228 1043 c 0
 244 1026 264 1018 287 1018 c 0
 310 1018 330 1026 347 1043 c 0
 363 1059 371 1079 371 1102 c 2
 371 1245 l 2
EndSplineSet
EndChar

StartChar: yacute
Encoding: 253 253 190
Width: 1237
Flags: HMW
HStem: -360 1689<289 907 522 907>
VStem: 205 850
LayerCount: 3
Fore
SplineSet
1055 883 m 2
 1055 906 1047 925 1030 942 c 0
 1013 959 994 967 971 967 c 0
 948 967 928 959 911 942 c 0
 894 925 885 905 885 883 c 2
 885 754 l 1
 657 244 l 1
 598 244 l 1
 377 756 l 1
 377 881 l 2
 377 904 369 924 352 941 c 0
 335 957 314 965 291 965 c 0
 268 965 249 957 233 941 c 0
 217 924 209 904 209 881 c 2
 209 719 l 1
 461 133 l 2
 478 94 506 74 543 74 c 2
 584 74 l 1
 469 -193 l 1
 289 -193 l 2
 266 -193 246 -201 230 -217 c 0
 213 -233 205 -253 205 -276 c 0
 205 -300 213 -320 230 -336 c 0
 246 -352 266 -360 289 -360 c 2
 522 -360 l 2
 561 -360 587 -342 602 -305 c 2
 1055 719 l 1
 1055 883 l 2
553 1180 m 2
 522 1165 506 1139 506 1104 c 0
 506 1082 514 1062 529 1045 c 0
 544 1027 564 1018 588 1018 c 0
 600 1018 612 1021 625 1026 c 2
 930 1167 l 2
 961 1182 977 1208 977 1243 c 0
 977 1264 969 1284 954 1303 c 0
 939 1320 919 1329 895 1329 c 0
 883 1329 871 1326 858 1321 c 2
 553 1180 l 2
EndSplineSet
EndChar

StartChar: thorn
Encoding: 254 254 191
Width: 1237
Flags: HMW
HStem: -362 1691<281.5 304 281.5 304.5>
VStem: 207 846<-287.5 614 352 614 614 655 352 1245>
LayerCount: 3
Fore
SplineSet
442 31 m 2
 487 -14 543 -37 608 -37 c 2
 645 -37 l 2
 714 -37 772 -16 817 25 c 2
 954 143 l 2
 1020 200 1053 269 1053 352 c 2
 1053 614 l 2
 1053 696 1022 764 961 817 c 2
 821 938 l 2
 771 982 716 1004 657 1004 c 2
 618 1004 l 2
 538 1004 458 959 377 868 c 1
 377 1245 l 2
 377 1268 369 1288 352 1305 c 0
 335 1321 315 1329 293 1329 c 0
 270 1329 249 1321 232 1305 c 0
 215 1288 207 1268 207 1245 c 2
 207 -276 l 2
 207 -299 216 -320 233 -337 c 0
 250 -354 270 -362 293 -362 c 0
 316 -362 336 -354 353 -337 c 0
 369 -320 377 -300 377 -276 c 2
 377 96 l 1
 442 31 l 2
614 133 m 2
 591 133 565 148 535 178 c 2
 414 299 l 2
 389 324 377 349 377 375 c 2
 377 590 l 2
 377 617 388 642 410 664 c 2
 535 788 l 2
 565 819 589 834 608 834 c 2
 657 834 l 2
 676 834 693 827 709 813 c 2
 850 692 l 2
 875 671 887 648 887 621 c 2
 887 350 l 2
 887 319 876 296 854 279 c 2
 723 164 l 2
 700 143 678 133 657 133 c 2
 614 133 l 2
EndSplineSet
EndChar

StartChar: ydieresis
Encoding: 255 255 192
Width: 1237
Flags: HMW
HStem: 967 51<959.5 976.5>
VStem: 203 852<719 1102 719 1245>
LayerCount: 3
Fore
SplineSet
1055 883 m 2
 1055 906 1047 925 1030 942 c 0
 1013 959 994 967 971 967 c 0
 948 967 928 959 911 942 c 0
 894 925 885 905 885 883 c 2
 885 754 l 1
 657 244 l 1
 598 244 l 1
 377 756 l 1
 377 881 l 2
 377 904 369 924 352 941 c 0
 335 957 314 965 291 965 c 0
 268 965 249 957 233 941 c 0
 217 924 209 904 209 881 c 2
 209 719 l 1
 461 133 l 2
 478 94 506 74 543 74 c 2
 584 74 l 1
 469 -193 l 1
 289 -193 l 2
 266 -193 246 -201 230 -217 c 0
 213 -233 205 -253 205 -276 c 0
 205 -300 213 -320 230 -336 c 0
 246 -352 266 -360 289 -360 c 2
 522 -360 l 2
 561 -360 587 -342 602 -305 c 2
 1055 719 l 1
 1055 883 l 2
1049 1245 m 2
 1049 1269 1041 1289 1024 1306 c 0
 1007 1323 988 1331 965 1331 c 0
 942 1331 922 1323 906 1306 c 0
 889 1289 881 1269 881 1245 c 2
 881 1102 l 2
 881 1079 889 1059 905 1043 c 0
 921 1026 941 1018 965 1018 c 0
 988 1018 1008 1026 1025 1043 c 0
 1041 1059 1049 1079 1049 1102 c 2
 1049 1245 l 2
371 1245 m 2
 371 1268 363 1288 347 1305 c 0
 330 1321 310 1329 287 1329 c 0
 264 1329 244 1321 228 1305 c 0
 211 1288 203 1268 203 1245 c 2
 203 1102 l 2
 203 1079 211 1059 228 1043 c 0
 244 1026 264 1018 287 1018 c 0
 310 1018 330 1026 347 1043 c 0
 363 1059 371 1079 371 1102 c 2
 371 1245 l 2
EndSplineSet
EndChar

StartChar: dotlessi
Encoding: 305 305 193
Width: 1237
Flags: HMW
HStem: 2 965<373 375 375 631 363.5 885 363.5 896.5>
VStem: 289 680<74.5 97.5>
LayerCount: 3
Fore
SplineSet
715 881 m 2
 715 904 707 925 691 942 c 0
 674 959 654 967 631 967 c 2
 375 967 l 2
 352 967 332 959 316 942 c 0
 299 925 291 905 291 881 c 0
 291 858 299 839 316 822 c 0
 332 805 352 797 375 797 c 2
 545 797 l 1
 545 170 l 1
 373 170 l 2
 350 170 330 162 314 145 c 0
 297 128 289 109 289 86 c 0
 289 63 297 43 314 27 c 0
 330 10 350 2 373 2 c 2
 885 2 l 2
 908 2 927 10 944 27 c 0
 961 43 969 63 969 86 c 0
 969 109 961 129 944 146 c 0
 927 162 906 170 883 170 c 2
 715 170 l 1
 715 881 l 2
EndSplineSet
EndChar

StartChar: Lslash
Encoding: 321 321 194
Width: 1237
Flags: HMW
HStem: 0 1329<304.5 327.5 304.5 994 304.5 1006>
VStem: 25 1055<72.5 302.5>
LayerCount: 3
Fore
SplineSet
400 463 m 1
 400 463 519 582 758 821 c 0
 775 838 783 858 783 881 c 0
 783 904 775 923 758 940 c 0
 741 957 722 965 699 965 c 0
 676 965 656 957 639 940 c 2
 400 700 l 1
 400 1245 l 2
 400 1268 392 1287 375 1304 c 0
 358 1321 339 1329 316 1329 c 0
 293 1329 274 1321 257 1304 c 0
 240 1287 232 1268 232 1245 c 2
 232 532 l 1
 50 350 l 2
 33 334 25 314 25 291 c 0
 25 268 33 248 50 232 c 0
 66 215 86 207 109 207 c 0
 132 207 152 215 168 231 c 2
 232 295 l 1
 232 0 l 1
 994 0 l 2
 1018 0 1038 8 1055 25 c 0
 1072 41 1080 61 1080 84 c 0
 1080 107 1072 127 1055 144 c 0
 1038 160 1018 168 994 168 c 2
 400 168 l 1
 400 463 l 1
EndSplineSet
EndChar

StartChar: lslash
Encoding: 322 322 195
Width: 1237
Flags: HMW
HStem: 170 170<365.5 377 377 388.5 365.5 545>
VStem: 291 678
LayerCount: 3
Fore
SplineSet
715 643 m 1
 715 643 791 719 944 872 c 0
 961 889 969 909 969 932 c 0
 969 955 961 974 944 991 c 0
 927 1008 908 1016 885 1016 c 0
 862 1016 842 1008 825 991 c 2
 715 881 l 1
 715 1245 l 2
 715 1268 707 1287 690 1304 c 0
 673 1321 654 1329 631 1329 c 2
 375 1329 l 2
 352 1329 332 1321 316 1305 c 0
 299 1288 291 1268 291 1245 c 0
 291 1222 299 1202 316 1186 c 0
 332 1169 352 1161 375 1161 c 2
 545 1161 l 1
 545 711 l 1
 317 483 l 2
 301 467 293 447 293 424 c 0
 293 401 301 381 318 365 c 0
 334 348 354 340 377 340 c 0
 400 340 420 348 436 365 c 2
 545 473 l 1
 545 170 l 1
 377 170 l 2
 354 170 334 162 318 145 c 0
 301 128 293 109 293 86 c 0
 293 63 301 43 318 26 c 0
 334 9 354 0 377 0 c 2
 885 0 l 2
 908 0 928 9 945 26 c 0
 961 43 969 63 969 86 c 0
 969 109 961 128 944 145 c 0
 927 162 908 170 885 170 c 2
 715 170 l 1
 715 643 l 1
EndSplineSet
EndChar

StartChar: OE
Encoding: 338 338 196
Width: 1237
Flags: HMW
HStem: 0 1329<629 971 971 973 583 983>
VStem: 375 258<645.5 681.5>
LayerCount: 3
Fore
SplineSet
801 582 m 1
 801 582 858 582 973 582 c 0
 996 582 1016 590 1033 606 c 0
 1049 622 1057 642 1057 666 c 0
 1057 689 1049 709 1033 726 c 0
 1016 742 996 750 973 750 c 2
 803 750 l 1
 803 1161 l 1
 973 1161 l 2
 996 1161 1016 1169 1033 1186 c 0
 1049 1202 1057 1222 1057 1245 c 0
 1057 1268 1049 1288 1033 1305 c 0
 1016 1321 996 1329 973 1329 c 2
 629 1329 l 2
 537 1329 470 1288 428 1206 c 2
 242 829 l 2
 217 780 205 725 205 662 c 0
 205 600 217 545 242 496 c 2
 428 123 l 2
 447 87 474 58 509 35 c 0
 544 12 584 0 629 0 c 2
 971 0 l 2
 995 0 1015 8 1032 25 c 0
 1049 42 1057 61 1057 84 c 0
 1057 107 1049 127 1032 144 c 0
 1015 160 994 168 971 168 c 2
 801 168 l 1
 801 582 l 1
629 168 m 2
 604 168 587 179 578 201 c 2
 399 559 l 2
 383 592 375 627 375 664 c 0
 375 699 383 733 399 768 c 2
 573 1122 l 2
 586 1148 604 1161 629 1161 c 2
 633 1161 l 1
 633 168 l 1
 629 168 l 2
EndSplineSet
EndChar

StartChar: oe
Encoding: 339 339 197
Width: 1237
Flags: HMW
HStem: 168 194<854 870 870 1077>
VStem: 246 309<315 653> 725 270<532 649 532 662 532 676.5>
LayerCount: 3
Fore
SplineSet
1077 362 m 2
 1100 362 1120 370 1137 387 c 0
 1153 404 1161 423 1161 446 c 2
 1161 649 l 2
 1161 730 1139 790 1094 831 c 2
 1030 891 l 2
 977 940 926 965 877 965 c 2
 852 965 l 2
 806 965 760 946 713 909 c 2
 643 854 l 2
 641 854 640 853 639 850 c 1
 588 899 549 930 522 944 c 0
 493 959 457 967 414 967 c 2
 387 967 l 2
 313 967 243 934 176 868 c 0
 109 802 76 733 76 662 c 2
 76 307 l 2
 76 238 110 169 177 102 c 0
 244 35 314 2 387 2 c 2
 414 2 l 2
 455 2 490 9 519 24 c 0
 547 37 587 69 639 119 c 1
 705 55 l 2
 742 18 794 0 860 0 c 2
 1077 0 l 2
 1100 0 1119 8 1136 25 c 0
 1153 42 1161 61 1161 84 c 0
 1161 107 1153 127 1136 144 c 0
 1119 160 1099 168 1077 168 c 2
 870 168 l 2
 838 168 805 186 772 221 c 0
 739 256 723 286 723 313 c 2
 723 362 l 1
 1077 362 l 2
555 313 m 2
 555 288 540 259 510 224 c 0
 479 188 447 170 412 170 c 2
 387 170 l 2
 360 170 339 177 326 190 c 2
 276 240 l 2
 256 260 246 285 246 315 c 2
 246 655 l 2
 246 685 262 716 295 749 c 0
 327 782 362 799 401 799 c 0
 436 799 462 790 479 772 c 2
 526 725 l 2
 545 706 555 682 555 653 c 2
 555 313 l 2
725 532 m 1
 725 662 l 2
 725 691 741 721 774 751 c 0
 807 780 837 795 864 795 c 0
 891 795 920 778 950 743 c 0
 980 708 995 676 995 649 c 2
 995 532 l 1
 725 532 l 1
EndSplineSet
EndChar

StartChar: Scaron
Encoding: 352 352 198
Width: 1237
Flags: HMW
HStem: 1329 61<582 582>
VStem: 205 852<191.5 210.5 164 250.5>
LayerCount: 3
Fore
SplineSet
397 1329 m 2
 344 1329 299 1310 262 1272 c 0
 225 1233 206 1187 206 1136 c 0
 206 1092 221 1051 250 1012 c 2
 872 215 l 2
 881 204 885 196 885 189 c 0
 885 175 876 168 858 168 c 2
 440 168 l 2
 421 168 406 174 394 186 c 0
 381 198 375 213 375 231 c 0
 375 253 367 272 351 289 c 0
 335 305 316 313 293 313 c 0
 234 313 205 282 205 219 c 0
 205 164 227 114 272 69 c 0
 316 23 368 0 428 0 c 2
 881 0 l 2
 926 0 966 19 1003 57 c 0
 1039 95 1057 139 1057 189 c 0
 1057 232 1042 274 1012 313 c 2
 389 1110 l 2
 380 1121 376 1130 376 1138 c 0
 376 1151 386 1157 406 1157 c 2
 821 1157 l 2
 854 1157 876 1139 886 1104 c 0
 895 1069 905 1045 916 1032 c 0
 927 1019 947 1012 975 1012 c 0
 996 1012 1015 1020 1032 1037 c 0
 1049 1054 1057 1074 1057 1098 c 0
 1057 1162 1033 1217 986 1262 c 0
 939 1307 888 1329 834 1329 c 2
 397 1329 l 2
348 1685 m 2
 335 1690 323 1693 312 1693 c 0
 288 1693 268 1684 253 1667 c 0
 237 1649 229 1629 229 1607 c 0
 229 1572 245 1547 276 1531 c 2
 582 1390 l 2
 594 1385 606 1382 618 1382 c 0
 629 1382 641 1385 655 1390 c 2
 961 1531 l 2
 992 1546 1008 1572 1008 1607 c 0
 1008 1628 1000 1648 985 1667 c 0
 969 1684 949 1693 925 1693 c 0
 913 1693 901 1690 889 1685 c 2
 618 1560 l 1
 348 1685 l 2
EndSplineSet
EndChar

StartChar: scaron
Encoding: 353 353 199
Width: 1237
Flags: HMW
HStem: 965 61<582 582>
VStem: 205 850<139 824>
LayerCount: 3
Fore
SplineSet
442 965 m 2
 381 965 329 943 288 899 c 0
 246 855 225 803 225 743 c 0
 225 706 237 668 260 631 c 0
 283 594 316 566 360 547 c 2
 811 344 l 2
 848 327 867 299 867 262 c 0
 867 237 859 216 842 197 c 0
 825 178 804 168 780 168 c 2
 467 168 l 2
 421 168 386 180 362 204 c 0
 337 228 314 240 293 240 c 0
 267 240 246 232 230 215 c 0
 213 198 205 179 205 156 c 0
 205 122 230 88 281 53 c 0
 332 18 386 0 444 0 c 2
 784 0 l 2
 849 0 907 25 958 75 c 0
 1009 125 1034 186 1034 258 c 0
 1034 312 1020 361 991 406 c 0
 962 449 925 481 879 502 c 2
 432 700 l 2
 407 711 395 727 395 750 c 0
 395 781 414 797 451 797 c 2
 831 797 l 2
 855 797 878 785 900 761 c 0
 922 737 946 725 973 725 c 0
 994 725 1013 733 1030 748 c 0
 1047 763 1055 782 1055 807 c 0
 1055 841 1032 876 986 912 c 0
 939 947 886 965 827 965 c 2
 442 965 l 2
348 1321 m 2
 335 1326 323 1329 312 1329 c 0
 288 1329 268 1320 253 1303 c 0
 237 1285 229 1265 229 1243 c 0
 229 1208 245 1183 276 1167 c 2
 582 1026 l 2
 594 1021 606 1018 618 1018 c 0
 629 1018 641 1021 655 1026 c 2
 961 1167 l 2
 992 1182 1008 1208 1008 1243 c 0
 1008 1264 1000 1284 985 1303 c 0
 969 1320 949 1329 925 1329 c 0
 913 1329 901 1326 889 1321 c 2
 618 1196 l 1
 348 1321 l 2
EndSplineSet
EndChar

StartChar: Ydieresis
Encoding: 376 376 200
Width: 1237
Flags: HMW
HStem: 1329 53<281.5 298.5 275.5 305 959.5 976.5>
VStem: 203 852<1067 1466 1067 1609>
LayerCount: 3
Fore
SplineSet
1055 1067 m 1
 1055 1067 1055 1126 1055 1243 c 0
 1055 1269 1047 1290 1030 1306 c 0
 1013 1321 993 1329 971 1329 c 0
 948 1329 929 1321 912 1304 c 0
 895 1287 887 1267 887 1243 c 2
 887 1126 l 1
 631 803 l 1
 379 1128 l 1
 379 1243 l 2
 379 1267 371 1287 354 1304 c 0
 337 1321 317 1329 293 1329 c 0
 270 1329 250 1321 234 1304 c 0
 217 1287 209 1267 209 1243 c 2
 209 1065 l 1
 547 637 l 1
 547 84 l 2
 547 61 555 41 572 25 c 0
 589 8 609 0 633 0 c 0
 656 0 675 8 692 25 c 0
 709 41 717 61 717 84 c 2
 717 637 l 1
 1055 1067 l 1
1049 1609 m 2
 1049 1633 1041 1653 1024 1670 c 0
 1007 1687 988 1695 965 1695 c 0
 942 1695 922 1687 906 1670 c 0
 889 1653 881 1633 881 1609 c 2
 881 1466 l 2
 881 1443 889 1423 905 1407 c 0
 921 1390 941 1382 965 1382 c 0
 988 1382 1008 1390 1025 1407 c 0
 1041 1423 1049 1443 1049 1466 c 2
 1049 1609 l 2
371 1609 m 2
 371 1632 363 1652 347 1669 c 0
 330 1685 310 1693 287 1693 c 0
 264 1693 244 1685 228 1669 c 0
 211 1652 203 1632 203 1609 c 2
 203 1466 l 2
 203 1443 211 1423 228 1407 c 0
 244 1390 264 1382 287 1382 c 0
 310 1382 330 1390 347 1407 c 0
 363 1423 371 1443 371 1466 c 2
 371 1609 l 2
EndSplineSet
EndChar

StartChar: Zcaron
Encoding: 381 381 201
Width: 1237
Flags: HMW
HStem: 1329 61<582 582>
VStem: 205 848<72.5 95.5 72.5 111 0 95.5 1233.5 1256>
LayerCount: 3
Fore
SplineSet
287 1329 m 2
 264 1329 245 1321 229 1304 c 0
 213 1287 205 1267 205 1245 c 0
 205 1222 213 1202 229 1185 c 0
 245 1168 264 1159 287 1159 c 2
 821 1159 l 1
 205 111 l 1
 205 0 l 1
 969 0 l 2
 992 0 1011 8 1028 25 c 0
 1045 42 1053 61 1053 84 c 0
 1053 107 1045 127 1029 144 c 0
 1012 160 992 168 969 168 c 2
 436 168 l 1
 1053 1221 l 1
 1053 1329 l 1
 287 1329 l 2
348 1685 m 2
 335 1690 323 1693 312 1693 c 0
 288 1693 268 1684 253 1667 c 0
 237 1649 229 1629 229 1607 c 0
 229 1572 245 1547 276 1531 c 2
 582 1390 l 2
 594 1385 606 1382 618 1382 c 0
 629 1382 641 1385 655 1390 c 2
 961 1531 l 2
 992 1546 1008 1572 1008 1607 c 0
 1008 1628 1000 1648 985 1667 c 0
 969 1684 949 1693 925 1693 c 0
 913 1693 901 1690 889 1685 c 2
 618 1560 l 1
 348 1685 l 2
EndSplineSet
EndChar

StartChar: zcaron
Encoding: 382 382 202
Width: 1237
Flags: HMW
HStem: 967 59<320.5 582 582 582>
VStem: 207 848<72.5 881 84 881>
LayerCount: 3
Fore
SplineSet
1055 881 m 2
 1055 904 1047 925 1031 942 c 0
 1014 959 994 967 971 967 c 2
 971 967 758 967 332 967 c 0
 309 967 290 959 273 942 c 0
 256 925 248 906 248 883 c 0
 248 859 256 839 273 822 c 0
 289 805 309 797 332 797 c 2
 836 797 l 1
 252 236 l 2
 222 207 207 180 207 156 c 2
 207 84 l 2
 207 61 215 41 232 25 c 0
 249 8 269 0 293 0 c 2
 969 0 l 2
 992 0 1012 8 1029 25 c 0
 1045 41 1053 61 1053 84 c 0
 1053 107 1045 127 1029 144 c 0
 1012 160 992 168 969 168 c 2
 430 168 l 1
 1026 745 l 2
 1045 764 1055 787 1055 813 c 2
 1055 881 l 2
348 1321 m 2
 335 1326 323 1329 312 1329 c 0
 288 1329 268 1320 253 1303 c 0
 237 1285 229 1265 229 1243 c 0
 229 1208 245 1183 276 1167 c 2
 582 1026 l 2
 594 1021 606 1018 618 1018 c 0
 629 1018 641 1021 655 1026 c 2
 961 1167 l 2
 992 1182 1008 1208 1008 1243 c 0
 1008 1264 1000 1284 985 1303 c 0
 969 1320 949 1329 925 1329 c 0
 913 1329 901 1326 889 1321 c 2
 618 1196 l 1
 348 1321 l 2
EndSplineSet
EndChar

StartChar: florin
Encoding: 402 402 203
Width: 1237
Flags: HMW
HStem: 965 194<741 1092 895 913>
VStem: 315 861
LayerCount: 3
Fore
SplineSet
426 965 m 2
 400 965 380 957 365 940 c 0
 350 923 342 903 342 881 c 0
 342 858 350 839 367 822 c 0
 383 805 403 797 426 797 c 2
 537 797 l 1
 319 -262 l 2
 316 -273 315 -286 315 -299 c 0
 315 -341 339 -362 387 -362 c 0
 440 -362 474 -329 489 -262 c 2
 707 797 l 1
 913 797 l 2
 936 797 956 805 973 822 c 0
 989 839 997 859 997 881 c 0
 997 904 989 924 973 941 c 0
 957 957 937 965 913 965 c 2
 741 965 l 1
 756 1030 l 2
 775 1116 821 1159 895 1159 c 2
 1092 1159 l 2
 1115 1159 1134 1167 1151 1184 c 0
 1168 1201 1176 1220 1176 1243 c 0
 1176 1267 1168 1287 1151 1304 c 0
 1134 1321 1115 1329 1092 1329 c 2
 895 1329 l 2
 815 1329 749 1303 696 1250 c 0
 642 1197 605 1123 586 1030 c 2
 571 965 l 1
 426 965 l 2
EndSplineSet
EndChar

StartChar: circumflex
Encoding: 710 710 204
Width: 1237
Flags: HMW
HStem: 1018 311<308.5 633.5 622 946>
VStem: 238 779<1093 1121.5 1093 1121.5>
LayerCount: 3
Fore
SplineSet
898 1026 m 2
 911 1021 923 1018 934 1018 c 0
 958 1018 978 1027 994 1045 c 0
 1009 1062 1017 1082 1017 1104 c 0
 1017 1139 1001 1164 970 1180 c 2
 664 1321 l 2
 652 1326 640 1329 627 1329 c 0
 617 1329 605 1326 591 1321 c 2
 285 1180 l 2
 254 1165 238 1139 238 1104 c 0
 238 1081 246 1062 262 1045 c 0
 277 1027 296 1018 321 1018 c 0
 333 1018 345 1021 357 1026 c 2
 627 1151 l 1
 898 1026 l 2
EndSplineSet
EndChar

StartChar: caron
Encoding: 711 711 205
Width: 1237
Flags: HMW
HStem: 1018 311<309 632.5>
VStem: 238 779<1225.5 1253.5 1225.5 1254>
LayerCount: 3
Fore
SplineSet
357 1321 m 2
 344 1326 332 1329 321 1329 c 0
 297 1329 277 1320 262 1303 c 0
 246 1285 238 1265 238 1243 c 0
 238 1208 254 1183 285 1167 c 2
 591 1026 l 2
 603 1021 615 1018 627 1018 c 0
 638 1018 650 1021 664 1026 c 2
 970 1167 l 2
 1001 1182 1017 1208 1017 1243 c 0
 1017 1264 1009 1284 994 1303 c 0
 978 1320 958 1329 934 1329 c 0
 922 1329 910 1326 898 1321 c 2
 627 1196 l 1
 357 1321 l 2
EndSplineSet
EndChar

StartChar: uni02C9
Encoding: 713 713 206
Width: 1237
Flags: HMW
HStem: 1161 168<369 889>
VStem: 285 690<1233.5 1256.5>
LayerCount: 3
Fore
SplineSet
369 1329 m 2
 347 1329 327 1321 310 1305 c 0
 293 1288 285 1268 285 1245 c 0
 285 1222 293 1203 310 1186 c 0
 327 1169 346 1161 369 1161 c 2
 889 1161 l 2
 913 1161 933 1169 950 1186 c 0
 967 1202 975 1222 975 1245 c 0
 975 1268 967 1288 950 1305 c 0
 933 1321 912 1329 889 1329 c 2
 369 1329 l 2
EndSplineSet
EndChar

StartChar: breve
Encoding: 728 728 207
Width: 1237
Flags: HMW
HStem: 1018 311<303.5 667>
VStem: 229 779<1234.5 1266.5>
LayerCount: 3
Fore
SplineSet
922 1329 m 0
 895 1329 873 1321 856 1305 c 0
 783 1227 703 1188 618 1188 c 0
 533 1188 454 1227 381 1305 c 0
 364 1321 342 1329 315 1329 c 0
 292 1329 272 1322 255 1308 c 0
 238 1293 229 1276 229 1257 c 0
 229 1212 269 1161 350 1104 c 0
 431 1047 521 1018 618 1018 c 0
 716 1018 806 1047 887 1104 c 0
 968 1161 1008 1212 1008 1257 c 0
 1008 1276 1000 1293 983 1308 c 0
 966 1322 946 1329 922 1329 c 0
EndSplineSet
EndChar

StartChar: dotaccent
Encoding: 729 729 208
Width: 1237
Flags: HMW
HStem: 1018 311<606.5 630>
VStem: 535 167<1090.5 1245 1102 1245>
LayerCount: 3
Fore
SplineSet
702 1245 m 2
 702 1268 694 1288 678 1305 c 0
 662 1321 642 1329 618 1329 c 0
 595 1329 575 1321 559 1305 c 0
 543 1288 535 1268 535 1245 c 2
 535 1102 l 2
 535 1079 543 1059 559 1043 c 0
 575 1026 595 1018 618 1018 c 0
 642 1018 662 1026 678 1043 c 0
 694 1059 702 1079 702 1102 c 2
 702 1245 l 2
EndSplineSet
EndChar

